<?xml version="1.0" encoding="utf-8"?>
<!-- Generator: Adobe Illustrator 16.0.0, SVG Export Plug-In . SVG Version: 6.00 Build 0)  -->
<!DOCTYPE svg PUBLIC "-//W3C//DTD SVG 1.1//EN" "http://www.w3.org/Graphics/SVG/1.1/DTD/svg11.dtd">
<svg version="1.1" id="Layer_1" xmlns="http://www.w3.org/2000/svg" xmlns:xlink="http://www.w3.org/1999/xlink" x="0px" y="0px"
	 width="228px" height="42px" viewBox="0 0 228 42" enable-background="new 0 0 228 42" xml:space="preserve">
<g>
	<g>
		<g>
			<path fill="#D8505C" d="M74.422,19.74c0,0.963-0.305,1.729-0.913,2.3s-1.352,0.854-2.229,0.854c-0.526,0-1.045-0.064-1.555-0.197
				c-0.51-0.134-0.951-0.268-1.323-0.398c-0.176,0.12-0.434,0.388-0.773,0.796c-0.341,0.409-0.724,0.908-1.151,1.495
				c0.394,1.693,0.711,2.898,0.952,3.613s0.47,1.436,0.688,2.168c0.188,0.582,0.461,1.037,0.823,1.366
				c0.361,0.329,0.933,0.493,1.712,0.493c0.285,0,0.643-0.055,1.069-0.167c0.429-0.108,0.78-0.22,1.055-0.331l-0.362,1.504
				c-1.086,0.469-2.035,0.808-2.847,1.02c-0.812,0.211-1.535,0.317-2.171,0.317c-0.462,0-0.917-0.044-1.366-0.134
				c-0.45-0.088-0.861-0.248-1.234-0.481c-0.405-0.243-0.747-0.548-1.029-0.913c-0.279-0.365-0.518-0.875-0.715-1.529
				c-0.133-0.409-0.254-0.873-0.364-1.394c-0.109-0.521-0.221-0.981-0.331-1.38c-0.318,0.477-0.549,0.831-0.69,1.063
				c-0.144,0.233-0.352,0.56-0.626,0.981c-0.867,1.338-1.619,2.293-2.257,2.863c-0.635,0.57-1.398,0.857-2.287,0.857
				c-0.669,0-1.239-0.229-1.712-0.683c-0.472-0.454-0.707-1.045-0.707-1.777c0-0.985,0.304-1.763,0.913-2.333
				c0.611-0.571,1.355-0.855,2.235-0.855c0.527,0,1.032,0.062,1.516,0.19s0.94,0.269,1.368,0.425
				c0.165-0.134,0.422-0.395,0.769-0.782c0.345-0.387,0.723-0.869,1.128-1.446c-0.365-1.482-0.664-2.601-0.896-3.354
				c-0.231-0.754-0.471-1.501-0.713-2.244c-0.197-0.592-0.483-1.049-0.855-1.375c-0.374-0.324-0.934-0.485-1.68-0.485
				c-0.329,0-0.696,0.057-1.103,0.174c-0.407,0.116-0.747,0.224-1.021,0.323l0.361-1.503c0.987-0.446,1.922-0.78,2.806-1.003
				c0.882-0.222,1.62-0.334,2.212-0.334c0.538,0,0.999,0.039,1.382,0.117c0.384,0.077,0.79,0.244,1.219,0.499
				c0.394,0.243,0.736,0.551,1.027,0.922c0.29,0.371,0.529,0.878,0.716,1.519c0.133,0.444,0.256,0.903,0.367,1.379
				c0.11,0.478,0.206,0.887,0.283,1.229c0.23-0.354,0.469-0.72,0.716-1.096c0.247-0.376,0.458-0.709,0.633-0.997
				c0.846-1.339,1.603-2.3,2.272-2.882c0.669-0.581,1.425-0.872,2.27-0.872c0.691,0,1.267,0.229,1.728,0.689
				S74.422,19.008,74.422,19.74z"/>
			<path fill="#D8505C" d="M86.055,32.048h-0.132c-0.385,0.329-0.749,0.634-1.097,0.909c-0.345,0.273-0.781,0.549-1.308,0.824
				c-0.462,0.242-0.947,0.443-1.459,0.602c-0.51,0.16-1.073,0.24-1.688,0.24c-1.91,0-3.349-0.566-4.315-1.701
				c-0.967-1.134-1.449-2.686-1.449-4.656c0-1.514,0.27-2.936,0.808-4.264c0.537-1.326,1.257-2.494,2.157-3.501
				c0.911-0.996,1.977-1.784,3.195-2.365c1.219-0.581,2.504-0.871,3.854-0.871c0.987,0,1.853,0.117,2.594,0.349
				c0.741,0.232,1.348,0.549,1.82,0.947l5.05-1.046l0.23,0.266l-2.426,10.214c-0.087,0.344-0.181,0.773-0.28,1.289
				c-0.099,0.514-0.147,0.904-0.147,1.17c0,0.632,0.143,1.066,0.428,1.305c0.286,0.238,0.779,0.357,1.481,0.357
				c0.308,0,0.678-0.062,1.112-0.184c0.433-0.121,0.736-0.221,0.913-0.299l-0.362,1.494c-1.086,0.434-1.954,0.763-2.607,0.989
				c-0.651,0.226-1.406,0.341-2.261,0.341c-1.131,0-2.031-0.224-2.706-0.675C86.787,33.336,86.318,32.758,86.055,32.048z
				 M88.015,21.514c0-0.244-0.035-0.53-0.101-0.864c-0.065-0.332-0.181-0.613-0.346-0.845c-0.197-0.288-0.455-0.506-0.773-0.655
				s-0.714-0.224-1.188-0.224c-0.724,0-1.392,0.263-2.001,0.788c-0.609,0.524-1.151,1.225-1.622,2.098
				c-0.463,0.864-0.825,1.868-1.09,3.01c-0.262,1.146-0.395,2.314-0.395,3.51c0,0.542,0.042,1.045,0.123,1.51
				c0.083,0.465,0.218,0.857,0.405,1.178c0.197,0.344,0.464,0.609,0.799,0.796c0.336,0.188,0.757,0.282,1.263,0.282
				c0.516,0,1.013-0.152,1.491-0.455c0.479-0.304,0.921-0.678,1.327-1.12L88.015,21.514z"/>
			<path fill="#D8505C" d="M98.909,21.447c0-0.641-0.127-1.075-0.379-1.3c-0.252-0.228-0.67-0.34-1.251-0.34
				c-0.373,0-0.761,0.063-1.16,0.191c-0.4,0.126-0.694,0.223-0.88,0.289l0.361-1.495c0.778-0.321,1.646-0.623,2.601-0.905
				c0.955-0.282,1.739-0.423,2.354-0.423c1.306,0,2.288,0.301,2.947,0.903c0.657,0.604,0.987,1.378,0.987,2.33
				c0,0.532-0.097,1.175-0.288,1.93c-0.192,0.758-0.287,1.309-0.287,1.652c0,0.684,0.12,1.151,0.362,1.398
				c0.242,0.25,0.605,0.375,1.09,0.375c0.417,0,0.882-0.07,1.394-0.209c0.512-0.138,1.129-0.422,1.857-0.852l1.643-7.247
				l5.242-0.231l0.197,0.231l-2.338,10.205c-0.077,0.319-0.165,0.745-0.264,1.278c-0.099,0.531-0.147,0.924-0.147,1.177
				c0,0.642,0.137,1.079,0.411,1.312s0.763,0.347,1.465,0.347c0.329,0,0.702-0.056,1.119-0.173s0.72-0.219,0.907-0.309l-0.362,1.496
				c-1.084,0.432-1.951,0.761-2.598,0.988c-0.646,0.227-1.397,0.34-2.253,0.34c-1.193,0-2.178-0.311-2.95-0.938
				c-0.771-0.625-1.158-1.465-1.158-2.516c0-0.577,0.017-1.009,0.049-1.297c0.033-0.287,0.116-0.721,0.247-1.297l0.399-1.744
				c-0.9,0.576-1.871,1.086-2.914,1.529c-1.042,0.443-2.205,0.665-3.489,0.665c-1.207,0-2.108-0.311-2.699-0.928
				c-0.594-0.62-0.89-1.487-0.89-2.604c0-0.598,0.112-1.299,0.338-2.105C98.796,22.365,98.909,21.791,98.909,21.447z"/>
			<path fill="#D8505C" d="M129.421,32.048h-0.132c-0.386,0.329-0.747,0.634-1.095,0.909c-0.346,0.273-0.783,0.549-1.31,0.824
				c-0.461,0.242-0.946,0.443-1.458,0.602c-0.512,0.16-1.073,0.24-1.688,0.24c-1.912,0-3.35-0.566-4.315-1.701
				c-0.967-1.134-1.45-2.686-1.45-4.656c0-1.514,0.271-2.936,0.809-4.264c0.537-1.326,1.256-2.494,2.156-3.501
				c0.911-0.996,1.976-1.784,3.195-2.365c1.219-0.581,2.504-0.871,3.854-0.871c0.989,0,1.853,0.117,2.594,0.349
				c0.742,0.232,1.349,0.549,1.819,0.947l5.052-1.046l0.229,0.266l-2.424,10.214c-0.089,0.344-0.185,0.773-0.281,1.289
				c-0.099,0.514-0.147,0.904-0.147,1.17c0,0.632,0.143,1.066,0.429,1.305c0.284,0.238,0.777,0.357,1.48,0.357
				c0.307,0,0.679-0.062,1.11-0.184c0.435-0.121,0.739-0.221,0.914-0.299l-0.361,1.494c-1.085,0.434-1.955,0.763-2.607,0.989
				c-0.653,0.226-1.406,0.341-2.26,0.341c-1.131,0-2.032-0.224-2.708-0.675C130.153,33.336,129.685,32.758,129.421,32.048z
				 M131.38,21.514c0-0.244-0.032-0.53-0.099-0.864c-0.064-0.332-0.181-0.613-0.346-0.845c-0.199-0.288-0.456-0.506-0.774-0.655
				s-0.714-0.224-1.187-0.224c-0.726,0-1.393,0.263-2.001,0.788c-0.611,0.524-1.152,1.225-1.623,2.098
				c-0.462,0.864-0.825,1.868-1.089,3.01c-0.263,1.146-0.394,2.314-0.394,3.51c0,0.542,0.04,1.045,0.123,1.51
				c0.082,0.465,0.217,0.857,0.404,1.178c0.196,0.344,0.463,0.609,0.8,0.796c0.334,0.188,0.755,0.282,1.26,0.282
				c0.517,0,1.015-0.152,1.492-0.455c0.479-0.304,0.921-0.678,1.328-1.12L131.38,21.514z"/>
			<path fill="#D8505C" d="M161.436,31.582l-0.362,1.496c-1.091,0.432-1.958,0.761-2.606,0.988c-0.648,0.227-1.401,0.34-2.26,0.34
				c-1.307,0-2.324-0.328-3.05-0.987c-0.725-0.659-1.088-1.477-1.088-2.45c0-0.266,0.015-0.606,0.042-1.023
				c0.027-0.414,0.116-0.932,0.272-1.551l1.193-4.42c0.121-0.477,0.213-0.904,0.272-1.286c0.062-0.383,0.092-0.694,0.092-0.938
				c0-0.532-0.126-0.948-0.38-1.248c-0.251-0.299-0.678-0.449-1.279-0.449c-0.374,0-0.905,0.147-1.593,0.441
				c-0.692,0.293-1.464,0.838-2.318,1.635l-2.73,11.992h-5.438l2.337-10.215c0.067-0.309,0.152-0.715,0.257-1.211
				c0.105-0.499,0.156-0.914,0.156-1.247c0-0.63-0.129-1.065-0.388-1.303c-0.256-0.239-0.726-0.358-1.407-0.358
				c-0.352,0-0.712,0.056-1.079,0.166c-0.368,0.111-0.684,0.215-0.947,0.316l0.363-1.496c0.889-0.366,1.739-0.677,2.552-0.938
				c0.812-0.26,1.579-0.391,2.305-0.391c1.296,0,2.265,0.258,2.906,0.772c0.642,0.517,1.068,1.238,1.276,2.168h0.116
				c1.074-0.985,2.186-1.752,3.332-2.301c1.147-0.547,2.367-0.822,3.66-0.822c1.219,0,2.17,0.338,2.854,1.013
				c0.687,0.676,1.029,1.495,1.029,2.458c0,0.255-0.019,0.612-0.06,1.072c-0.036,0.46-0.127,0.95-0.271,1.471l-1.253,4.667
				c-0.108,0.387-0.207,0.83-0.294,1.328c-0.088,0.498-0.133,0.875-0.133,1.13c0,0.642,0.141,1.081,0.421,1.313
				c0.278,0.232,0.77,0.347,1.474,0.347c0.329,0,0.702-0.056,1.119-0.173C160.949,31.773,161.249,31.672,161.436,31.582z"/>
			<path fill="#D8505C" d="M174.605,31.467h-0.115c-1.237,1.141-2.377,1.933-3.417,2.375c-1.04,0.443-2.191,0.666-3.45,0.666
				c-1.216,0-2.162-0.344-2.835-1.03c-0.675-0.687-1.01-1.513-1.01-2.476c0-0.344,0.02-0.691,0.058-1.047
				c0.037-0.354,0.141-0.854,0.305-1.494l1.24-4.537c0.077-0.309,0.167-0.731,0.273-1.27c0.101-0.535,0.153-0.933,0.153-1.188
				c0-0.63-0.122-1.065-0.369-1.303c-0.246-0.239-0.727-0.357-1.443-0.357c-0.35,0-0.713,0.056-1.08,0.165
				c-0.366,0.11-0.685,0.216-0.948,0.315l0.362-1.495c0.892-0.365,1.744-0.678,2.555-0.938c0.813-0.26,1.582-0.39,2.308-0.39
				c1.307,0,2.315,0.331,3.022,0.989c0.708,0.66,1.062,1.478,1.062,2.454c0,0.2-0.021,0.566-0.063,1.097
				c-0.044,0.532-0.133,1.025-0.265,1.48l-1.203,4.323c-0.112,0.388-0.2,0.805-0.264,1.247c-0.064,0.443-0.1,0.766-0.1,0.965
				c0,0.555,0.134,0.975,0.4,1.265c0.269,0.288,0.691,0.433,1.271,0.433c0.481,0,1.091-0.188,1.829-0.562
				c0.735-0.375,1.417-0.873,2.039-1.499l2.52-11.911l5.219-0.231l0.229,0.266l-2.896,13.504c-0.438,2.015-1.055,3.679-1.843,4.991
				c-0.789,1.312-1.703,2.356-2.745,3.131c-0.999,0.742-2.08,1.277-3.241,1.604s-2.339,0.49-3.534,0.49
				c-1.306,0-2.389-0.097-3.249-0.291c-0.861-0.194-1.53-0.463-2.016-0.805c-0.437-0.311-0.736-0.658-0.896-1.038
				c-0.157-0.382-0.237-0.757-0.237-1.122c0-0.641,0.225-1.213,0.674-1.712c0.449-0.497,1.063-0.747,1.842-0.747
				c0.591,0,1.118,0.162,1.584,0.482c0.467,0.32,0.874,0.709,1.227,1.162c0.338,0.432,0.644,0.91,0.91,1.438
				c0.269,0.524,0.474,0.955,0.618,1.287c0.196-0.033,0.439-0.104,0.73-0.207c0.29-0.106,0.534-0.225,0.73-0.356
				c0.285-0.19,0.537-0.378,0.755-0.566c0.22-0.189,0.474-0.477,0.758-0.863c0.547-0.743,1.035-1.661,1.463-2.757
				C173.947,34.307,174.31,32.995,174.605,31.467z"/>
			<path fill="#D8505C" d="M204.738,23.627c0,1.484-0.262,2.898-0.783,4.244c-0.52,1.344-1.232,2.511-2.133,3.496
				c-0.931,1.019-1.98,1.805-3.142,2.359c-1.162,0.553-2.446,0.831-3.851,0.831c-1.056,0-1.901-0.104-2.544-0.309
				c-0.643-0.205-1.198-0.495-1.67-0.872l-1,4.43c-0.032,0.133-0.065,0.29-0.098,0.475c-0.033,0.182-0.05,0.312-0.05,0.391
				c0,0.256,0.055,0.486,0.165,0.699c0.109,0.211,0.273,0.367,0.493,0.465c0.24,0.112,0.633,0.221,1.17,0.327
				c0.536,0.104,0.981,0.167,1.333,0.19l-0.264,1.146h-11.893l0.264-1.146c0.285-0.023,0.643-0.063,1.069-0.125
				c0.429-0.061,0.752-0.123,0.973-0.191c0.371-0.121,0.657-0.312,0.855-0.573c0.195-0.26,0.339-0.612,0.427-1.056l3.271-14.496
				c0.064-0.322,0.149-0.732,0.255-1.229c0.104-0.499,0.157-0.909,0.157-1.231c0-0.587-0.123-1.011-0.362-1.271
				c-0.242-0.261-0.722-0.391-1.437-0.391c-0.331,0-0.688,0.056-1.073,0.166c-0.384,0.111-0.705,0.215-0.959,0.316l0.362-1.496
				c0.893-0.366,1.748-0.677,2.562-0.938c0.813-0.26,1.584-0.391,2.312-0.391c0.603,0,1.136,0.06,1.598,0.175
				c0.465,0.117,0.873,0.303,1.224,0.556c0.297,0.211,0.541,0.465,0.736,0.765c0.191,0.298,0.354,0.604,0.486,0.913h0.13
				c1.009-0.885,1.987-1.539,2.939-1.96c0.954-0.42,1.866-0.631,2.742-0.631c1.904,0,3.337,0.567,4.294,1.703
				S204.738,21.656,204.738,23.627z M197.413,30.171c0.472-0.964,0.828-1.977,1.069-3.039c0.241-1.063,0.362-2.253,0.362-3.571
				c0-0.543-0.038-1.044-0.117-1.504c-0.075-0.459-0.212-0.855-0.41-1.187c-0.196-0.344-0.464-0.609-0.797-0.798
				s-0.751-0.282-1.255-0.282c-0.581,0-1.148,0.182-1.71,0.548c-0.556,0.366-0.967,0.709-1.229,1.03l-2.041,9.119
				c0,0.764,0.22,1.398,0.658,1.902c0.438,0.504,1.067,0.756,1.889,0.756c0.679,0,1.334-0.266,1.964-0.797
				C196.424,31.815,196.965,31.09,197.413,30.171z"/>
			<path fill="#D8505C" d="M218.515,31.469H218.4c-1.151,1.074-2.248,1.868-3.289,2.382c-1.045,0.515-2.253,0.772-3.622,0.772
				c-1.219,0-2.158-0.338-2.822-1.014c-0.663-0.677-0.995-1.497-0.995-2.463c0-0.342,0.019-0.691,0.057-1.048
				c0.038-0.354,0.141-0.853,0.307-1.495l1.238-4.673c0.074-0.312,0.166-0.734,0.27-1.272c0.104-0.537,0.157-0.934,0.157-1.189
				c0-0.61-0.124-1.039-0.369-1.289c-0.248-0.25-0.729-0.374-1.443-0.374c-0.353,0-0.711,0.056-1.079,0.165
				c-0.369,0.11-0.684,0.216-0.948,0.315l0.362-1.495c0.89-0.365,1.739-0.678,2.552-0.938c0.812-0.26,1.58-0.39,2.305-0.39
				c1.306,0,2.311,0.331,3.021,0.989c0.707,0.66,1.061,1.478,1.061,2.454c0,0.2-0.022,0.566-0.066,1.097
				c-0.042,0.532-0.132,1.025-0.263,1.48l-1.2,4.424c-0.108,0.388-0.197,0.806-0.264,1.256c-0.065,0.448-0.098,0.772-0.098,0.972
				c0,0.521,0.12,0.936,0.361,1.24c0.243,0.306,0.657,0.456,1.249,0.456c0.429,0,0.997-0.182,1.705-0.547
				c0.707-0.364,1.406-0.885,2.098-1.557l2.718-11.983l5.251-0.231l0.198,0.231l-2.335,10.205c-0.075,0.319-0.168,0.745-0.271,1.278
				c-0.104,0.531-0.155,0.924-0.155,1.177c0,0.642,0.138,1.079,0.419,1.312c0.278,0.232,0.77,0.347,1.471,0.347
				c0.33,0,0.702-0.056,1.118-0.173s0.717-0.219,0.905-0.309l-0.363,1.496c-1.086,0.432-1.954,0.761-2.602,0.988
				c-0.647,0.227-1.4,0.34-2.255,0.34c-1.209,0-2.176-0.272-2.899-0.82C219.157,33.038,218.701,32.334,218.515,31.469z"/>
		</g>
	</g>
	<g>
		<path fill="#777777" d="M60.049,2.743h-2.66v5.754h-0.757V2.062h3.417V2.743z"/>
		<path fill="#777777" d="M60.414,5.28c0-1.072,0.224-1.895,0.674-2.467c0.449-0.574,1.09-0.86,1.922-0.86
			c0.449,0,0.839,0.079,1.166,0.239c0.328,0.159,0.599,0.384,0.815,0.675c0.215,0.292,0.374,0.641,0.478,1.048
			c0.104,0.407,0.154,0.863,0.154,1.365c0,1.072-0.226,1.895-0.678,2.468s-1.097,0.859-1.936,0.859
			c-0.443,0-0.827-0.078-1.152-0.238c-0.324-0.159-0.596-0.385-0.811-0.675c-0.216-0.292-0.376-0.641-0.479-1.049
			C60.464,6.237,60.414,5.782,60.414,5.28z M61.215,5.28c0,0.355,0.034,0.693,0.104,1.012c0.07,0.318,0.179,0.599,0.324,0.841
			c0.146,0.243,0.332,0.435,0.561,0.579c0.227,0.144,0.496,0.216,0.806,0.216c0.564,0,1.008-0.216,1.329-0.649
			c0.322-0.432,0.483-1.098,0.483-1.999c0-0.349-0.035-0.685-0.104-1.007c-0.07-0.322-0.179-0.603-0.328-0.845
			s-0.336-0.435-0.565-0.579c-0.228-0.145-0.499-0.217-0.814-0.217c-0.56,0-0.998,0.217-1.316,0.648
			C61.374,3.712,61.215,4.378,61.215,5.28z"/>
		<path fill="#777777" d="M67.135,2.127c0.23-0.056,0.479-0.092,0.747-0.11c0.267-0.019,0.531-0.027,0.792-0.027
			c0.28,0,0.563,0.027,0.852,0.082c0.289,0.056,0.552,0.157,0.788,0.304c0.237,0.147,0.43,0.35,0.579,0.607
			c0.148,0.257,0.223,0.585,0.223,0.984c0,0.392-0.069,0.723-0.209,0.992c-0.141,0.27-0.325,0.489-0.557,0.657
			c-0.23,0.168-0.494,0.29-0.792,0.364c-0.298,0.073-0.604,0.109-0.92,0.109c-0.03,0-0.08,0-0.15,0s-0.143-0.001-0.219-0.005
			c-0.076-0.003-0.149-0.007-0.223-0.014c-0.072-0.005-0.125-0.012-0.155-0.018v2.446h-0.756V2.127z M68.693,2.651
			c-0.157,0-0.31,0.003-0.455,0.009c-0.146,0.005-0.261,0.021-0.347,0.045v2.666c0.03,0.013,0.079,0.02,0.146,0.023
			c0.067,0.003,0.138,0.006,0.21,0.009c0.073,0.003,0.144,0.005,0.21,0.005s0.115,0,0.146,0c0.206,0,0.411-0.021,0.615-0.06
			c0.203-0.04,0.387-0.112,0.551-0.216c0.163-0.104,0.297-0.251,0.396-0.441c0.101-0.189,0.15-0.432,0.15-0.726
			c0-0.251-0.047-0.461-0.141-0.63c-0.095-0.168-0.219-0.304-0.374-0.405c-0.154-0.101-0.329-0.173-0.524-0.216
			C69.081,2.672,68.888,2.651,68.693,2.651z"/>
		<path fill="#777777" d="M72.036,5.28c0-1.072,0.225-1.895,0.675-2.467c0.449-0.574,1.089-0.86,1.922-0.86
			c0.449,0,0.838,0.079,1.166,0.239c0.328,0.159,0.599,0.384,0.815,0.675c0.215,0.292,0.375,0.641,0.479,1.048
			c0.103,0.407,0.154,0.863,0.154,1.365c0,1.072-0.227,1.895-0.68,2.468c-0.451,0.573-1.097,0.859-1.935,0.859
			c-0.443,0-0.827-0.078-1.152-0.238c-0.325-0.159-0.595-0.385-0.811-0.675c-0.216-0.292-0.375-0.641-0.478-1.049
			C72.087,6.237,72.036,5.782,72.036,5.28z M72.837,5.28c0,0.355,0.036,0.693,0.104,1.012c0.07,0.318,0.179,0.599,0.323,0.841
			c0.146,0.243,0.333,0.435,0.561,0.579s0.497,0.216,0.807,0.216c0.564,0,1.008-0.216,1.33-0.649
			c0.321-0.432,0.482-1.098,0.482-1.999c0-0.349-0.034-0.685-0.104-1.007c-0.07-0.322-0.179-0.603-0.328-0.845
			c-0.148-0.242-0.337-0.435-0.565-0.579c-0.227-0.145-0.499-0.217-0.814-0.217c-0.559,0-0.998,0.217-1.316,0.648
			C72.998,3.712,72.837,4.378,72.837,5.28z"/>
		<path fill="#777777" d="M83.495,9.683h-0.519l-0.137-1.185h-4.473L78.23,9.683h-0.528V7.816h0.646
			c0.049-0.067,0.123-0.225,0.224-0.473c0.1-0.248,0.2-0.604,0.301-1.066c0.1-0.463,0.189-1.042,0.268-1.737
			c0.079-0.696,0.119-1.521,0.119-2.478h3.407v5.754h0.828V9.683z M81.91,7.816V2.743H79.97c-0.02,0.674-0.054,1.281-0.104,1.82
			c-0.052,0.54-0.114,1.016-0.188,1.429c-0.073,0.414-0.155,0.771-0.246,1.071c-0.091,0.3-0.185,0.552-0.282,0.753H81.91z"/>
		<path fill="#777777" d="M88.624,8.23c-0.183,0.141-0.413,0.239-0.692,0.294c-0.278,0.055-0.577,0.082-0.893,0.082
			c-0.383,0-0.741-0.065-1.075-0.197s-0.625-0.333-0.875-0.602c-0.249-0.27-0.446-0.615-0.591-1.034
			c-0.146-0.42-0.219-0.917-0.219-1.494c0-0.601,0.081-1.11,0.241-1.53c0.161-0.42,0.373-0.763,0.638-1.03
			c0.264-0.266,0.56-0.46,0.888-0.583c0.328-0.123,0.662-0.184,1.002-0.184c0.364,0,0.662,0.02,0.893,0.06
			c0.231,0.041,0.429,0.093,0.592,0.161l-0.181,0.68c-0.293-0.147-0.708-0.221-1.248-0.221c-0.25,0-0.496,0.047-0.739,0.138
			c-0.242,0.093-0.46,0.243-0.651,0.451s-0.344,0.482-0.459,0.818c-0.115,0.337-0.173,0.751-0.173,1.241
			c0,0.441,0.055,0.827,0.164,1.158c0.109,0.332,0.259,0.606,0.45,0.828c0.191,0.22,0.416,0.386,0.674,0.496
			c0.258,0.111,0.539,0.167,0.843,0.167c0.273,0,0.512-0.028,0.715-0.083c0.204-0.055,0.376-0.126,0.515-0.211L88.624,8.23z"/>
		<path fill="#777777" d="M91.156,5.519h-0.429v2.979h-0.756V2.062h0.756v2.997l0.411-0.128l2.14-2.868h0.875l-2.132,2.767
			l-0.383,0.304L92.102,5.5l2.333,2.997h-0.957L91.156,5.519z"/>
		<path fill="#777777" d="M95.401,5.28c0-1.072,0.225-1.895,0.673-2.467c0.449-0.574,1.09-0.86,1.923-0.86
			c0.449,0,0.838,0.079,1.166,0.239c0.327,0.159,0.6,0.384,0.815,0.675c0.215,0.292,0.375,0.641,0.479,1.048
			c0.102,0.407,0.154,0.863,0.154,1.365c0,1.072-0.227,1.895-0.679,2.468s-1.098,0.859-1.936,0.859
			c-0.443,0-0.828-0.078-1.152-0.238c-0.325-0.159-0.595-0.385-0.812-0.675c-0.215-0.292-0.374-0.641-0.478-1.049
			C95.452,6.237,95.401,5.782,95.401,5.28z M96.202,5.28c0,0.355,0.035,0.693,0.105,1.012c0.069,0.318,0.178,0.599,0.323,0.841
			c0.146,0.243,0.332,0.435,0.56,0.579s0.497,0.216,0.807,0.216c0.564,0,1.007-0.216,1.329-0.649
			c0.321-0.432,0.483-1.098,0.483-1.999c0-0.349-0.035-0.685-0.104-1.007c-0.07-0.322-0.18-0.603-0.328-0.845
			c-0.149-0.242-0.337-0.435-0.564-0.579c-0.228-0.145-0.5-0.217-0.815-0.217c-0.56,0-0.998,0.217-1.316,0.648
			C96.361,3.712,96.202,4.378,96.202,5.28z"/>
		<path fill="#777777" d="M102.123,2.062h3.471v0.681h-2.715v2.105h2.487v0.68h-2.487v2.289h2.76v0.681h-3.516V2.062z"/>
		<path fill="#777777" d="M111.077,5.519h-0.429v2.979h-0.756V2.062h0.756v2.997l0.411-0.128l2.14-2.868h0.875l-2.131,2.767
			l-0.384,0.304l0.464,0.368l2.333,2.997H113.4L111.077,5.519z"/>
		<path fill="#777777" d="M118.704,6.713h-2.338l-0.634,1.784h-0.757l2.414-6.536h0.347l2.423,6.536h-0.802L118.704,6.713z
			 M116.611,6.052h1.866l-0.706-1.958l-0.228-0.975h-0.008l-0.227,0.993L116.611,6.052z"/>
		<path fill="#777777" d="M123.411,7.78c-0.104,0.017-0.225,0.031-0.36,0.036c-0.138,0.006-0.267,0.009-0.388,0.009
			c-0.285,0-0.554-0.048-0.806-0.146c-0.253-0.098-0.471-0.251-0.656-0.46c-0.186-0.208-0.33-0.473-0.437-0.795
			s-0.16-0.703-0.16-1.145c0-0.417,0.054-0.789,0.16-1.117c0.106-0.328,0.258-0.605,0.455-0.831c0.197-0.227,0.433-0.4,0.705-0.519
			c0.273-0.121,0.578-0.181,0.912-0.181c0.078,0,0.178,0.003,0.295,0.009c0.119,0.006,0.212,0.016,0.279,0.027v-0.79h0.755v0.818
			c0.109-0.031,0.239-0.049,0.389-0.055c0.147-0.006,0.271-0.009,0.368-0.009c0.291,0,0.562,0.055,0.812,0.162
			c0.249,0.107,0.466,0.267,0.65,0.478s0.329,0.479,0.433,0.8c0.103,0.322,0.155,0.695,0.155,1.117c0,0.436-0.059,0.819-0.179,1.149
			c-0.118,0.331-0.276,0.606-0.477,0.827c-0.201,0.222-0.436,0.387-0.703,0.497c-0.267,0.111-0.552,0.165-0.855,0.165
			c-0.067,0-0.167-0.004-0.297-0.013c-0.13-0.01-0.229-0.026-0.296-0.051v0.919h-0.755V7.78z M122.799,7.183c0.03,0,0.072,0,0.123,0
			c0.052,0,0.108-0.001,0.169-0.005c0.06-0.002,0.12-0.008,0.178-0.018c0.058-0.009,0.107-0.019,0.15-0.031V3.312
			c-0.073-0.012-0.163-0.021-0.27-0.028c-0.106-0.006-0.202-0.009-0.286-0.009c-0.206,0-0.399,0.042-0.579,0.125
			c-0.179,0.082-0.336,0.208-0.469,0.376s-0.237,0.378-0.314,0.63c-0.076,0.251-0.113,0.542-0.113,0.873
			c0,0.294,0.033,0.56,0.1,0.795c0.066,0.236,0.162,0.437,0.287,0.602c0.125,0.166,0.273,0.292,0.446,0.377
			C122.395,7.14,122.587,7.183,122.799,7.183z M124.813,3.275c-0.085,0-0.195,0.003-0.328,0.009
			c-0.134,0.006-0.242,0.025-0.328,0.056v3.815c0.062,0.012,0.142,0.02,0.242,0.022c0.099,0.004,0.198,0.005,0.296,0.005
			c0.206,0,0.398-0.04,0.577-0.12c0.18-0.079,0.338-0.202,0.475-0.368c0.137-0.165,0.244-0.374,0.322-0.625
			c0.08-0.251,0.12-0.545,0.12-0.882c0-0.283-0.033-0.541-0.097-0.776c-0.063-0.236-0.154-0.439-0.273-0.612
			c-0.119-0.171-0.262-0.302-0.432-0.39C125.216,3.32,125.026,3.275,124.813,3.275z"/>
		<path fill="#777777" d="M128.337,2.062h3.472v0.681h-2.715v2.105h2.487v0.68h-2.487v2.289h2.76v0.681h-3.517V2.062z"/>
		<path fill="#777777" d="M140.188,8.23c-0.181,0.141-0.411,0.239-0.692,0.294c-0.278,0.055-0.575,0.082-0.892,0.082
			c-0.383,0-0.741-0.065-1.075-0.197s-0.625-0.333-0.873-0.602c-0.25-0.27-0.448-0.615-0.594-1.034
			c-0.146-0.42-0.218-0.917-0.218-1.494c0-0.601,0.079-1.11,0.242-1.53c0.159-0.42,0.372-0.763,0.636-1.03
			c0.266-0.266,0.561-0.46,0.889-0.583c0.328-0.123,0.662-0.184,1.002-0.184c0.364,0,0.662,0.02,0.893,0.06
			c0.23,0.041,0.428,0.093,0.593,0.161l-0.183,0.68c-0.292-0.147-0.707-0.221-1.247-0.221c-0.25,0-0.495,0.047-0.738,0.138
			c-0.243,0.093-0.46,0.243-0.651,0.451s-0.346,0.482-0.46,0.818c-0.115,0.337-0.173,0.751-0.173,1.241
			c0,0.441,0.055,0.827,0.163,1.158c0.11,0.332,0.26,0.606,0.451,0.828c0.191,0.22,0.416,0.386,0.674,0.496
			c0.258,0.111,0.539,0.167,0.844,0.167c0.272,0,0.512-0.028,0.715-0.083c0.202-0.055,0.373-0.126,0.515-0.211L140.188,8.23z"/>
		<path fill="#777777" d="M147.249,2.743h-2.66v5.754h-0.756V2.062h3.416V2.743z"/>
		<path fill="#777777" d="M148.085,2.127c0.23-0.056,0.479-0.092,0.748-0.11c0.267-0.019,0.53-0.027,0.792-0.027
			c0.279,0,0.562,0.027,0.853,0.082c0.287,0.056,0.55,0.157,0.787,0.304c0.237,0.147,0.43,0.35,0.578,0.607
			c0.148,0.257,0.224,0.585,0.224,0.984c0,0.392-0.071,0.723-0.21,0.992c-0.14,0.27-0.325,0.489-0.555,0.657
			c-0.232,0.168-0.496,0.29-0.794,0.364c-0.297,0.073-0.604,0.109-0.919,0.109c-0.03,0-0.081,0-0.151,0
			c-0.069,0-0.142-0.001-0.218-0.005c-0.076-0.003-0.15-0.007-0.224-0.014c-0.072-0.005-0.125-0.012-0.155-0.018v2.446h-0.756V2.127
			z M149.644,2.651c-0.158,0-0.311,0.003-0.456,0.009c-0.146,0.005-0.261,0.021-0.347,0.045v2.666
			c0.03,0.013,0.079,0.02,0.146,0.023c0.066,0.003,0.138,0.006,0.209,0.009c0.073,0.003,0.143,0.005,0.209,0.005
			c0.067,0,0.116,0,0.146,0c0.206,0,0.412-0.021,0.615-0.06c0.203-0.04,0.387-0.112,0.551-0.216
			c0.165-0.104,0.296-0.251,0.396-0.441c0.101-0.189,0.15-0.432,0.15-0.726c0-0.251-0.048-0.461-0.142-0.63
			c-0.094-0.168-0.218-0.304-0.373-0.405c-0.154-0.101-0.33-0.173-0.523-0.216C150.033,2.672,149.837,2.651,149.644,2.651z"/>
		<path fill="#777777" d="M155.027,5.454l0.237,0.818h0.045l0.183-0.846l1.221-3.364h0.774l-1.612,4.182
			c-0.164,0.435-0.31,0.798-0.434,1.09c-0.124,0.291-0.25,0.527-0.377,0.707c-0.128,0.181-0.264,0.31-0.411,0.386
			c-0.146,0.077-0.325,0.115-0.536,0.115c-0.201,0-0.36-0.018-0.479-0.05c-0.118-0.035-0.23-0.084-0.333-0.152l0.229-0.634
			c0.12,0.067,0.233,0.109,0.336,0.127c0.104,0.019,0.198,0.028,0.283,0.028c0.169,0,0.313-0.087,0.429-0.263
			c0.114-0.174,0.215-0.433,0.299-0.776l-2.359-4.762h0.875L155.027,5.454z"/>
		<path fill="#777777" d="M158.989,5.454V4.811h0.146c0.055,0,0.122,0,0.199,0c0.08,0,0.16-0.003,0.242-0.009
			c0.082-0.006,0.162-0.011,0.237-0.014c0.075-0.003,0.139-0.011,0.187-0.022c0.158-0.025,0.307-0.066,0.446-0.125
			c0.14-0.058,0.262-0.133,0.365-0.225c0.103-0.092,0.184-0.2,0.245-0.322c0.061-0.122,0.091-0.258,0.091-0.405
			c0-0.203-0.033-0.371-0.1-0.505c-0.067-0.135-0.159-0.244-0.278-0.327c-0.118-0.083-0.256-0.142-0.41-0.175
			c-0.154-0.034-0.319-0.051-0.495-0.051c-0.329,0-0.607,0.023-0.839,0.069c-0.23,0.047-0.416,0.104-0.555,0.171l-0.201-0.606
			c0.121-0.068,0.34-0.137,0.655-0.207c0.315-0.071,0.671-0.106,1.065-0.106c0.243,0,0.481,0.025,0.716,0.078
			c0.234,0.051,0.443,0.138,0.629,0.257c0.185,0.119,0.333,0.282,0.446,0.487c0.111,0.206,0.168,0.458,0.168,0.759
			c0,0.306-0.101,0.599-0.301,0.878c-0.2,0.278-0.501,0.479-0.901,0.602V5.05c0.431,0.062,0.771,0.223,1.021,0.487
			c0.248,0.263,0.373,0.615,0.373,1.056c0,0.35-0.068,0.652-0.204,0.906c-0.138,0.254-0.316,0.464-0.538,0.63
			c-0.222,0.165-0.477,0.286-0.766,0.363c-0.289,0.076-0.581,0.113-0.879,0.113c-0.401,0-0.729-0.022-0.988-0.068
			s-0.473-0.103-0.642-0.17l0.19-0.68c0.14,0.064,0.335,0.121,0.588,0.167c0.253,0.048,0.557,0.072,0.915,0.072
			c0.188,0,0.374-0.027,0.557-0.079c0.182-0.052,0.345-0.132,0.486-0.239c0.143-0.108,0.259-0.241,0.347-0.4
			c0.087-0.159,0.132-0.349,0.132-0.57c0-0.386-0.134-0.668-0.4-0.85c-0.268-0.181-0.616-0.287-1.048-0.317
			c-0.073-0.006-0.141-0.011-0.205-0.014c-0.063-0.003-0.129-0.004-0.195-0.004H158.989z"/>
		<path fill="#777777" d="M167.552,4.14l0.055-0.735h-0.037l-0.391,0.753L164.1,8.498h-0.446V2.062h0.756v4.412l-0.064,0.726h0.037
			l0.4-0.753l3.079-4.385h0.447v6.435h-0.757V4.14z"/>
		<path fill="#777777" d="M173.901,5.546h-3.061v2.951h-0.756V2.062h0.756v2.804h3.061V2.062h0.756v6.435h-0.756V5.546z"/>
		<path fill="#777777" d="M180.514,8.23c-0.183,0.141-0.413,0.239-0.692,0.294c-0.279,0.055-0.577,0.082-0.893,0.082
			c-0.383,0-0.741-0.065-1.075-0.197s-0.625-0.333-0.874-0.602c-0.249-0.27-0.446-0.615-0.592-1.034
			c-0.147-0.42-0.22-0.917-0.22-1.494c0-0.601,0.081-1.11,0.242-1.53s0.373-0.763,0.638-1.03c0.264-0.266,0.56-0.46,0.889-0.583
			c0.327-0.123,0.66-0.184,1-0.184c0.365,0,0.663,0.02,0.895,0.06c0.229,0.041,0.428,0.093,0.592,0.161l-0.183,0.68
			c-0.292-0.147-0.707-0.221-1.248-0.221c-0.249,0-0.495,0.047-0.738,0.138c-0.242,0.093-0.46,0.243-0.651,0.451
			c-0.19,0.208-0.345,0.482-0.459,0.818c-0.115,0.337-0.173,0.751-0.173,1.241c0,0.441,0.055,0.827,0.163,1.158
			c0.109,0.332,0.261,0.606,0.451,0.828c0.191,0.22,0.417,0.386,0.673,0.496c0.26,0.111,0.54,0.167,0.844,0.167
			c0.273,0,0.512-0.028,0.715-0.083c0.204-0.055,0.376-0.126,0.515-0.211L180.514,8.23z"/>
		<path fill="#777777" d="M183.046,5.519h-0.428v2.979h-0.756V2.062h0.756v2.997l0.41-0.128l2.141-2.868h0.874l-2.132,2.767
			l-0.382,0.304l0.465,0.368l2.332,2.997h-0.957L183.046,5.519z"/>
		<path fill="#777777" d="M187.292,5.28c0-1.072,0.225-1.895,0.673-2.467c0.45-0.574,1.091-0.86,1.924-0.86
			c0.448,0,0.837,0.079,1.165,0.239c0.328,0.159,0.601,0.384,0.814,0.675c0.217,0.292,0.376,0.641,0.48,1.048
			c0.102,0.407,0.154,0.863,0.154,1.365c0,1.072-0.228,1.895-0.679,2.468c-0.454,0.573-1.099,0.859-1.936,0.859
			c-0.443,0-0.829-0.078-1.153-0.238c-0.325-0.159-0.595-0.385-0.811-0.675c-0.216-0.292-0.375-0.641-0.479-1.049
			C187.343,6.237,187.292,5.782,187.292,5.28z M188.093,5.28c0,0.355,0.035,0.693,0.104,1.012c0.069,0.318,0.177,0.599,0.323,0.841
			c0.146,0.243,0.333,0.435,0.56,0.579c0.229,0.144,0.498,0.216,0.808,0.216c0.564,0,1.008-0.216,1.329-0.649
			c0.321-0.432,0.482-1.098,0.482-1.999c0-0.349-0.034-0.685-0.104-1.007c-0.07-0.322-0.18-0.603-0.328-0.845
			s-0.337-0.435-0.564-0.579c-0.228-0.145-0.5-0.217-0.814-0.217c-0.56,0-0.998,0.217-1.317,0.648
			C188.252,3.712,188.093,4.378,188.093,5.28z"/>
		<path fill="#777777" d="M197.912,4.14l0.055-0.735h-0.037l-0.392,0.753l-3.078,4.339h-0.446V2.062h0.756v4.412l-0.063,0.726h0.036
			l0.401-0.753l3.078-4.385h0.447v6.435h-0.757V4.14z M195.58,0.5c0.024,0.227,0.11,0.402,0.255,0.524
			c0.146,0.123,0.341,0.184,0.583,0.184c0.243,0,0.436-0.061,0.579-0.184c0.143-0.122,0.229-0.295,0.26-0.515l0.655,0.156
			c-0.066,0.331-0.221,0.593-0.459,0.786c-0.241,0.193-0.585,0.29-1.035,0.29c-0.431,0-0.784-0.084-1.062-0.253
			c-0.275-0.169-0.438-0.437-0.487-0.804L195.58,0.5z"/>
		<path fill="#777777" d="M203.104,2.062h3.471v0.681h-2.715v2.105h2.487v0.68h-2.487v2.289h2.761v0.681h-3.517V2.062z"/>
		<path fill="#777777" d="M213.279,9.683h-0.519l-0.137-1.185h-4.473l-0.138,1.185h-0.528V7.816h0.648
			c0.048-0.067,0.122-0.225,0.223-0.473c0.1-0.248,0.2-0.604,0.3-1.066c0.101-0.463,0.189-1.042,0.27-1.737
			c0.078-0.696,0.118-1.521,0.118-2.478h3.406v5.754h0.829V9.683z M211.694,7.816V2.743h-1.939c-0.019,0.674-0.055,1.281-0.106,1.82
			c-0.051,0.54-0.113,1.016-0.186,1.429c-0.073,0.414-0.155,0.771-0.246,1.071c-0.091,0.3-0.186,0.552-0.282,0.753H211.694z"/>
		<path fill="#777777" d="M214.062,5.28c0-1.072,0.226-1.895,0.675-2.467c0.449-0.574,1.09-0.86,1.922-0.86
			c0.449,0,0.838,0.079,1.166,0.239c0.328,0.159,0.6,0.384,0.815,0.675c0.216,0.292,0.374,0.641,0.478,1.048
			c0.104,0.407,0.156,0.863,0.156,1.365c0,1.072-0.229,1.895-0.679,2.468c-0.455,0.573-1.099,0.859-1.937,0.859
			c-0.444,0-0.828-0.078-1.152-0.238c-0.325-0.159-0.595-0.385-0.811-0.675c-0.216-0.292-0.376-0.641-0.479-1.049
			C214.114,6.237,214.062,5.782,214.062,5.28z M214.865,5.28c0,0.355,0.034,0.693,0.104,1.012c0.07,0.318,0.178,0.599,0.324,0.841
			c0.145,0.243,0.332,0.435,0.56,0.579c0.229,0.144,0.496,0.216,0.807,0.216c0.565,0,1.008-0.216,1.329-0.649
			c0.321-0.432,0.482-1.098,0.482-1.999c0-0.349-0.034-0.685-0.103-1.007c-0.072-0.322-0.18-0.603-0.329-0.845
			c-0.148-0.242-0.338-0.435-0.564-0.579c-0.228-0.145-0.501-0.217-0.815-0.217c-0.559,0-0.998,0.217-1.317,0.648
			C215.023,3.712,214.865,4.378,214.865,5.28z"/>
		<path fill="#777777" d="M224.682,4.14l0.055-0.735H224.7l-0.392,0.753l-3.077,4.339h-0.447V2.062h0.757v4.412l-0.064,0.726h0.037
			l0.399-0.753l3.079-4.385h0.447v6.435h-0.757V4.14z M222.352,0.5c0.023,0.227,0.108,0.402,0.253,0.524
			c0.147,0.123,0.342,0.184,0.583,0.184c0.244,0,0.437-0.061,0.579-0.184c0.143-0.122,0.229-0.295,0.259-0.515l0.656,0.156
			c-0.065,0.331-0.221,0.593-0.459,0.786c-0.24,0.193-0.585,0.29-1.035,0.29c-0.43,0-0.784-0.084-1.062-0.253
			c-0.274-0.169-0.438-0.437-0.486-0.804L222.352,0.5z"/>
	</g>
	<path fill="#D8505C" d="M0.697,26.811c0.119,1.083,0.312,2.611,0.59,4.572c0.167,1.199,0.253,2.038,0.253,2.499
		c0.128,0.337,0.222,0.635,0.365,0.85c0.205,0.356,0.465,0.679,0.774,0.968c0.162,0.131,0.403,0.217,0.714,0.264
		c0.473,0.075,0.818,0.147,1.118,0.254l0.907,0.285l1.186,0.119c1.012,0.109,3.662,0.239,7.926,0.433
		c4.464,0.212,7.152,0.313,8.101,0.313c1.808,0,3.194-0.03,4.232-0.102c0.913-0.06,4.274-0.06,10.038-0.045
		c0.155-0.061,0.382-0.135,0.663-0.178c0.237-0.059,0.49-0.118,0.698-0.191c0.294-0.202,0.552-0.407,0.721-0.586
		c0.106-0.12,0.285-0.36,0.479-0.655c0.067-0.11,0.241-0.53,0.506-1.267l0.221-0.521v-0.061c0.039-0.512,0.045-0.859,0.059-1.003
		l0.09-0.749l-0.046-0.059c-0.058-0.418-0.096-0.658-0.096-0.744v-0.025c-0.076-0.326-0.163-0.563-0.189-0.729
		c-0.186-0.574-0.274-1.315-0.303-2.183c0.007-0.966,0.007-1.705,0-2.204v-4.377c0.007-0.681,0-1.532,0-2.556
		c0-0.664-0.023-1.257-0.06-1.755c-0.049-1.732-0.146-3.187-0.234-4.379c-0.141-1.577-0.325-3.014-0.554-4.334
		c-0.3-1.652-0.693-3.082-1.184-4.307c-0.223-0.462-0.393-0.805-0.54-1.067c-0.244-0.476-0.579-0.865-0.998-1.167
		c-1.156-0.898-3.13-1.313-5.892-1.246c-7.268,0.292-12.975,0.739-17.191,1.37c-3.97,0.582-6.965,1.36-8.926,2.354
		C2.388,5.447,1.23,6.571,0.668,7.981c-0.38,0.914-0.582,2.412-0.64,4.475c-0.045,2.233-0.045,4.462,0.058,6.677
		C0.192,21.696,0.379,24.267,0.697,26.811 M32.357,33.172c-0.067,0.105-0.22,0.193-0.386,0.28c-0.11,0.085-0.233,0.132-0.381,0.162
		l-0.081,0.03l-7.896,0.237c-0.114,0.015-0.577,0.075-1.343,0.205c-0.784,0.152-1.22,0.22-1.326,0.22
		c-3.794,0-6.919-0.088-9.382-0.308c-0.21,0.029-0.399,0.048-0.607,0.048c-0.596,0-0.987-0.15-1.158-0.463
		c-0.047-0.088-0.072-0.213-0.072-0.334v-0.158c0-0.246,0.291-0.675,0.904-1.325l0.125-0.146c0.201-0.377,0.595-0.913,1.224-1.6
		c0.879-1.025,1.844-2.001,2.917-2.949c0.567-0.508,1.098-0.933,1.543-1.262l3.626-3.887l0.325-0.049
		c0.208-0.045,0.336-0.077,0.367-0.077c0.083,0,0.276,0.077,0.572,0.221c0.54,0.498,1.217,1.245,2.019,2.239l0.239,0.209
		c0.707,0.597,1.803,1.706,3.347,3.257c0.233,0.273,0.649,0.633,1.295,1.117l1.803,1.299c1.526,1.123,2.269,1.98,2.31,2.529
		c0.018,0.104,0.059,0.224,0.059,0.372L32.357,33.172z M31.29,8.352c0.411-0.313,0.798-0.596,1.197-0.828l0.166-0.009
		c0.984,0,1.657,0.241,1.952,0.695c0.141,0.167,0.281,0.534,0.462,1.072c0,0.285,0.006,0.51,0.032,0.658
		c0.035,0.598,0.302,1.87,0.741,3.831c0.393,1.817,0.575,3.131,0.575,3.963l-0.161,3.954c0,0.982,0.202,2.906,0.634,5.769
		l0.079,0.709c-0.052,0.209-0.28,0.505-0.605,0.857c-0.23,0.031-0.493,0.061-0.736,0.061l-0.752-0.066
		c-1.054-0.471-1.646-0.777-1.753-0.852c-0.873-0.529-1.749-1.094-2.638-1.746c-0.828-0.609-1.535-1.156-2.116-1.674
		c-0.684-0.627-1.935-1.752-3.757-3.398l-0.434-0.371c-0.013-0.042-0.077-0.109-0.169-0.197c-0.214-0.142-0.338-0.28-0.444-0.403
		c-0.146-0.15-0.272-0.327-0.37-0.544c-0.009-0.093-0.034-0.197-0.034-0.303c0-0.11,0.025-0.248,0.034-0.396
		c0.09-0.518,0.325-1.121,0.711-1.843l0.012-0.008c1.203-1.607,2.14-2.761,2.778-3.479l1.541-1.769
		c0.665-0.777,1.147-1.34,1.472-1.724L31.29,8.352z M8.297,6.776c0-1.058,0.575-1.641,1.731-1.728l0.216-0.021
		c0.323-0.114,0.635-0.194,0.958-0.255h0.091c0.684-0.164,1.355-0.326,2.064-0.465c0.557-0.074,1.137-0.145,1.754-0.203
		c1.902-0.108,4.273-0.24,7.103-0.348c0.026-0.012,0.089-0.012,0.146-0.012l0.348,0.032c0.979,0.066,2.009,0.097,3.073,0.097
		l1.061-0.008c0.231,0.031,0.556,0.076,0.992,0.105c0.715,0.097,1.208,0.338,1.433,0.746c0,0.495-0.112,0.976-0.319,1.442
		c-0.673,0.981-1.691,2.36-3.075,4.152c-2.31,3.029-4.065,5.217-5.276,6.578c-0.153,0.075-0.257,0.123-0.314,0.123
		c-0.267,0-0.605-0.123-1.066-0.389c-1.143-1.019-2.065-1.815-2.729-2.373c-1.623-1.367-3.22-2.437-4.719-3.198
		c-0.76-0.356-1.406-0.884-1.926-1.56l-0.2-0.298c-0.184-0.165-0.359-0.33-0.485-0.482c-0.575-0.661-0.859-1.185-0.859-1.57V6.776z
		 M3.437,11.905c0.035-0.929,0.271-1.562,0.725-1.874c0.421-0.252,0.96-0.252,1.635-0.028c0.561,0.208,1.1,0.526,1.606,0.955
		c0.138,0.093,0.254,0.194,0.369,0.33c1.479,0.841,3.521,2.249,6.143,4.24c1.259,0.938,2.359,1.815,3.297,2.571
		c0.057,0.094,0.14,0.184,0.214,0.287c0.264,0.296,0.426,0.556,0.473,0.748l0.015,0.092c0,0.218-0.107,0.452-0.277,0.735
		l-0.094,0.121l-0.583,0.606c-1.119,1.111-2.227,2.19-3.339,3.207c-0.582,0.574-1.148,1.11-1.625,1.614
		c-0.618,0.666-1.093,1.219-1.427,1.682c-0.233,0.381-0.844,0.914-1.825,1.652c-0.369,0.324-0.739,0.609-1.132,0.832
		c-0.277,0.18-0.598,0.298-0.875,0.407c-0.535,0.349-1.043,0.52-1.531,0.52c-0.84,0-1.38-0.534-1.61-1.611
		c-0.064-0.351-0.109-0.72-0.122-1.122v-0.031l-0.09-0.379c-0.384-1.496-0.484-2.777-0.277-3.83
		c0.087-0.572,0.087-1.724-0.022-3.494l-0.068-1.001c-0.116-1.644-0.143-2.601-0.143-2.905C2.872,14.834,3.058,13.384,3.437,11.905"
		/>
</g>
</svg>
