<?xml version="1.0" encoding="utf-8"?>
<!-- Generator: Adobe Illustrator 16.0.0, SVG Export Plug-In . SVG Version: 6.00 Build 0)  -->
<!DOCTYPE svg PUBLIC "-//W3C//DTD SVG 1.1//EN" "http://www.w3.org/Graphics/SVG/1.1/DTD/svg11.dtd">
<svg version="1.1" id="Layer_1" xmlns="http://www.w3.org/2000/svg" xmlns:xlink="http://www.w3.org/1999/xlink" x="0px" y="0px"
	 width="120px" height="20px" viewBox="-50 0 120 20" enable-background="new -50 0 120 20" xml:space="preserve">
<g>
	<path fill="#615453" d="M66.484,0H-46.485C-48.426,0-50,1.574-50,3.516v12.968C-50,18.426-48.426,20-46.485,20H66.484
		C68.426,20,70,18.426,70,16.484V3.516C70,1.574,68.426,0,66.484,0z"/>
</g>
<g>
	<path fill="#FFFFFF" d="M-39.56,13.97c-0.312,0-0.606-0.038-0.882-0.112c-0.276-0.075-0.52-0.189-0.732-0.344
		s-0.386-0.343-0.522-0.565c-0.136-0.224-0.228-0.486-0.276-0.791l0.948-0.336c0.072,0.416,0.244,0.729,0.516,0.937
		s0.596,0.312,0.972,0.312c0.408,0,0.746-0.122,1.014-0.367c0.268-0.245,0.402-0.652,0.402-1.223c0-0.441-0.102-0.805-0.306-1.091
		c-0.204-0.284-0.53-0.427-0.978-0.427h-0.708V9.086h0.708c0.408,0,0.716-0.133,0.924-0.396c0.208-0.264,0.312-0.6,0.312-1.008
		c0-0.448-0.122-0.771-0.366-0.966c-0.244-0.196-0.558-0.294-0.942-0.294c-0.384,0-0.698,0.111-0.942,0.336
		c-0.244,0.224-0.41,0.512-0.498,0.863l-0.96-0.323c0.12-0.568,0.394-1.013,0.822-1.332c0.428-0.32,0.954-0.48,1.578-0.48
		c0.76,0,1.336,0.176,1.728,0.528c0.392,0.352,0.588,0.892,0.588,1.62c0,0.151-0.016,0.317-0.048,0.498
		c-0.032,0.18-0.086,0.357-0.162,0.533c-0.076,0.177-0.176,0.336-0.3,0.48c-0.124,0.144-0.274,0.256-0.45,0.336v0.048
		c0.224,0.096,0.404,0.221,0.54,0.372c0.136,0.152,0.24,0.318,0.312,0.498c0.072,0.18,0.12,0.364,0.144,0.552
		c0.024,0.188,0.036,0.366,0.036,0.534c0,0.752-0.21,1.354-0.63,1.806C-38.138,13.743-38.752,13.97-39.56,13.97z"/>
	<path fill="#FFFFFF" d="M-31.556,13.897l-0.528-1.896h-2.664l-0.516,1.896h-1.02l2.424-8.352h0.9l2.436,8.352H-31.556z
		 M-32.924,8.941l-0.468-1.848h-0.048l-0.468,1.836l-0.612,2.172h2.208L-32.924,8.941z"/>
	<path fill="#FFFFFF" d="M-28.543,9.025h1.356c0.432,0,0.804,0.061,1.116,0.18c0.312,0.12,0.566,0.284,0.762,0.492
		c0.196,0.208,0.342,0.458,0.438,0.75s0.144,0.61,0.144,0.954c0,0.824-0.21,1.446-0.63,1.866c-0.42,0.42-1.019,0.63-1.794,0.63h-2.4
		V5.546h4.152V6.47h-3.144V9.025z M-28.543,12.962h1.344c0.52,0,0.892-0.137,1.116-0.408c0.224-0.272,0.336-0.645,0.336-1.116
		c0-0.192-0.024-0.378-0.072-0.558c-0.048-0.181-0.128-0.338-0.24-0.475c-0.112-0.136-0.262-0.244-0.45-0.324
		c-0.188-0.079-0.422-0.119-0.702-0.119h-1.332V12.962z"/>
	<path fill="#FFFFFF" d="M-18.656,8.054c0,0.319-0.044,0.63-0.132,0.93s-0.226,0.564-0.414,0.792
		c-0.188,0.229-0.434,0.412-0.738,0.552c-0.304,0.141-0.672,0.21-1.104,0.21h-1.428v3.36h-0.996V5.546h2.376
		c0.776,0,1.376,0.206,1.8,0.617C-18.868,6.575-18.656,7.206-18.656,8.054z M-19.664,8.041c0-0.479-0.112-0.859-0.336-1.14
		c-0.224-0.28-0.596-0.42-1.116-0.42h-1.356v3.12h1.368c0.28,0,0.512-0.044,0.696-0.132s0.332-0.204,0.444-0.349
		c0.112-0.144,0.19-0.31,0.234-0.498C-19.686,8.436-19.664,8.241-19.664,8.041z"/>
	<path fill="#FFFFFF" d="M-12.896,11.462c0,0.384-0.06,0.729-0.18,1.037c-0.12,0.309-0.288,0.572-0.504,0.792
		c-0.216,0.221-0.474,0.389-0.774,0.505c-0.3,0.115-0.63,0.174-0.99,0.174c-0.44,0-0.816-0.072-1.128-0.216
		c-0.312-0.145-0.566-0.338-0.762-0.582c-0.196-0.244-0.338-0.526-0.426-0.847c-0.088-0.319-0.132-0.655-0.132-1.008V7.97
		c0-0.28,0.044-0.568,0.132-0.864c0.088-0.296,0.228-0.564,0.42-0.804c0.192-0.24,0.444-0.437,0.756-0.588
		c0.312-0.152,0.692-0.229,1.14-0.229c0.424,0,0.79,0.072,1.098,0.216c0.308,0.145,0.562,0.334,0.762,0.57
		c0.2,0.236,0.348,0.502,0.444,0.798c0.096,0.296,0.144,0.596,0.144,0.9V11.462z M-13.916,7.981c0-0.128-0.022-0.28-0.066-0.456
		c-0.044-0.176-0.12-0.344-0.229-0.504s-0.255-0.298-0.44-0.414c-0.185-0.116-0.422-0.174-0.711-0.174s-0.526,0.054-0.711,0.162
		c-0.185,0.107-0.333,0.24-0.446,0.396c-0.113,0.156-0.191,0.326-0.235,0.51c-0.044,0.185-0.066,0.353-0.066,0.505l0.012,3.3
		c0,0.24,0.026,0.466,0.078,0.678s0.139,0.396,0.259,0.552c0.12,0.156,0.275,0.28,0.464,0.372c0.188,0.093,0.416,0.139,0.681,0.139
		c0.193,0,0.375-0.034,0.548-0.103c0.173-0.067,0.321-0.166,0.446-0.294s0.225-0.284,0.301-0.468
		c0.076-0.185,0.114-0.392,0.114-0.624V7.981z"/>
	<path fill="#FFFFFF" d="M-7.64,13.897v-3.804h-2.82v3.804h-0.996V5.546h0.996v3.672h2.82V5.546h1.008v8.352H-7.64z"/>
	<path fill="#FFFFFF" d="M-4.964,13.897V5.546h0.996v6.336l0.048,0.012l1.248-2.496l1.98-3.852H0.28v8.352h-1.008v-6.36h-0.036
		l-1.164,2.316l-2.076,4.044H-4.964z"/>
	<path fill="#FFFFFF" d="M6.723,8.054c0,0.319-0.043,0.63-0.131,0.93S6.366,9.548,6.178,9.775c-0.188,0.229-0.434,0.412-0.738,0.552
		c-0.305,0.141-0.672,0.21-1.104,0.21H2.908v3.36H1.912V5.546h2.376c0.775,0,1.377,0.206,1.801,0.617
		C6.512,6.575,6.723,7.206,6.723,8.054z M5.715,8.041c0-0.479-0.111-0.859-0.336-1.14c-0.223-0.28-0.596-0.42-1.115-0.42H2.908v3.12
		h1.368c0.279,0,0.512-0.044,0.695-0.132c0.186-0.088,0.332-0.204,0.445-0.349c0.111-0.144,0.189-0.31,0.232-0.498
		C5.694,8.436,5.715,8.241,5.715,8.041z"/>
	<path fill="#FFFFFF" d="M12.484,11.462c0,0.384-0.061,0.729-0.18,1.037c-0.121,0.309-0.289,0.572-0.504,0.792
		c-0.217,0.221-0.475,0.389-0.775,0.505c-0.299,0.115-0.629,0.174-0.99,0.174c-0.439,0-0.815-0.072-1.128-0.216
		c-0.312-0.145-0.565-0.338-0.762-0.582s-0.338-0.526-0.426-0.847c-0.088-0.319-0.132-0.655-0.132-1.008V7.97
		c0-0.28,0.044-0.568,0.132-0.864s0.228-0.564,0.42-0.804c0.192-0.24,0.444-0.437,0.756-0.588c0.312-0.152,0.692-0.229,1.14-0.229
		c0.425,0,0.791,0.072,1.099,0.216c0.307,0.145,0.561,0.334,0.762,0.57c0.199,0.236,0.348,0.502,0.443,0.798s0.145,0.596,0.145,0.9
		V11.462z M11.465,7.981c0-0.128-0.023-0.28-0.066-0.456c-0.045-0.176-0.121-0.344-0.23-0.504c-0.107-0.16-0.254-0.298-0.439-0.414
		c-0.184-0.116-0.421-0.174-0.71-0.174S9.492,6.487,9.307,6.596c-0.185,0.107-0.333,0.24-0.446,0.396
		c-0.112,0.156-0.19,0.326-0.234,0.51C8.582,7.686,8.56,7.854,8.56,8.006l0.012,3.3c0,0.24,0.026,0.466,0.079,0.678
		c0.052,0.212,0.138,0.396,0.259,0.552c0.12,0.156,0.275,0.28,0.464,0.372C9.562,13,9.79,13.046,10.054,13.046
		c0.192,0,0.375-0.034,0.547-0.103c0.174-0.067,0.322-0.166,0.447-0.294s0.225-0.284,0.301-0.468
		c0.076-0.185,0.115-0.392,0.115-0.624V7.981z"/>
	<path fill="#FFFFFF" d="M18.725,11.51c0,0.784-0.203,1.378-0.607,1.781c-0.402,0.404-0.949,0.606-1.637,0.606h-2.557V5.546h2.395
		c0.766,0,1.334,0.197,1.705,0.594c0.371,0.396,0.557,0.93,0.557,1.602c0,0.384-0.07,0.725-0.213,1.021s-0.424,0.548-0.844,0.756
		v0.036c0.217,0.056,0.4,0.147,0.553,0.275c0.152,0.129,0.275,0.278,0.371,0.45c0.098,0.172,0.166,0.364,0.211,0.576
		C18.701,11.067,18.725,11.285,18.725,11.51z M14.92,6.445v2.688h1.309c0.48,0,0.83-0.125,1.049-0.374
		c0.221-0.249,0.33-0.578,0.33-0.988c0-0.401-0.109-0.724-0.33-0.964c-0.219-0.241-0.568-0.362-1.049-0.362H14.92z M14.92,9.997
		v2.929h1.451c0.266,0,0.484-0.04,0.66-0.12s0.316-0.188,0.42-0.324c0.105-0.136,0.18-0.294,0.223-0.474
		c0.045-0.181,0.066-0.374,0.066-0.582c0-0.416-0.105-0.758-0.318-1.026c-0.211-0.268-0.57-0.402-1.074-0.402H14.92z"/>
	<path fill="#FFFFFF" d="M24.172,13.897l-0.529-1.896h-2.664l-0.516,1.896h-1.02l2.424-8.352h0.9l2.436,8.352H24.172z M22.803,8.941
		l-0.467-1.848h-0.049L21.82,8.93l-0.613,2.172h2.209L22.803,8.941z"/>
	<path fill="#FFFFFF" d="M28.096,6.445v7.452H27.1V6.445h-1.908V5.546h4.812v0.899H28.096z"/>
	<path fill="#FFFFFF" d="M30.891,13.897V5.546h1.008v3.479h1.357c0.432,0,0.803,0.061,1.115,0.18
		c0.312,0.12,0.566,0.284,0.762,0.492c0.197,0.208,0.342,0.458,0.438,0.75c0.098,0.292,0.145,0.61,0.145,0.954
		c0,0.824-0.209,1.446-0.629,1.866s-1.02,0.63-1.795,0.63H30.891z M31.898,12.962h1.346c0.52,0,0.891-0.137,1.115-0.408
		c0.225-0.272,0.336-0.645,0.336-1.116c0-0.192-0.023-0.378-0.072-0.558c-0.047-0.181-0.127-0.338-0.24-0.475
		c-0.111-0.136-0.262-0.244-0.449-0.324c-0.188-0.079-0.422-0.119-0.703-0.119h-1.332V12.962z"/>
	<path fill="#FFFFFF" d="M44.043,12.35c-0.143,0.528-0.422,0.93-0.834,1.206c-0.412,0.275-0.904,0.414-1.48,0.414
		c-0.377,0-0.717-0.062-1.021-0.187c-0.303-0.124-0.559-0.296-0.768-0.516c-0.207-0.22-0.367-0.482-0.48-0.786
		c-0.111-0.304-0.168-0.64-0.168-1.008V7.97c0-0.353,0.055-0.68,0.162-0.984c0.109-0.304,0.268-0.565,0.475-0.786
		c0.209-0.22,0.465-0.394,0.768-0.521C41,5.55,41.344,5.485,41.729,5.485c0.566,0,1.057,0.141,1.469,0.42
		c0.412,0.28,0.695,0.672,0.846,1.176l-0.947,0.372c-0.08-0.304-0.234-0.548-0.461-0.731c-0.229-0.185-0.531-0.276-0.906-0.276
		c-0.232,0-0.439,0.042-0.619,0.126s-0.33,0.194-0.449,0.33c-0.121,0.136-0.213,0.296-0.275,0.48
		c-0.064,0.184-0.098,0.372-0.098,0.563v3.552c0,0.2,0.033,0.393,0.098,0.576c0.062,0.185,0.154,0.347,0.275,0.486
		c0.119,0.14,0.27,0.252,0.449,0.336s0.387,0.126,0.619,0.126c0.359,0,0.658-0.092,0.893-0.276c0.236-0.184,0.395-0.432,0.475-0.744
		L44.043,12.35z"/>
	<path fill="#FFFFFF" d="M47.355,6.445v7.452h-0.996V6.445h-1.908V5.546h4.812v0.899H47.355z"/>
	<path fill="#FFFFFF" d="M54.818,11.462c0,0.384-0.059,0.729-0.18,1.037c-0.119,0.309-0.287,0.572-0.504,0.792
		c-0.215,0.221-0.475,0.389-0.773,0.505c-0.301,0.115-0.631,0.174-0.99,0.174c-0.439,0-0.816-0.072-1.129-0.216
		c-0.311-0.145-0.564-0.338-0.762-0.582c-0.195-0.244-0.338-0.526-0.426-0.847c-0.088-0.319-0.131-0.655-0.131-1.008V7.97
		c0-0.28,0.043-0.568,0.131-0.864s0.229-0.564,0.42-0.804c0.193-0.24,0.445-0.437,0.756-0.588c0.312-0.152,0.693-0.229,1.141-0.229
		c0.424,0,0.789,0.072,1.098,0.216c0.309,0.145,0.562,0.334,0.762,0.57c0.201,0.236,0.348,0.502,0.445,0.798
		c0.096,0.296,0.143,0.596,0.143,0.9V11.462z M53.799,7.981c0-0.128-0.021-0.28-0.066-0.456s-0.121-0.344-0.229-0.504
		c-0.109-0.16-0.256-0.298-0.439-0.414c-0.186-0.116-0.422-0.174-0.711-0.174s-0.527,0.054-0.711,0.162
		c-0.186,0.107-0.334,0.24-0.447,0.396c-0.111,0.156-0.189,0.326-0.234,0.51c-0.045,0.185-0.066,0.353-0.066,0.505l0.012,3.3
		c0,0.24,0.027,0.466,0.08,0.678c0.051,0.212,0.137,0.396,0.258,0.552c0.121,0.156,0.275,0.28,0.465,0.372
		c0.188,0.093,0.416,0.139,0.68,0.139c0.193,0,0.375-0.034,0.549-0.103c0.172-0.067,0.322-0.166,0.445-0.294
		c0.125-0.128,0.225-0.284,0.301-0.468c0.078-0.185,0.115-0.392,0.115-0.624V7.981z"/>
	<path fill="#FFFFFF" d="M57.807,10.075c0,0.721-0.041,1.316-0.125,1.785s-0.209,0.851-0.373,1.147s-0.369,0.525-0.617,0.686
		s-0.537,0.292-0.865,0.396c-0.062-0.129-0.121-0.256-0.174-0.385c-0.051-0.128-0.109-0.26-0.174-0.396
		c0.209-0.104,0.398-0.214,0.57-0.33s0.318-0.274,0.438-0.474c0.121-0.2,0.215-0.464,0.283-0.792
		c0.066-0.328,0.102-0.761,0.102-1.297V5.546h4.32v8.352h-0.996V6.445h-2.389V10.075z"/>
</g>
</svg>
