<?xml version="1.0" encoding="utf-8"?>
<!-- Generator: Adobe Illustrator 16.0.0, SVG Export Plug-In . SVG Version: 6.00 Build 0)  -->
<!DOCTYPE svg PUBLIC "-//W3C//DTD SVG 1.1//EN" "http://www.w3.org/Graphics/SVG/1.1/DTD/svg11.dtd">
<svg version="1.1" id="Layer_1" xmlns="http://www.w3.org/2000/svg" xmlns:xlink="http://www.w3.org/1999/xlink" x="0px" y="0px"
	 width="120px" height="20px" viewBox="-50 0 120 20" enable-background="new -50 0 120 20" xml:space="preserve">
<g>
	<path fill="#615453" d="M66.484,0H-46.485C-48.426,0-50,1.574-50,3.516v12.968C-50,18.426-48.426,20-46.485,20H66.484
		C68.426,20,70,18.426,70,16.484V3.516C70,1.574,68.426,0,66.484,0z"/>
</g>
<g>
	<path fill="#FFFFFF" d="M-20.25,11.845c0,0.812-0.209,1.427-0.627,1.845c-0.418,0.418-0.983,0.627-1.696,0.627h-2.646V5.671h2.479
		c0.793,0,1.382,0.204,1.766,0.614c0.384,0.409,0.576,0.963,0.576,1.658c0,0.397-0.074,0.751-0.221,1.056
		c-0.147,0.307-0.438,0.568-0.873,0.783v0.037c0.224,0.059,0.414,0.153,0.572,0.285c0.157,0.134,0.286,0.289,0.385,0.466
		c0.099,0.179,0.171,0.378,0.217,0.598C-20.272,11.387-20.25,11.612-20.25,11.845z M-24.188,6.602v2.783h1.354
		c0.497,0,0.86-0.129,1.087-0.388c0.228-0.257,0.342-0.598,0.342-1.022c0-0.415-0.114-0.749-0.342-0.997
		c-0.227-0.25-0.59-0.376-1.087-0.376H-24.188z M-24.188,10.278v3.032h1.503c0.273,0,0.501-0.041,0.683-0.124
		c0.183-0.083,0.327-0.195,0.435-0.336c0.107-0.14,0.184-0.305,0.229-0.489c0.045-0.188,0.069-0.388,0.069-0.604
		c0-0.431-0.11-0.784-0.33-1.062c-0.219-0.276-0.59-0.417-1.112-0.417H-24.188z"/>
	<path fill="#FFFFFF" d="M-13.505,11.796c0,0.396-0.062,0.754-0.186,1.073c-0.125,0.319-0.298,0.593-0.522,0.82
		c-0.224,0.229-0.491,0.401-0.802,0.521c-0.311,0.119-0.652,0.181-1.024,0.181c-0.456,0-0.845-0.075-1.168-0.224
		c-0.323-0.149-0.586-0.35-0.789-0.602c-0.203-0.254-0.35-0.545-0.44-0.877c-0.092-0.331-0.137-0.68-0.137-1.044V8.181
		c0-0.291,0.045-0.589,0.137-0.896c0.09-0.306,0.236-0.585,0.435-0.832c0.198-0.249,0.459-0.452,0.782-0.608
		c0.323-0.158,0.717-0.236,1.181-0.236c0.438,0,0.818,0.074,1.137,0.223c0.319,0.15,0.581,0.346,0.789,0.591
		c0.207,0.245,0.361,0.52,0.459,0.826c0.1,0.306,0.149,0.616,0.149,0.933V11.796z M-14.561,8.192c0-0.133-0.022-0.29-0.069-0.473
		c-0.045-0.182-0.125-0.355-0.237-0.521S-15.13,6.89-15.321,6.77c-0.191-0.12-0.437-0.18-0.736-0.18c-0.3,0-0.545,0.056-0.737,0.167
		c-0.191,0.111-0.345,0.249-0.461,0.41c-0.117,0.162-0.198,0.338-0.243,0.527c-0.046,0.191-0.068,0.365-0.068,0.523l0.012,3.416
		c0,0.248,0.027,0.481,0.081,0.701c0.054,0.22,0.144,0.41,0.269,0.572c0.125,0.161,0.285,0.289,0.48,0.385
		c0.195,0.096,0.43,0.143,0.704,0.143c0.2,0,0.39-0.035,0.568-0.105c0.179-0.069,0.333-0.172,0.461-0.304
		c0.128-0.134,0.232-0.295,0.312-0.485c0.079-0.191,0.118-0.404,0.118-0.646V8.192z"/>
	<path fill="#FFFFFF" d="M-6.709,11.796c0,0.396-0.062,0.754-0.186,1.073c-0.125,0.319-0.298,0.593-0.522,0.82
		c-0.224,0.229-0.491,0.401-0.801,0.521c-0.311,0.119-0.652,0.181-1.025,0.181c-0.456,0-0.845-0.075-1.168-0.224
		c-0.323-0.149-0.586-0.35-0.789-0.602c-0.204-0.254-0.35-0.545-0.441-0.877c-0.092-0.331-0.137-0.68-0.137-1.044V8.181
		c0-0.291,0.045-0.589,0.137-0.896c0.091-0.306,0.236-0.585,0.435-0.832c0.199-0.249,0.459-0.452,0.783-0.608
		c0.323-0.158,0.716-0.236,1.18-0.236c0.438,0,0.818,0.074,1.137,0.223c0.318,0.15,0.581,0.346,0.788,0.591s0.361,0.52,0.459,0.826
		c0.1,0.306,0.149,0.616,0.149,0.933V11.796z M-7.765,8.192c0-0.133-0.022-0.29-0.068-0.473c-0.046-0.182-0.125-0.355-0.237-0.521
		C-8.183,7.032-8.334,6.89-8.526,6.77s-0.437-0.18-0.736-0.18c-0.3,0-0.545,0.056-0.736,0.167c-0.192,0.111-0.346,0.249-0.462,0.41
		c-0.117,0.162-0.197,0.338-0.243,0.527c-0.046,0.191-0.068,0.365-0.068,0.523l0.012,3.416c0,0.248,0.027,0.481,0.081,0.701
		c0.054,0.22,0.144,0.41,0.269,0.572c0.124,0.161,0.284,0.289,0.48,0.385c0.195,0.096,0.431,0.143,0.705,0.143
		c0.199,0,0.389-0.035,0.567-0.105c0.179-0.069,0.333-0.172,0.461-0.304c0.129-0.134,0.232-0.295,0.312-0.485
		c0.079-0.191,0.118-0.404,0.118-0.646V8.192z"/>
	<path fill="#FFFFFF" d="M-0.373,14.316l-2.062-4.285c-0.216,0.306-0.424,0.614-0.627,0.925c-0.203,0.311-0.412,0.614-0.627,0.913
		v2.447h-1.043V5.671h1.043v4.534c0.008,0,0.015-0.002,0.019-0.007c0.004-0.004,0.01-0.006,0.019-0.006
		c0.489-0.77,0.981-1.526,1.479-2.268c0.497-0.74,0.994-1.492,1.491-2.254h1.131C0.074,6.242-0.297,6.804-0.665,7.354
		c-0.369,0.55-0.739,1.111-1.112,1.683l2.546,5.279H-0.373z"/>
	<path fill="#FFFFFF" d="M9.739,14.316l-0.546-1.963H6.435L5.9,14.316H4.844l2.511-8.646h0.932l2.521,8.646H9.739z M8.322,9.187
		L7.838,7.272H7.789L7.305,9.174L6.67,11.422h2.287L8.322,9.187z"/>
	<path fill="#FFFFFF" d="M17.777,6.602v7.715h-1.031V6.602h-1.975V5.671h4.98v0.931H17.777z"/>
	<path fill="#FFFFFF" d="M25.02,14.316l-0.547-1.963h-2.758l-0.534,1.963h-1.056l2.51-8.646h0.932l2.521,8.646H25.02z M23.604,9.187
		l-0.485-1.914h-0.049l-0.484,1.901l-0.634,2.248h2.286L23.604,9.187z"/>
	<path fill="#FFFFFF" d="M32.586,11.845c0,0.812-0.21,1.427-0.628,1.845c-0.417,0.418-0.982,0.627-1.695,0.627h-2.646V5.671h2.479
		c0.792,0,1.38,0.204,1.765,0.614c0.384,0.409,0.576,0.963,0.576,1.658c0,0.397-0.073,0.751-0.221,1.056
		c-0.148,0.307-0.438,0.568-0.872,0.783v0.037c0.224,0.059,0.415,0.153,0.571,0.285c0.158,0.134,0.286,0.289,0.386,0.466
		c0.099,0.179,0.171,0.378,0.217,0.598C32.562,11.387,32.586,11.612,32.586,11.845z M28.648,6.602v2.783h1.354
		c0.497,0,0.859-0.129,1.087-0.388c0.228-0.257,0.342-0.598,0.342-1.022c0-0.415-0.114-0.749-0.342-0.997
		c-0.228-0.25-0.59-0.376-1.087-0.376H28.648z M28.648,10.278v3.032h1.502c0.274,0,0.502-0.041,0.684-0.124s0.327-0.195,0.435-0.336
		c0.108-0.14,0.186-0.305,0.23-0.489c0.046-0.188,0.068-0.388,0.068-0.604c0-0.431-0.109-0.784-0.329-1.062
		c-0.22-0.276-0.59-0.417-1.112-0.417H28.648z"/>
	<path fill="#FFFFFF" d="M34.524,14.316V5.671h1.031v7.64h3.453v1.006H34.524z"/>
	<path fill="#FFFFFF" d="M40.636,14.316V5.671h4.584V6.64h-3.553v2.832h3.043v0.932h-3.043v2.907h3.553v1.006H40.636z"/>
</g>
</svg>
