<?xml version="1.0" encoding="utf-8"?>
<!-- Generator: Adobe Illustrator 16.0.0, SVG Export Plug-In . SVG Version: 6.00 Build 0)  -->
<!DOCTYPE svg PUBLIC "-//W3C//DTD SVG 1.1 Basic//EN" "http://www.w3.org/Graphics/SVG/1.1/DTD/svg11-basic.dtd">
<svg version="1.1" baseProfile="basic" id="Layer_1"
	 xmlns="http://www.w3.org/2000/svg" xmlns:xlink="http://www.w3.org/1999/xlink" x="0px" y="0px" width="13.996px" height="14px"
	 viewBox="0 0 13.996 14" xml:space="preserve">
<style type="text/css">
<![CDATA[
	.st0{fill:#2493D1;}
]]>
</style>
<path class="st0" d="M13.419,9.658l-0.422-2.625C12.949,6.787,12.734,6.6,12.478,6.6c-0.154,0-0.292,0.067-0.395,0.173l-1.939,1.82
	c-0.034,0.028-0.062,0.06-0.092,0.099c-0.182,0.248-0.131,0.601,0.119,0.787c0.048,0.035,0.1,0.06,0.149,0.08l0.488,0.161
	c-0.472,1.326-1.618,2.335-3.026,2.616l0.002-8.618c0.692-0.294,1.17-0.978,1.17-1.771c0-1.064-0.858-1.925-1.924-1.925
	c-1.061,0-1.925,0.86-1.925,1.925c0,0.793,0.494,1.477,1.183,1.771l0.002,8.632c-1.439-0.26-2.63-1.279-3.111-2.63l0.491-0.161
	c0.053-0.021,0.104-0.045,0.153-0.08c0.248-0.186,0.304-0.537,0.117-0.787C3.914,8.652,3.885,8.621,3.85,8.594L1.91,6.773
	C1.812,6.668,1.672,6.602,1.52,6.602c-0.259,0-0.477,0.186-0.522,0.432L0.576,9.658C0.566,9.7,0.562,9.744,0.562,9.79
	c0,0.312,0.253,0.562,0.563,0.562c0.058,0,0.113-0.007,0.166-0.024l0.455-0.147c0.727,2.203,2.802,3.799,5.249,3.799
	c2.45,0,4.525-1.596,5.252-3.803l0.455,0.15c0.053,0.019,0.105,0.025,0.164,0.025c0.312,0,0.564-0.252,0.564-0.562
	C13.433,9.744,13.427,9.7,13.419,9.658 M7.032,2.736c-0.434,0-0.788-0.355-0.788-0.791c0-0.439,0.356-0.792,0.788-0.792
	c0.439,0,0.792,0.353,0.792,0.792C7.824,2.381,7.472,2.736,7.032,2.736z"/>
</svg>
