<?xml version="1.0" encoding="utf-8"?>
<!-- Generator: Adobe Illustrator 16.0.0, SVG Export Plug-In . SVG Version: 6.00 Build 0)  -->
<!DOCTYPE svg PUBLIC "-//W3C//DTD SVG 1.1 Basic//EN" "http://www.w3.org/Graphics/SVG/1.1/DTD/svg11-basic.dtd">
<svg version="1.1" baseProfile="basic" id="Layer_1"
	 xmlns="http://www.w3.org/2000/svg" xmlns:xlink="http://www.w3.org/1999/xlink" x="0px" y="0px" width="20px" height="20px"
	 viewBox="0 0 20 20" xml:space="preserve">
<style type="text/css">
<![CDATA[
	.st0{fill:#2493D1;}
]]>
</style>
<path class="st0" d="M16.484,0H3.515C1.574,0,0,1.574,0,3.516v12.969C0,18.426,1.574,20,3.515,20h7.16v-7.297H8.342V9.66h2.333
	V8.136c0-2.35,1.735-4.19,3.95-4.19h2.15v3.436h-1.923c-0.504,0-0.651,0.289-0.651,0.688v1.59h2.575v3.042h-2.575V20h2.283
	C18.426,20,20,18.426,20,16.485V3.516C20,1.574,18.426,0,16.484,0z"/>
</svg>
