<?xml version="1.0" encoding="UTF-8"?>
<!DOCTYPE svg PUBLIC "-//W3C//DTD SVG 1.1//EN" "http://www.w3.org/Graphics/SVG/1.1/DTD/svg11.dtd">
<!-- Creator: CorelDRAW X6 -->
<svg xmlns="http://www.w3.org/2000/svg" xml:space="preserve" width="22px" height="20px" version="1.1" style="shape-rendering:geometricPrecision; text-rendering:geometricPrecision; image-rendering:optimizeQuality; fill-rule:evenodd; clip-rule:evenodd"
viewBox="0 0 22 20"
 xmlns:xlink="http://www.w3.org/1999/xlink">
 <defs>
  <style type="text/css">
   <![CDATA[
    .fil0 {fill:white}
   ]]>
  </style>
 </defs>
 <g id="Layer_x0020_1">
  <metadata id="CorelCorpID_0Corel-Layer"/>
  <path class="fil0" d="M2 19c3,1 16,1 19,1 2,-1 0,-17 0,-18 -2,-4 -15,-1 -18,0 -3,1 -3,3 -3,7 0,2 0,10 2,10zm11 -9c0,2 4,5 7,5 0,-2 0,-9 -1,-11 -2,0 -5,4 -6,6zm-8 -7c0,2 6,6 6,6 2,-1 5,-5 5,-7 -3,-1 -9,0 -11,1zm-2 13c2,0 6,-5 7,-6 -2,-1 -6,-5 -8,-5 -1,3 -1,9 1,11zm3 2l12 0c-1,-2 -6,-6 -7,-6 -1,1 -6,4 -5,6z"/>
 </g>
</svg>
