<?xml version="1.0" encoding="utf-8"?>
<!-- Generator: Adobe Illustrator 16.0.0, SVG Export Plug-In . SVG Version: 6.00 Build 0)  -->
<!DOCTYPE svg PUBLIC "-//W3C//DTD SVG 1.1 Basic//EN" "http://www.w3.org/Graphics/SVG/1.1/DTD/svg11-basic.dtd">
<svg version="1.1" baseProfile="basic" id="Layer_1"
	 xmlns="http://www.w3.org/2000/svg" xmlns:xlink="http://www.w3.org/1999/xlink" x="0px" y="0px" width="20px" height="20px"
	 viewBox="0 0 20 20" xml:space="preserve">
<style type="text/css">
<![CDATA[
	.st0{fill:#2493D1;}
]]>
</style>
<path class="st0" d="M16.047,10c0,3.34-2.708,6.047-6.047,6.047c-3.34,0-6.047-2.707-6.047-6.047c0-0.398,0.04-0.787,0.113-1.163H0
	v8.038C0,18.601,1.398,20,3.125,20h13.75C18.6,20,20,18.601,20,16.875V8.837h-4.066C16.007,9.213,16.047,9.602,16.047,10z M16.875,0
	H3.125C1.398,0,0,1.399,0,3.125v3.386h5.062C6.158,4.964,7.96,3.953,10,3.953s3.842,1.011,4.937,2.558H20V3.125
	C20,1.399,18.6,0,16.875,0z M18.402,3.86c0,0.307-0.25,0.558-0.557,0.558H16.17c-0.307,0-0.558-0.25-0.558-0.558V2.186
	c0-0.308,0.251-0.558,0.558-0.558h1.675c0.307,0,0.557,0.25,0.557,0.558V3.86z M13.721,10c0-2.055-1.667-3.721-3.721-3.721
	c-2.056,0-3.721,1.667-3.721,3.721S7.944,13.721,10,13.721C12.055,13.721,13.721,12.055,13.721,10z"/>
</svg>
