<?xml version="1.0" encoding="utf-8"?>
<!-- Generator: Adobe Illustrator 16.0.0, SVG Export Plug-In . SVG Version: 6.00 Build 0)  -->
<!DOCTYPE svg PUBLIC "-//W3C//DTD SVG 1.1 Basic//EN" "http://www.w3.org/Graphics/SVG/1.1/DTD/svg11-basic.dtd">
<svg version="1.1" baseProfile="basic" id="Layer_1"
	 xmlns="http://www.w3.org/2000/svg" xmlns:xlink="http://www.w3.org/1999/xlink" x="0px" y="0px" width="30px" height="46px"
	 viewBox="0 0 30 46" xml:space="preserve">
<style type="text/css">
<![CDATA[
	.st0{fill:#2493D1;}
	.st1{fill-rule:evenodd;clip-rule:evenodd;fill:#FFCA05;}
]]>
</style>
<g>
	<polygon class="st0" points="15,45.812 9.406,26.562 15.031,26.562 	"/>
	<path class="st0" d="M29.969,15.156c0-8.267-6.702-14.969-14.969-14.969S0.031,6.889,0.031,15.156
		c0,6.59,4.264,12.173,10.179,14.172L15,45.812h0.031l4.794-16.497C25.722,27.306,29.969,21.733,29.969,15.156z"/>
	<path class="st1" d="M21.371,17.793l-0.418-2.604c-0.049-0.244-0.261-0.43-0.515-0.43c-0.155,0-0.291,0.067-0.391,0.172
		l-1.926,1.806c-0.033,0.028-0.062,0.059-0.09,0.097c-0.181,0.247-0.129,0.596,0.118,0.78c0.047,0.036,0.098,0.059,0.149,0.08
		l0.485,0.16c-0.467,1.316-1.605,2.317-3.003,2.595l0.002-8.55c0.687-0.292,1.16-0.971,1.16-1.758c0-1.056-0.852-1.91-1.908-1.91
		c-1.052,0-1.91,0.853-1.91,1.91c0,0.787,0.491,1.465,1.174,1.758l0.002,8.564c-1.429-0.257-2.611-1.268-3.088-2.609l0.487-0.16
		c0.053-0.021,0.104-0.044,0.153-0.08c0.246-0.183,0.301-0.533,0.116-0.78c-0.028-0.038-0.055-0.069-0.09-0.096l-1.926-1.807
		c-0.096-0.105-0.236-0.171-0.387-0.171c-0.257,0-0.473,0.185-0.519,0.429l-0.418,2.604c-0.01,0.042-0.014,0.085-0.014,0.131
		c0,0.308,0.251,0.558,0.56,0.558c0.057,0,0.112-0.007,0.165-0.024l0.452-0.146c0.721,2.186,2.78,3.769,5.208,3.769
		c2.43,0,4.489-1.583,5.21-3.773l0.452,0.149c0.053,0.019,0.106,0.025,0.165,0.025c0.31,0,0.56-0.25,0.56-0.558
		C21.385,17.879,21.379,17.835,21.371,17.793 M15.034,10.926c-0.43,0-0.781-0.352-0.781-0.784c0-0.436,0.354-0.785,0.781-0.785
		c0.436,0,0.785,0.35,0.785,0.785C15.819,10.574,15.47,10.926,15.034,10.926z"/>
</g>
<g>
	<path class="st0" d="M7.656,11.938c3.224,0,3.224-5,0-5S4.432,11.938,7.656,11.938L7.656,11.938z"/>
</g>
</svg>
