<?xml version="1.0" encoding="UTF-8"?>
<!DOCTYPE svg PUBLIC "-//W3C//DTD SVG 1.1//EN" "http://www.w3.org/Graphics/SVG/1.1/DTD/svg11.dtd">
<!-- Creator: CorelDRAW X6 -->
<svg xmlns="http://www.w3.org/2000/svg" xml:space="preserve" width="21px" height="13px" version="1.1" style="shape-rendering:geometricPrecision; text-rendering:geometricPrecision; image-rendering:optimizeQuality; fill-rule:evenodd; clip-rule:evenodd"
viewBox="0 0 2133 1331"
 xmlns:xlink="http://www.w3.org/1999/xlink">
 <defs>
  <style type="text/css">
   <![CDATA[
    .str0 {stroke:white;stroke-width:93.2844}
    .fil3 {fill:none;fill-rule:nonzero}
    .fil2 {fill:black}
    .fil0 {fill:white}
    .fil1 {fill:white;fill-rule:nonzero}
   ]]>
  </style>
 </defs>
 <g id="Layer_x0020_1">
  <metadata id="CorelCorpID_0Corel-Layer"/>
  <g id="_228184232">
   <path class="fil0" d="M1054 53c265,0 654,131 427,247 -227,115 -291,217 -427,322 -17,14 -50,13 -65,-2 -212,-213 -381,-244 -381,-388 0,-157 181,-179 446,-179z"/>
   <path class="fil1" d="M533 282c142,0 272,54 366,142 94,89 153,212 153,348 0,136 -59,259 -153,348 -94,88 -224,143 -366,143 -143,0 -272,-55 -366,-143 -95,-89 -154,-212 -154,-348 0,-136 59,-259 154,-348 94,-88 223,-142 366,-142zm284 228c-72,-67 -173,-109 -284,-109 -112,0 -212,42 -285,110 -71,67 -116,159 -116,261 0,102 45,195 116,262 73,68 173,110 285,110 111,0 212,-42 284,-110 72,-67 116,-160 116,-262 0,-102 -44,-194 -116,-262z"/>
   <path class="fil1" d="M1561 282c142,0 272,54 366,142 94,89 153,212 153,348 0,136 -59,259 -153,348 -94,88 -224,143 -366,143 -143,0 -272,-55 -366,-143 -95,-89 -154,-212 -154,-348 0,-136 59,-259 154,-348 94,-88 223,-142 366,-142zm284 228c-72,-67 -173,-109 -284,-109 -112,0 -212,42 -285,109 -71,68 -116,160 -116,262 0,102 45,195 116,262 73,68 173,110 285,110 111,0 212,-42 284,-110 72,-67 116,-160 116,-262 0,-102 -44,-194 -116,-262z"/>
   <path class="fil1" d="M533 508c75,0 144,29 195,76l0 0c51,48 83,115 83,188 0,73 -32,140 -83,188l0 0c-50,47 -119,77 -195,77 -76,0 -145,-29 -195,-77 -52,-48 -83,-114 -83,-188 0,-73 31,-140 83,-188l0 0c50,-47 119,-76 195,-76zm114 162c-29,-26 -70,-43 -114,-43 -45,0 -86,16 -114,43l0 0c-28,27 -45,63 -45,102 0,40 17,76 45,102 29,27 69,44 114,44 44,0 85,-17 114,-44l0 0c28,-26 45,-62 45,-102 0,-39 -18,-75 -45,-102z"/>
   <path class="fil1" d="M1561 508c76,0 145,29 195,76 51,48 83,115 83,188 0,74 -32,140 -83,188 -50,48 -119,77 -195,77 -76,0 -145,-30 -195,-77l0 0c-52,-48 -83,-115 -83,-188 0,-73 31,-140 83,-188l0 0c50,-47 119,-76 195,-76zm114 162c-29,-27 -69,-43 -114,-43 -45,0 -85,16 -114,43l0 0c-28,27 -45,63 -45,102 0,40 17,76 45,102l0 0c29,27 69,44 114,44 45,0 85,-17 114,-44 28,-26 45,-62 45,-102 0,-39 -17,-75 -45,-102z"/>
   <path class="fil2" d="M208 467c112,-137 336,-154 671,-52 -145,-123 -413,-183 -803,-178 107,51 151,128 132,230z"/>
   <path class="fil1 str0" d="M240 396c57,-43 129,-67 218,-74 59,-5 126,-1 200,11 -29,-10 -61,-19 -95,-26 -109,-24 -239,-38 -389,-40 17,16 30,33 41,52 14,23 22,49 25,77zm222 -15c-103,8 -180,43 -231,105 -7,8 -18,12 -29,10 -16,-3 -27,-18 -24,-34 9,-44 4,-82 -15,-114 -18,-33 -52,-61 -100,-84 -10,-5 -16,-15 -16,-27 -1,-16 12,-30 29,-30 197,-2 364,12 500,42 138,31 246,79 322,144l0 0c9,7 13,19 10,31 -5,15 -22,24 -37,20 -164,-50 -301,-71 -409,-63z"/>
   <path class="fil2" d="M1925 467c-200,-147 -424,-165 -671,-52 146,-123 413,-183 803,-178 -107,51 -151,128 -132,230z"/>
   <path class="fil1 str0" d="M1907 490c-95,-70 -196,-109 -302,-117 -107,-8 -220,15 -339,69 -15,7 -32,0 -39,-15 -6,-12 -2,-26 8,-34l0 0c76,-65 184,-113 322,-144 136,-30 303,-44 500,-42 16,0 29,14 29,30 0,12 -7,22 -16,27 -48,23 -82,51 -100,84 -19,32 -24,70 -15,114 3,16 -8,31 -24,34 -9,2 -18,0 -24,-6zm-297 -176c98,7 192,39 282,95 1,-33 10,-63 26,-90 11,-19 24,-36 41,-52 -150,2 -280,16 -389,40l-23 5c21,0 42,0 63,2z"/>
   <path class="fil3" d="M454 206c199,-137 401,-206 606,-206 204,0 410,68 618,205l-77 117c-184,-121 -364,-182 -541,-182 -177,0 -352,61 -526,181l-80 -115z"/>
   <path class="fil0 str0" d="M1031 736c-7,113 -46,223 -118,330 68,68 65,63 150,187 39,-48 68,-146 129,-177 -62,-141 -116,-254 -161,-340z"/>
  </g>
 </g>
</svg>
