<?xml version="1.0" encoding="utf-8"?>
<!-- Generator: Adobe Illustrator 16.0.0, SVG Export Plug-In . SVG Version: 6.00 Build 0)  -->
<!DOCTYPE svg PUBLIC "-//W3C//DTD SVG 1.1 Basic//EN" "http://www.w3.org/Graphics/SVG/1.1/DTD/svg11-basic.dtd">
<svg version="1.1" baseProfile="basic" id="Layer_1"
	 xmlns="http://www.w3.org/2000/svg" xmlns:xlink="http://www.w3.org/1999/xlink" x="0px" y="0px" width="20px" height="20px"
	 viewBox="0 0 20 20" xml:space="preserve">
<style type="text/css">
<![CDATA[
	.st0{fill:#FDFDFD;}
]]>
</style>
<path class="st0" d="M11.078,11.022c-0.32-0.187-0.766-0.187-1.128-0.187H8.761v2.45h1.091c0.405,0,0.92,0.029,1.268-0.215
	c0.32-0.215,0.501-0.638,0.501-1.04C11.62,11.657,11.397,11.209,11.078,11.022z M10.629,8.931c0.265-0.202,0.404-0.562,0.404-0.892
	c0-0.359-0.167-0.705-0.473-0.892c-0.32-0.187-0.905-0.144-1.281-0.144H8.761V9.16h0.685C9.835,9.16,10.295,9.189,10.629,8.931z
	 M16.484,0H3.515C1.574,0,0,1.574,0,3.516v12.969C0,18.426,1.574,20,3.515,20h12.969C18.426,20,20,18.426,20,16.485V3.516
	C20,1.574,18.426,0,16.484,0z M10.542,15.111H6.457V5.25h4.464c1.292,0,2.486,0.823,2.486,2.275c0,1.121-0.625,1.889-1.424,2.127
	v0.029c1.184,0.245,2.03,0.887,2.03,2.438C14.013,13.556,13.035,15.111,10.542,15.111z"/>
</svg>
