<?xml version="1.0" encoding="utf-8"?>
<!-- Generator: Adobe Illustrator 16.0.0, SVG Export Plug-In . SVG Version: 6.00 Build 0)  -->
<!DOCTYPE svg PUBLIC "-//W3C//DTD SVG 1.1//EN" "http://www.w3.org/Graphics/SVG/1.1/DTD/svg11.dtd">
<svg version="1.1" id="Layer_1" xmlns="http://www.w3.org/2000/svg" xmlns:xlink="http://www.w3.org/1999/xlink" x="0px" y="0px"
	 width="18px" height="19px" viewBox="0 0 18 19" enable-background="new 0 0 18 19" xml:space="preserve">
<g>
	<path d="M17.825,7.648c-0.376-1.974-1.335-3.618-2.841-4.943c-1.307-1.151-2.839-1.828-4.555-2.104
		C10.205,0.565,9.98,0.534,9.756,0.5h-1.19c-0.45,0.076-0.902,0.138-1.349,0.23C3.809,1.433,1.07,4.248,0.451,7.684
		c-0.299,1.66-0.142,3.246,0.461,4.754h1.504c-0.3-0.612-0.517-1.26-0.628-1.947C1.481,8.585,1.834,6.809,2.924,5.21
		C4.17,3.381,5.9,2.28,8.104,1.963c1.584-0.228,3.101,0.023,4.514,0.78c1.783,0.956,3.033,2.389,3.636,4.323
		c0.686,2.202,0.398,4.305-0.877,6.234c-1.087,1.642-2.609,2.709-4.537,3.15c-1.606,0.368-3.137,0.228-4.59-0.387v1.474
		c1.309,0.448,2.672,0.58,4.084,0.405c3.664-0.454,6.717-3.284,7.472-6.912c0.08-0.385,0.13-0.776,0.194-1.165V8.678
		C17.941,8.335,17.891,7.99,17.825,7.648z"/>
	<path fill-rule="evenodd" clip-rule="evenodd" d="M4.835,7.301C4.83,6.604,5.103,6.031,5.586,5.546
		c0.182-0.183,0.4-0.239,0.657-0.267c0.5-0.052,0.773,0.14,0.922,0.62C7.302,6.34,7.505,6.76,7.7,7.179
		c0.106,0.229,0.077,0.429-0.062,0.617C7.495,7.991,7.342,8.183,7.177,8.361c-0.142,0.153-0.154,0.301-0.05,0.473
		c0.708,1.171,1.686,2.025,2.962,2.535c0.205,0.082,0.365,0.052,0.504-0.126c0.201-0.257,0.418-0.503,0.617-0.763
		c0.139-0.182,0.3-0.218,0.5-0.124c0.57,0.269,1.141,0.539,1.713,0.804c0.172,0.08,0.219,0.214,0.212,0.389
		c-0.03,0.854-0.657,1.549-1.493,1.755c-0.682,0.168-1.286-0.035-1.915-0.223c-1.903-0.567-3.286-1.796-4.402-3.379
		C5.411,9.114,5.026,8.517,4.889,7.797C4.858,7.634,4.852,7.466,4.835,7.301z"/>
</g>
<g>
	<path d="M7.125,16.471c-0.519-0.12-1.029-0.293-1.527-0.54C3.875,15.077,2.627,13.771,1.938,12h-1.45
		c0.516,1.595,1.421,2.951,2.747,4.044c1.148,0.949,2.459,1.526,3.891,1.817V16.471z"/>
</g>
</svg>
