<?xml version="1.0" encoding="utf-8"?>
<!-- Generator: Adobe Illustrator 16.0.0, SVG Export Plug-In . SVG Version: 6.00 Build 0)  -->
<!DOCTYPE svg PUBLIC "-//W3C//DTD SVG 1.1//EN" "http://www.w3.org/Graphics/SVG/1.1/DTD/svg11.dtd">
<svg version="1.1" id="Layer_1" xmlns="http://www.w3.org/2000/svg" xmlns:xlink="http://www.w3.org/1999/xlink" x="0px" y="0px"
	 width="18px" height="19px" viewBox="0 0 18 19" enable-background="new 0 0 18 19" xml:space="preserve">
<g>
	<path fill="#49BC43" d="M3.059,3.42C0.476,6-0.051,9.854,1.476,12.955l-0.563,4.354l4.359-0.562
		c3.106,1.524,6.964,0.998,9.547-1.581c3.249-3.243,3.249-8.502,0-11.746C11.572,0.176,6.307,0.176,3.059,3.42z"/>
</g>
<g>
	<path fill="#FFFFFF" d="M15.305,2.936c-1.7-1.698-3.961-2.633-6.365-2.633c-2.405,0-4.665,0.935-6.365,2.633
		C-0.1,5.607-0.812,9.653,0.77,13.067l-0.651,5.034l5.041-0.64c1.177,0.544,2.48,0.841,3.783,0.841c0,0,0,0,0.001,0
		c2.403,0,4.662-0.945,6.361-2.643C18.814,12.155,18.814,6.441,15.305,2.936z M14.335,14.691c-1.44,1.439-3.355,2.242-5.392,2.242h0
		c-1.165,0-2.33-0.281-3.369-0.791l-0.185-0.096L1.706,16.52l0.476-3.68l-0.091-0.186C0.65,9.727,1.234,6.21,3.543,3.904
		c1.441-1.439,3.358-2.233,5.396-2.233c2.039,0,3.955,0.798,5.396,2.238C17.311,6.881,17.311,11.721,14.335,14.691z"/>
	<circle fill="#FFFFFF" cx="4.879" cy="9.507" r="1.118"/>
	<circle fill="#FFFFFF" cx="8.992" cy="9.507" r="1.118"/>
	<circle fill="#FFFFFF" cx="13.104" cy="9.507" r="1.118"/>
</g>
</svg>
