<?xml version="1.0" encoding="utf-8"?>
<!-- Generator: Adobe Illustrator 16.0.0, SVG Export Plug-In . SVG Version: 6.00 Build 0)  -->
<!DOCTYPE svg PUBLIC "-//W3C//DTD SVG 1.1 Basic//EN" "http://www.w3.org/Graphics/SVG/1.1/DTD/svg11-basic.dtd">
<svg version="1.1" baseProfile="basic" id="Layer_1"
	 xmlns="http://www.w3.org/2000/svg" xmlns:xlink="http://www.w3.org/1999/xlink" x="0px" y="0px" width="143px" height="46.417px"
	 viewBox="0 0 143 46.417" xml:space="preserve">
<style type="text/css">
<![CDATA[
	.st0{fill:#FFFFFF;}
]]>
</style>
<g>
	<path class="st0" d="M23.706,0.194c5.323,0,8.198,3.885,8.198,10.102s-2.875,10.102-8.198,10.102s-8.16-3.885-8.16-10.102
		S18.383,0.194,23.706,0.194 M23.706,18.105c3.03,0,4.894-3.187,4.894-7.81c0-4.623-1.864-7.77-4.894-7.77
		c-3.031,0-4.856,3.147-4.856,7.77C18.85,14.919,20.675,18.105,23.706,18.105"/>
	<path class="st0" d="M35.203,0.583H50.86v17.134h2.37v5.984l-2.991,0.66V20.01h-12.9v3.691l-3.03,0.66v-6.644h1.398
		c1.865-1.981,2.72-6.527,2.796-15.113l-3.301-0.544V0.583z M39.048,17.717h8.782V2.915h-6.295
		C41.535,10.49,40.681,15.23,39.048,17.717"/>
	<path class="st0" d="M69.621,18.339c-1.437,1.282-3.303,2.059-5.828,2.059c-5.321,0-8.158-3.885-8.158-10.102
		s2.837-10.102,8.158-10.102c4.274,0,6.799,3.847,6.799,10.063c0,0.234-0.155,0.583-0.545,0.583H58.858
		c0.08,4.351,1.983,7.265,4.935,7.265c1.866,0,3.302-0.466,4.896-1.01C69,17.485,69.311,17.951,69.621,18.339 M58.858,8.703h8.549
		c-0.272-3.845-1.71-6.176-3.807-6.176C60.997,2.526,59.169,4.857,58.858,8.703"/>
	<path class="st0" d="M82.556,18.105c1.866,0,3.304-0.466,4.895-1.01l0.934,1.244c-1.438,1.282-3.303,2.059-5.828,2.059
		c-5.321,0-8.158-3.885-8.158-10.102s2.837-10.102,8.158-10.102c2.487,0,4.352,0.778,5.79,2.059l-0.934,1.244
		c-1.592-0.543-2.99-0.971-4.856-0.971c-3.028,0-4.854,3.147-4.854,7.77C77.701,14.919,79.527,18.105,82.556,18.105"/>
	<path class="st0" d="M100.27,18.105c1.864,0,3.304-0.466,4.895-1.01l0.934,1.244c-1.438,1.282-3.305,2.059-5.828,2.059
		c-5.323,0-8.159-3.885-8.159-10.102s2.836-10.102,8.159-10.102c2.486,0,4.351,0.778,5.789,2.059l-0.933,1.244
		c-1.593-0.543-2.992-0.971-4.856-0.971c-3.031,0-4.856,3.147-4.856,7.77C95.413,14.919,97.238,18.105,100.27,18.105"/>
	<path class="st0" d="M127.501,19.465l-5.594,1.01c-0.155-0.466-0.312-1.049-0.466-1.632c-1.167,0.971-2.722,1.554-4.431,1.554
		c-4.623,0-7.226-2.37-7.226-5.828c0-3.498,2.681-5.868,10.994-5.868V6.761c0-2.914-1.708-4.235-4.118-4.235
		c-1.826,0-3.302,0.428-4.895,0.971l-0.895-1.244c1.438-1.32,3.303-2.059,5.789-2.059c4.547,0,7.148,2.253,7.148,6.567v7.575
		c0,1.244,0,2.449,0.156,3.653h3.535V19.465z M117.011,18.105c1.36,0,2.604-0.466,3.769-1.127v-5.982
		c-6.371,0-8.08,1.554-8.08,3.575C112.699,16.55,114.369,18.105,117.011,18.105"/>
	<path class="st0" d="M3.559,45.542c2.738-3.31,6.39-5.585,10.016-7.801c3.477-2.125,2.307-1.736,5.221,0.745
		c3.863,3.288,11.573-2.589,14.815-3.957c-0.667-0.06-1.333-0.12-1.999-0.184c1.845,5.984,5.573,9.959,12.116,9.47
		c3.172-0.236,6.426-1.883,9.184-3.312c4.127-2.14,8.204-4.175,11.772-7.197l-2.588,0.166c1.452,4.167,3.461,7.674,8.295,7.351
		c2.034-0.134,4.058-1.379,5.803-2.324c3.726-2.019,7.371-4.172,11.146-6.112c-0.739,0.05-1.481,0.1-2.223,0.151
		c1.567,2.366,3.346,5.238,6.686,4.587c3.249-0.632,5.724-2.189,8.213-4.351l-2.586,0.167c2.696,4.865,5.537,9.438,11.854,9.56
		c6.648,0.127,11.326-3.788,16.297-7.712c-0.828,0.11-1.655,0.223-2.484,0.337c5.393,4.009,10.973,7.318,16.582,10.974
		c0.762,0.496,3.43-0.628,2.295-1.368c-5.461-3.559-10.954-6.816-16.204-10.721c-0.707-0.524-1.859-0.155-2.484,0.337
		c-4.188,3.306-8.132,7.258-14.051,6.368c-4.941-0.743-6.8-4.703-8.929-8.546c-0.465-0.837-2.035-0.314-2.588,0.166
		c-1.893,1.643-4.931,4.568-7.876,2.079c-0.852-0.721-1.441-2.069-2.052-2.991c-0.406-0.614-1.772-0.081-2.223,0.149
		c-3.392,1.743-6.773,3.524-10.05,5.476c-2.602,1.548-5.875,3.153-8.38,0.256c-1.074-1.24-1.633-3.072-2.166-4.604
		c-0.318-0.914-2.124-0.226-2.586,0.166c-3.974,3.367-8.864,5.762-13.582,7.928c-7.443,3.418-12.201-0.357-14.316-7.218
		c-0.218-0.708-1.559-0.37-2-0.185c-3.587,1.513-10.937,7.323-13.244,1.412c-0.379-0.971-2.435-0.531-3.1-0.354
		c-2.377,0.638-4.851,2.774-6.895,4.064c-3.093,1.953-6.02,4.162-8.359,6.99C0.092,46.468,2.983,46.239,3.559,45.542"/>
	<path class="st0" d="M122.746,41.667c0,0.137,0,0.274,0,0.411c0,0.724,2.876,0.231,2.876-0.771c0-0.136,0-0.271,0-0.409
		C125.624,40.172,122.748,40.667,122.746,41.667"/>
	<path class="st0" d="M59,40.343c-0.009-0.085,0.188-0.281,0.06-0.179c-0.346,0.278-0.402,0.771,0.023,0.993
		c0.628,0.324,1.474,0.079,2.041-0.253c0.401-0.235-0.23,0.11,0.202-0.109c0.237-0.12,0.474-0.24,0.692-0.394
		c0.385-0.273,0.864-0.863,0.233-1.19c-0.64-0.329-1.459-0.066-2.042,0.253c-0.424,0.232-0.792,0.56-1.173,0.84
		c-0.376,0.278-0.871,0.858-0.233,1.188c0.583,0.303,1.53,0.128,2.042-0.25c0.408-0.303,0.741-0.604,1.173-0.84
		c-0.603-0.313-1.206-0.626-1.809-0.938c-0.25,0.177-0.511,0.28-0.891,0.503c0.687,0.246,1.377,0.493,2.065,0.74
		c0.365-0.293,0.542-0.672,0.493-1.135c-0.069-0.632-1.286-0.479-1.644-0.383C59.714,39.329,58.929,39.697,59,40.343"/>
</g>
</svg>
