<?xml version="1.0" encoding="UTF-8"?>
<!DOCTYPE svg PUBLIC "-//W3C//DTD SVG 1.1//EN" "http://www.w3.org/Graphics/SVG/1.1/DTD/svg11.dtd">
<!-- Creator: CorelDRAW X6 -->
<svg xmlns="http://www.w3.org/2000/svg" xml:space="preserve" width="145px" height="30px" version="1.1" style="shape-rendering:geometricPrecision; text-rendering:geometricPrecision; image-rendering:optimizeQuality; fill-rule:evenodd; clip-rule:evenodd"
viewBox="0 0 20230 4134"
 xmlns:xlink="http://www.w3.org/1999/xlink">
 <defs>
  <style type="text/css">
   <![CDATA[
    .fil0 {fill:white}
    .fil2 {fill:#999999;fill-rule:nonzero}
    .fil3 {fill:#CCCCCC;fill-rule:nonzero}
    .fil1 {fill:white;fill-rule:nonzero}
   ]]>
  </style>
 </defs>
 <g id="Слой_x0020_1">
  <metadata id="CorelCorpID_0Corel-Layer"/>
  <path class="fil0" d="M5424 361l-732 3421 -885 0 732 -3421 885 0zm3724 2209l466 -1285 268 1285 -734 0zm988 1212l818 0 -714 -3421 -756 0c-170,0 -313,99 -377,251l-1328 3170 930 0 184 -511 1136 0 107 511zm-2311 -1117c4,-903 -1248,-953 -1240,-1356 3,-123 120,-253 376,-286 126,-17 476,-30 872,153l156 -726c-213,-77 -487,-152 -828,-152 -875,0 -1491,465 -1496,1131 -6,493 439,768 775,931 345,168 460,276 459,426 -2,229 -275,331 -530,335 -445,7 -703,-121 -909,-216l-160 749c206,95 588,178 984,182 930,0 1538,-459 1541,-1171zm-3666 -2304l-1434 3421 -936 0 -706 -2730c-42,-168 -80,-230 -210,-301 -213,-115 -564,-224 -873,-291l21 -99 1506 0c192,0 365,128 408,349l373 1980 921 -2329 930 0z"/>
  <path class="fil1" d="M20230 1646c0,909 -736,1646 -1643,1646 -908,0 -1643,-737 -1643,-1646 0,-909 735,-1646 1643,-1646 907,0 1643,737 1643,1646z"/>
  <path class="fil2" d="M18203 1646c0,909 -736,1646 -1643,1646 -908,0 -1643,-737 -1643,-1646 0,-909 735,-1646 1643,-1646 907,0 1643,737 1643,1646z"/>
  <path class="fil3" d="M17573 350c-383,301 -629,770 -629,1296 0,526 246,994 629,1296 384,-302 630,-770 630,-1296 0,-526 -246,-995 -630,-1296z"/>
  <path class="fil1" d="M20227 2519l0 -58 -16 0 -17 40 -18 -40 -15 0 0 58 10 0 0 -44 17 38 11 0 17 -38 0 44 11 0zm-98 0l0 0 0 -48 20 0 0 -10 -50 0 0 10 20 0 0 48 10 0z"/>
  <path class="fil1" d="M15282 4106l-93 0 0 -435 91 0 0 53c0,0 81,-65 129,-64 92,2 148,81 148,81 0,0 44,-81 146,-81 150,0 172,137 172,137l0 308 -90 0 0 -271c0,0 0,-82 -97,-82 -100,0 -110,82 -110,82l0 271 -93 0 0 -273c0,0 -9,-86 -93,-86 -109,0 -112,88 -112,88l2 272z"/>
  <path class="fil1" d="M18118 3660c-48,-1 -128,64 -128,64l0 -53 -92 0 0 435 93 0 -1 -272c0,0 2,-88 111,-88 20,0 36,5 49,13l0 -1 30 -84c-18,-8 -39,-13 -62,-14z"/>
  <path class="fil1" d="M19431 3660c-48,-1 -128,64 -128,64l0 -53 -92 0 0 435 94 0 -2 -272c0,0 2,-88 111,-88 21,0 36,5 49,13l0 -1 30 -84c-18,-8 -39,-13 -62,-14z"/>
  <path class="fil1" d="M16176 3658c-139,0 -213,126 -214,231 0,107 84,231 218,231 78,0 142,-58 142,-58l0 45 92 0 0 -436 -93 0 0 55c0,0 -60,-68 -145,-68zm18 89l0 0c75,0 136,65 136,146 0,80 -61,145 -136,145 -75,0 -135,-65 -135,-145 0,-81 60,-146 135,-146z"/>
  <path class="fil1" d="M18852 3658c-139,0 -213,126 -213,231 -1,107 84,231 217,231 78,0 142,-58 142,-58l0 45 92 0 0 -436 -92 0 0 55c0,0 -60,-68 -146,-68zm18 89l0 0c75,0 136,65 136,146 0,80 -61,145 -136,145 -75,0 -135,-65 -135,-145 0,-81 60,-146 135,-146z"/>
  <path class="fil1" d="M19733 3658c-139,0 -213,126 -213,231 -1,107 84,231 217,231 78,0 142,-58 142,-58l0 45 92 0 0 -608 -92 0 0 227c0,0 -60,-68 -146,-68zm18 89l0 0c75,0 136,65 136,146 0,80 -61,145 -136,145 -75,0 -135,-65 -135,-145 0,-81 60,-146 135,-146z"/>
  <path class="fil1" d="M16694 4121c-95,0 -183,-58 -183,-58l40 -63c0,0 83,39 143,39 38,0 103,-13 104,-51 1,-41 -109,-54 -109,-54 0,0 -164,-2 -164,-137 0,-84 82,-139 187,-139 61,0 174,54 174,54l-46 71c0,0 -87,-35 -134,-37 -38,-1 -86,17 -86,51 0,93 273,-7 273,180 0,122 -111,144 -199,144z"/>
  <path class="fil1" d="M17044 3545l0 127 -81 0 0 91 81 0 0 219c0,0 -7,148 152,148 44,0 130,-33 130,-33l-37 -95c0,0 -34,29 -72,29 -74,-2 -72,-49 -72,-49l0 -219 152 0 0 -91 -152 0 0 -127 -101 0z"/>
  <path class="fil1" d="M17597 3664c-150,0 -225,123 -224,230 0,110 68,234 232,234 71,0 170,-62 170,-62l-43 -74c0,0 -67,48 -127,48 -118,0 -126,-116 -126,-116l318 0c0,0 24,-260 -200,-260zm-14 85l0 0c3,0 7,0 11,0 112,0 111,106 111,106l-226 0c0,0 -5,-99 104,-106z"/>
  <path class="fil1" d="M18543 3991l42 85c0,0 -67,44 -143,44 -157,0 -244,-118 -244,-230 0,-176 138,-228 232,-228 85,0 159,50 159,50l-48 85c0,0 -29,-45 -113,-45 -85,0 -130,73 -130,142 0,78 52,143 131,143 62,0 114,-46 114,-46z"/>
  <path class="fil1" d="M20163 4047c-13,0 -23,4 -32,13 -8,8 -12,18 -13,30 1,13 5,23 13,31 9,9 19,13 32,13 13,0 24,-4 32,-13 8,-8 13,-18 13,-31 0,-12 -5,-22 -13,-30 -8,-9 -19,-13 -32,-13zm0 78l0 0c-9,-1 -18,-4 -24,-10 -6,-7 -10,-15 -10,-25 0,-9 4,-17 10,-24 6,-6 15,-9 24,-10 10,1 18,4 24,10 7,7 10,15 10,24 0,10 -3,18 -10,25 -6,6 -14,9 -24,10zm3 -55l0 0 -19 0 0 41 9 0 0 -16 4 0 12 16 11 0 -14 -16c5,0 8,-2 10,-4 2,-2 3,-5 3,-8 0,-4 -1,-7 -4,-10 -3,-2 -7,-3 -12,-3zm0 8l0 0c2,0 4,0 5,1 2,1 2,2 2,4 0,2 0,3 -2,4 -1,1 -3,2 -5,2l-10 0 0 -11 10 0z"/>
 </g>
</svg>
