<?xml version="1.0" encoding="UTF-8"?>
<!DOCTYPE svg PUBLIC "-//W3C//DTD SVG 1.1//EN" "http://www.w3.org/Graphics/SVG/1.1/DTD/svg11.dtd">
<!-- Creator: CorelDRAW X6 -->
<svg xmlns="http://www.w3.org/2000/svg" xml:space="preserve" width="203px" height="14px" version="1.1" style="shape-rendering:geometricPrecision; text-rendering:geometricPrecision; image-rendering:optimizeQuality; fill-rule:evenodd; clip-rule:evenodd"
viewBox="0 0 40667 2751"
 xmlns:xlink="http://www.w3.org/1999/xlink">
 <defs>
  <style type="text/css">
   <![CDATA[
    .fil0 {fill:white}
    .fil4 {fill:#333333;fill-rule:nonzero}
    .fil1 {fill:white;fill-rule:nonzero}
    .fil3 {fill:white;fill-rule:nonzero;fill-opacity:0.341176}
    .fil5 {fill:white;fill-opacity:0.501961}
    .fil7 {fill:white;fill-rule:nonzero;fill-opacity:0.501961}
    .fil6 {fill:white;fill-rule:nonzero;fill-opacity:0.611765}
    .fil2 {fill:white;fill-rule:nonzero;fill-opacity:0.631373}
   ]]>
  </style>
 </defs>
 <g id="Слой_x0020_1">
  <metadata id="CorelCorpID_0Corel-Layer"/>
  <path class="fil0" d="M3444 292l-465 2173 -562 0 465 -2173 562 0zm2364 1403l296 -816 171 816 -467 0zm628 770l519 0 -453 -2173 -480 0c-108,0 -199,63 -239,159l-844 2014 591 0 117 -325 721 0 68 325zm-1467 -710c2,-573 -793,-605 -788,-861 2,-78 76,-161 239,-182 80,-10 302,-19 554,97l98 -460c-135,-50 -309,-97 -525,-97 -556,0 -947,296 -950,718 -4,313 279,488 492,592 219,106 292,174 292,270 -2,146 -175,210 -337,212 -282,5 -446,-76 -577,-137l-102 476c131,60 374,113 625,116 591,0 977,-292 979,-744zm-2328 -1463l-911 2173 -594 0 -448 -1734c-27,-107 -51,-146 -133,-191 -136,-73 -359,-142 -555,-185l13 -63 957 0c122,0 231,81 259,222l237 1257 585 -1479 590 0z"/>
  <path class="fil0" d="M39879 1424l2 0 4 0 4 0 4 0 3 0 4 0 4 0 4 0 4 0 4 0 3 0 4 0 4 0 4 0 4 0 4 0 3 0 4 0 4 0 4 0 4 0 4 0 4 0 3 0 4 0 4 0 4 0 4 0 4 0 3 0 4 0 4 0 4 0 4 0 4 0 4 0 4 0 3 0 4 0 4 0 4 0 4 0 4 0 3 0 4 0 4 0 4 0 4 0 4 0 4 0 3 0 4 0 4 0 4 0 4 0 4 0 3 0 4 0 4 0 4 0 3 0 1 0c1,0 2,0 4,0 1,0 2,0 3,0 2,0 3,0 4,1 2,0 3,0 4,0 1,0 3,0 4,0 1,1 3,1 4,1 1,0 1,0 2,1l2 0c1,0 2,0 4,1 1,0 2,0 3,1 2,0 3,1 4,1 2,1 3,1 4,2 1,0 3,1 4,1 1,1 2,2 4,2 1,1 2,1 4,2 1,1 2,2 3,3 2,0 3,1 4,2 2,1 3,2 4,3 1,1 3,2 4,3 1,1 3,2 4,3 1,1 2,3 4,4 1,1 2,3 3,4 2,2 3,3 4,5 2,1 3,3 4,5 2,2 3,4 4,6 1,3 3,5 4,7 1,3 3,6 4,10 1,4 2,8 4,13 1,7 2,15 2,24 0,8 -1,17 -2,24 -2,5 -3,9 -4,13 -1,4 -3,7 -4,10 -1,2 -3,4 -4,7 -1,2 -2,4 -4,6 -1,2 -2,4 -4,5 -1,2 -2,3 -4,5 -1,1 -2,3 -3,4 -2,1 -3,3 -4,4 -1,1 -3,2 -4,3 -1,1 -3,2 -4,3 -1,1 -2,2 -4,3 -1,1 -2,2 -4,2 -1,1 -2,2 -3,3 -2,0 -3,1 -4,2 -2,0 -3,1 -4,2 -1,0 -3,1 -4,1 -1,1 -2,1 -4,2 -1,0 -2,1 -4,1 -1,0 -2,1 -3,1 -2,0 -3,1 -4,1l-2 0c-1,1 -1,1 -2,1 -1,0 -3,0 -4,0 -1,1 -3,1 -4,1 -1,0 -2,0 -4,0 -1,1 -2,1 -4,1 -1,0 -2,0 -3,0 -2,0 -3,0 -4,0l-2 0 -2 0 -4 0 -4 0 -4 0 -3 0 -4 0 -4 0 -4 0 -4 0 -4 0 -3 0 -4 0 -4 0 -4 0 -4 0 -4 0 -4 0 -3 0 -4 0 -4 0 -4 0 -4 0 -4 0 -3 0 -4 0 -4 0 -4 0 -4 0 -4 0 -4 0 -4 0 -3 0 -4 0 -4 0 -4 0 -4 0 -4 0 -3 0 -4 0 -4 0 -4 0 -4 0 -4 0 -4 0 -3 0 -4 0 -4 0 -4 0 -4 0 -4 0 -3 0 -4 0 -4 0 -4 0 -4 0 -4 0 -3 0 -4 0 -4 0 -4 0 -2 0 0 -210zm310 -238c1,7 2,15 2,22 0,8 -1,16 -2,23 -1,4 -3,9 -4,13 -1,3 -3,6 -4,9 -1,2 -3,4 -4,7 -1,2 -2,3 -4,5 -1,2 -2,4 -4,5 -1,2 -2,3 -3,5 -2,1 -3,2 -4,4 -1,1 -3,2 -4,3 -1,1 -3,2 -4,3 -1,1 -2,2 -4,3 -1,1 -2,2 -4,2 -1,1 -2,2 -3,3 -2,0 -3,1 -4,1 -2,1 -3,2 -4,2 -1,1 -3,2 -4,2 -1,1 -3,1 -4,1 -1,1 -2,1 -4,2 -1,0 -2,0 -4,1 -1,0 -2,0 -3,1 -2,0 -3,0 -4,0l-1 0c-1,1 -2,1 -3,1 -1,0 -3,0 -4,0 -1,0 -2,1 -4,1 -1,0 -2,0 -4,0 -1,0 -2,0 -3,0 -2,0 -3,0 -4,0l-1 0 -3 0 -4 0 -4 0 -4 0 -3 0 -4 0 -4 0 -4 0 -4 0 -4 0 -4 0 -3 0 -4 0 -4 0 -4 0 -4 0 -4 0 -3 0 -4 0 -4 0 -4 0 -4 0 -4 0 -3 0 -5 0 -3 0 -4 0 -4 0 -4 0 -4 0 -4 0 -3 0 -4 0 -4 0 -4 0 -4 0 -4 0 -3 0 -4 0 -4 0 -4 0 -4 0 -3 0 -5 0 -3 0 -4 0 -4 0 -4 0 -4 0 -4 0 -3 0 -4 0 -4 0 -4 0 -2 0 0 -194 2 0 4 0 4 0 4 0 3 0 4 0 4 0 4 0 4 0 4 0 3 0 5 0 3 0 4 0 4 0 4 0 4 0 3 0 4 0 4 0 4 0 4 0 4 0 3 0 4 0 4 0 4 0 4 0 4 0 3 0 5 0 3 0 4 0 4 0 4 0 4 0 4 0 3 0 4 0 4 0 4 0 4 0 4 0 3 0 4 0 4 0 4 0 4 0 4 0 4 0 3 0 4 0 4 0 4 0 4 0 1 0 3 0c1,0 2,1 3,1 2,0 3,0 4,0 2,0 3,0 4,0 1,0 3,1 4,1 1,0 2,0 3,0l1 0c1,1 2,1 4,1 1,0 2,1 3,1 2,0 3,1 4,1 2,0 3,1 4,1 1,1 3,1 4,2 1,0 3,1 4,1 1,1 2,2 4,2 1,1 2,2 4,2 1,1 2,2 3,2 2,1 3,2 4,3 2,1 3,2 4,3 1,1 3,2 4,3 1,1 3,2 4,3 1,1 2,3 4,4 1,1 2,3 3,5 2,1 3,3 4,4 2,2 3,4 4,6 1,2 3,5 4,7 1,3 3,6 4,9 1,4 3,8 4,13zm476 -1006l2 0 0 1992c0,12 -1,24 -2,36 -1,10 -2,20 -3,30 -2,6 -3,13 -4,20 -1,5 -3,10 -4,16 -1,4 -3,9 -4,13 -1,4 -2,8 -4,12 -1,4 -2,8 -4,11 -1,4 -2,7 -3,10 -2,3 -3,7 -4,10 -2,2 -3,5 -4,8 -1,3 -3,6 -4,8 -1,3 -3,5 -4,8 -1,2 -2,5 -4,7 -1,3 -2,5 -4,7 -1,2 -2,5 -3,7 -2,2 -3,4 -4,6 -2,2 -3,4 -4,6 -1,2 -3,4 -4,6 -1,2 -2,4 -4,6 -1,2 -2,3 -4,5 -1,2 -2,4 -3,5 -2,2 -3,4 -4,6 -2,1 -3,3 -4,4 -1,2 -3,4 -4,5 -1,2 -3,4 -4,5 -1,1 -2,3 -4,4 -1,2 -2,3 -4,5 -1,1 -2,3 -4,4 -1,1 -2,3 -3,4 -1,1 -3,3 -4,4 -2,1 -3,3 -4,4 -1,1 -2,2 -4,4 -1,1 -2,2 -4,3 -1,2 -2,3 -3,4 -2,1 -3,2 -4,4 -2,1 -3,2 -4,3 -2,1 -3,2 -4,3 -1,1 -2,3 -4,3 -1,2 -3,3 -4,4 -1,1 -2,2 -3,3 -2,1 -3,2 -5,3 -1,1 -2,2 -3,3 -2,1 -3,2 -4,3 -1,0 -3,1 -4,2 -1,1 -3,2 -4,3 -1,1 -2,2 -4,3 -1,1 -2,1 -4,2 -1,1 -2,2 -3,3 -2,1 -3,1 -4,2 -2,1 -3,2 -4,3 -1,0 -3,1 -4,2l-4 2c-1,1 -2,2 -4,3 -1,0 -2,1 -3,2 -2,0 -3,1 -4,2 -2,1 -3,1 -4,2 -1,0 -3,1 -4,2 -1,1 -3,1 -4,2 -1,0 -2,1 -4,2 -1,0 -2,1 -4,2l-3 1 -4 2c-2,1 -3,1 -4,2 -1,0 -3,1 -4,1 -1,1 -2,1 -4,2 -1,1 -2,1 -4,2 -1,0 -2,0 -3,1 -2,0 -3,1 -4,1l-4 2c-1,0 -3,1 -4,1 -1,1 -3,1 -4,2 -1,0 -2,0 -4,1l-4 1c-1,0 -2,1 -3,1l-4 1c-1,1 -3,1 -4,2 -1,0 -3,0 -4,0 -1,1 -2,1 -4,2l-4 1 -3 1 -4 1c-2,0 -3,0 -4,0 -1,0 -3,1 -4,1l-4 1 -4 1c-1,0 -2,0 -3,0 -2,1 -3,1 -4,1l-4 0 -4 1 -4 1c-1,0 -2,0 -4,0 -1,0 -2,1 -4,1 -1,0 -2,0 -3,0 -2,0 -3,0 -4,1 -1,0 -3,0 -4,0 -1,0 -3,0 -4,0 -1,0 -2,0 -4,1l-4 0c-1,0 -2,0 -3,0 -2,0 -3,0 -4,0l-4 0 -4 0c-1,0 -3,0 -4,0l-4 0 -1 0 -2 0 -4 0 -4 0 -4 0 -4 0 -4 0 -4 0 -3 0 -4 0 -4 0 -4 0 -4 0 -4 0 -3 0 -4 0 -4 0 -4 0 -4 0 -4 0 -4 0 -3 0 -4 0 -4 0 -4 0 -4 0 -4 0 -3 0 -4 0 -4 0 -4 0 -4 0 -4 0 -3 0 -4 0 -4 0 -4 0 -4 0 -4 0 -4 0 -3 0 -4 0 -4 0 -4 0 -4 0 -4 0 -3 0 -4 0 -4 0 -4 0 -4 0 -4 0 -4 0 -3 0 -4 0 -4 0 -4 0 -4 0 -4 0 -3 0 -4 0 -4 0 -4 0 -4 0 -4 0 -3 0 -5 0 -3 0 -4 0 -4 0 -4 0 -4 0 -4 0 -3 0 -4 0 -4 0 -4 0 -4 0 -4 0 -3 0 -4 0 -4 0 -4 0 -4 0 -4 0 -4 0 -3 0 -4 0 -4 0 -4 0 -4 0 -4 0 -3 0 -4 0 -4 0 -4 0 -4 0 -4 0 -4 0 -3 0 -4 0 -4 0 -4 0 -4 0 -4 0 -3 0 -4 0 -4 0 -4 0 -4 0 -4 0 -3 0 -4 0 -4 0 -4 0 -4 0 -4 0 -4 0 -3 0 -4 0 -4 0 -4 0 -4 0 -4 0 -3 0 -4 0 -4 0 -4 0 -4 0 -4 0 -3 0 -4 0 -4 0 -4 0 -4 0 -4 0 -4 0 -3 0 -4 0 -4 0 -4 0 -4 0 -4 0 -3 0 -4 0 -4 0 -4 0 -4 0 -4 0 -4 0 -3 0 -9 0 0 -812 9 0 3 0 4 0 4 0 4 0 4 0 4 0 4 0 3 0 4 0 4 0 4 0 4 0 4 0 3 0 4 0 4 0 4 0 4 0 4 0 4 0 3 0 4 0 4 0 4 0 4 0 4 0 3 0 4 0 4 0 4 0 4 0 4 0 3 0 4 0 4 0 4 0 4 0 4 0 4 0 3 0 4 0 4 0 4 0 4 0 4 0 3 0 4 0 4 0 4 0 4 0 4 0 3 0 4 0 4 0 4 0 4 0 4 0 4 0 3 0 4 0 4 0 4 0 4 0 4 0 3 0 4 0 4 0 4 0 4 0 4 0 4 0 3 0 4 0 4 0 4 0 4 0 4 0 3 0 4 0 4 0 4 0 4 0 4 0 3 0 5 0 3 0 4 0 4 0 4 0 4 0 4 0 3 0 4 0 4 0 4 0 4 0 4 0 3 0 4 0 4 0 4 0 4 0 4 0 4 0 3 0 4 0 4 0 4 0 4 0 4 0 3 0 4 0 4 0 4 0 4 0 4 0 4 0 3 0 4 0 4 0 4 0 4 0 4 0 3 0 4 0 4 0 4 0 4 0 4 0 3 0 4 0 4 0 4 0 4 0 4 0 4 0 3 0 4 0 4 0 4 0 4 0 4 0 3 0 4 0 4 0 4 0 4 0 4 0 4 0 3 0 4 0 4 0 4 0 4 0 4 0 3 0 4 0 4 0 2 0 2 0 4 0 4 0c1,0 2,0 3,0 2,0 3,0 4,0l4 0 4 0 4 -1 4 0 4 0c1,0 2,-1 3,-1 2,0 3,0 4,0l4 -1c1,0 3,0 4,0 1,0 2,-1 4,-1 1,0 2,0 4,0l3 -1 4 -1c2,0 3,0 4,0 1,-1 3,-1 4,-1l4 -1c1,0 2,-1 4,-1 1,0 2,0 3,-1 2,0 3,0 4,-1 2,0 3,0 4,-1 1,0 3,-1 4,-1 1,0 3,-1 4,-1l4 -1c1,-1 2,-1 4,-2 1,0 2,0 3,-1 2,0 3,-1 4,-1 2,-1 3,-1 4,-2 1,0 3,-1 4,-1 1,-1 2,-1 4,-2 1,0 2,-1 4,-1 1,-1 2,-2 3,-2 2,-1 3,-1 4,-2 2,-1 3,-1 4,-2 1,-1 3,-1 4,-2 1,0 3,-1 4,-2 1,-1 2,-1 4,-2 1,-1 2,-1 4,-2 1,-1 2,-2 3,-3 2,0 3,-1 4,-2 1,-1 3,-2 4,-2 1,-1 3,-2 4,-3 1,-1 2,-2 4,-3 1,-1 2,-2 4,-3 1,-1 2,-2 3,-3 2,-1 3,-2 4,-3 2,-1 3,-3 4,-3 1,-2 3,-3 4,-4 1,-1 3,-3 4,-4 1,-1 2,-3 4,-4 1,-1 2,-3 3,-4 2,-2 3,-3 5,-5 1,-1 2,-3 3,-5 1,-1 3,-3 4,-5 2,-2 3,-3 4,-5 1,-2 2,-4 4,-6 1,-3 3,-5 4,-7 1,-3 2,-5 4,-8 1,-3 2,-6 3,-8 2,-4 3,-7 4,-11 2,-4 3,-8 4,-13 2,-7 3,-13 4,-20 1,-8 2,-17 2,-26 0,-8 -1,-17 -2,-25 -1,-6 -2,-13 -4,-19 -1,-4 -2,-9 -4,-13 -1,-3 -2,-6 -4,-10 -1,-2 -2,-5 -3,-8 -2,-2 -3,-5 -4,-7 -1,-3 -3,-5 -4,-7 -2,-2 -3,-4 -4,-6 -1,-2 -2,-3 -4,-5 -1,-2 -3,-4 -4,-5 -1,-2 -2,-3 -3,-5 -2,-1 -3,-3 -5,-4 -1,-2 -2,-3 -3,-4 -2,-2 -3,-3 -4,-4 -1,-1 -3,-3 -4,-4 -1,-1 -3,-2 -4,-3 -1,-1 -2,-3 -4,-3 -1,-2 -2,-3 -4,-4 -1,0 -2,-2 -3,-3 -2,-1 -3,-2 -4,-2 -2,-1 -3,-2 -4,-3 -1,-1 -3,-2 -4,-3 -1,-1 -3,-1 -4,-2 -1,-1 -2,-2 -4,-2 -1,-1 -2,-2 -3,-3 -2,-1 -3,-1 -4,-2 -2,-1 -3,-1 -4,-2 -1,-1 -3,-1 -4,-2 -1,-1 -3,-1 -4,-2 -1,-1 -2,-1 -4,-2 -1,0 -2,-1 -4,-1 -1,-1 -2,-2 -3,-2 -2,-1 -3,-1 -4,-2 -2,0 -3,-1 -4,-1 -1,-1 -3,-1 -4,-2 -1,0 -2,-1 -4,-1 -1,-1 -2,-1 -4,-2 -1,0 -2,0 -3,-1 -2,0 -3,-1 -4,-1 -2,-1 -3,-1 -4,-1l-4 -1c-1,-1 -3,-1 -4,-2 -1,0 -2,0 -4,-1 -1,0 -2,0 -4,0 -1,-1 -2,-1 -3,-1 -2,-1 -3,-1 -4,-1 -1,-1 -3,-1 -4,-1 -1,0 -3,-1 -4,-1l-4 -1 -4 0c-1,0 -2,-1 -3,-1l-4 -1c-2,0 -3,0 -4,0l-4 -1 -4 0 -4 -1 -3 0 -4 0 -4 -1 -4 0 0 -4 4 -1 4 -1c1,0 2,0 4,0l3 -1c2,0 3,-1 4,-1l4 -1c1,0 3,0 4,-1 1,0 2,0 4,-1 1,0 2,0 4,-1 1,0 2,0 3,-1 2,0 3,0 4,-1 2,0 3,-1 4,-1 1,0 3,-1 4,-1 1,-1 3,-1 4,-2 1,0 2,0 4,-1 1,0 2,-1 3,-2 2,0 3,-1 4,-1 2,0 3,-1 4,-2 1,0 3,-1 4,-1 1,-1 3,-2 4,-2 1,-1 2,-1 4,-2 1,-1 2,-1 4,-2 1,-1 2,-1 3,-2 2,-1 3,-2 4,-2 2,-1 3,-2 4,-3 1,0 3,-1 4,-2 1,-1 3,-2 4,-3 1,-1 2,-1 4,-2 1,-1 2,-2 3,-3 2,-1 3,-2 4,-3 2,-1 3,-2 4,-3 1,-1 3,-2 4,-3 1,-2 3,-3 4,-4 1,-1 2,-3 4,-4 1,-1 2,-2 4,-3 1,-2 2,-3 3,-5 2,-1 3,-3 4,-4 2,-2 3,-3 4,-5 1,-2 3,-3 4,-5 1,-2 2,-4 4,-6 1,-2 2,-4 4,-6 1,-2 2,-4 3,-6 2,-3 3,-6 4,-8 2,-3 3,-6 4,-9 1,-3 3,-7 4,-10 2,-5 3,-10 4,-14 2,-8 3,-15 4,-23 0,-6 1,-12 1,-19 0,-6 -1,-12 -1,-19 -1,-8 -2,-15 -4,-23 -1,-4 -2,-9 -4,-13 -1,-4 -3,-8 -4,-11 -1,-3 -2,-6 -4,-9 -1,-2 -2,-5 -4,-7 -1,-2 -2,-5 -3,-7 -2,-2 -3,-4 -4,-6 -2,-2 -3,-3 -4,-5 -1,-2 -3,-4 -4,-5 -1,-2 -2,-3 -4,-5 -1,-1 -2,-3 -4,-4 -1,-1 -2,-3 -3,-4 -2,-1 -3,-3 -4,-4 -2,-1 -3,-2 -4,-4 -1,-1 -3,-2 -4,-3 -1,-1 -3,-2 -4,-3 -1,-1 -2,-2 -4,-3 -1,-1 -2,-2 -4,-3 -1,-1 -2,-2 -3,-3 -2,-1 -3,-1 -4,-2 -1,-1 -3,-2 -4,-3 -1,0 -3,-1 -4,-2 -1,-1 -2,-1 -4,-2 -1,-1 -2,-1 -4,-2 -1,-1 -2,-2 -3,-2 -2,-1 -3,-2 -4,-2 -2,-1 -3,-1 -4,-2 -1,-1 -3,-1 -4,-2 -1,0 -3,-1 -4,-1 -1,-1 -2,-2 -4,-2 -1,-1 -2,-1 -4,-2 -1,0 -2,-1 -3,-1 -2,-1 -3,-1 -4,-2 -1,0 -3,0 -4,-1 -1,0 -3,-1 -4,-1 -1,0 -2,-1 -4,-1 -1,-1 -2,-1 -4,-1 -1,-1 -2,-1 -3,-2 -2,0 -3,0 -4,0l-4 -1c-1,-1 -3,-1 -4,-1 -1,-1 -2,-1 -4,-1l-4 -1c-1,0 -2,-1 -3,-1 -2,0 -3,0 -4,-1l-4 0c-1,0 -3,-1 -4,-1l-4 -1 -4 0 -4 -1 -3 0 -4 0 -4 -1 -4 0 -4 0 -4 -1 -3 0 -2 0 -2 0 -4 0 -4 -1 -4 0 -4 0 -3 0 -4 0 -4 0 -4 -1 -4 0 -2 0 -2 0 -4 0 -3 0 -4 0 -4 0 -4 0 -4 0 -4 0 -3 0 -4 0 -4 0 -4 0 -4 0 -4 0 -4 0 -3 0 -4 0 -4 0 -4 0 -4 0 -4 0 -3 0 -4 0 -4 0 -4 0 -4 0 -4 0 -3 0 -4 0 -4 0 -4 0 -4 0 -4 0 -4 0 -3 0 -4 0 -4 0 -4 0 -4 0 -4 0 -3 0 -4 0 -4 0 -4 0 -4 0 -4 0 -4 0 -3 0 -4 0 -4 0 -4 0 -4 0 -4 0 -3 0 -4 0 -4 0 -4 0 -4 0 -4 0 -3 0 -5 0 -3 0 -4 0 -4 0 -4 0 -4 0 -4 0 -3 0 -4 0 -4 0 -4 0 -4 0 -4 0 -3 0 -4 0 -4 0 -4 0 -4 0 -4 0 -4 0 -3 0 -4 0 -4 0 -4 0 -4 0 -4 0 -3 0 -4 0 -4 0 -4 0 -4 0 -4 0 -4 0 -3 0 -4 0 -4 0 -4 0 -4 0 -4 0 -3 0 -4 0 -4 0 -4 0 -4 0 -4 0 -3 0 -4 0 -4 0 -4 0 -4 0 -4 0 -4 0 -3 0 -4 0 -4 0 -4 0 -4 0 -4 0 -3 0 -4 0 -4 0 -4 0 -4 0 -4 0 -3 0 -4 0 -4 0 -4 0 -4 0 -4 0 -4 0 -3 0 -4 0 -4 0 -4 0 -4 0 -4 0 -3 0 -4 0 -4 0 -4 0 -4 0 -4 0 -4 0 -3 0 -9 0 0 -413c0,-28 3,-55 9,-81 1,-6 2,-12 3,-17 2,-5 3,-9 4,-14 2,-4 3,-8 4,-13 1,-3 3,-7 4,-11 1,-3 3,-7 4,-10 1,-3 2,-6 4,-9 1,-3 2,-6 4,-9 1,-3 2,-6 3,-8 2,-3 3,-6 4,-8 1,-3 3,-5 4,-8 1,-2 3,-4 4,-7 1,-2 2,-4 4,-6 1,-2 2,-5 4,-7 1,-2 2,-4 3,-6 2,-2 3,-4 4,-6 2,-2 3,-4 4,-6 1,-1 3,-3 4,-5 1,-2 3,-4 4,-5 1,-2 2,-4 4,-5 1,-2 2,-4 4,-5 1,-2 2,-4 3,-5 2,-2 3,-3 4,-5 1,-1 3,-3 4,-4 1,-2 3,-3 4,-5 1,-1 2,-3 4,-4 1,-2 2,-3 4,-4 1,-2 2,-3 3,-4 2,-2 3,-3 4,-4 2,-1 3,-3 4,-4 1,-1 3,-2 4,-4 1,-1 2,-2 4,-3 1,-2 2,-3 4,-4 1,-1 2,-2 3,-3 2,-1 3,-2 4,-4 2,-1 3,-2 4,-3 1,-1 3,-2 4,-3 1,-1 3,-2 4,-3l4 -3 4 -3c1,-1 2,-2 3,-3 2,-1 3,-2 4,-3l4 -3c1,0 3,-1 4,-2l4 -3 4 -2c1,-1 2,-2 3,-3l4 -2c2,-1 3,-2 4,-2 1,-1 3,-2 4,-3 1,-1 3,-1 4,-2 1,-1 2,-2 4,-2 1,-1 2,-2 3,-2 2,-1 3,-2 4,-2 2,-1 3,-2 4,-2 1,-1 3,-2 4,-2 1,-1 3,-2 4,-2l4 -2c1,-1 2,-1 4,-2 1,-1 2,-1 3,-2 2,0 3,-1 4,-1 2,-1 3,-2 4,-2 1,-1 3,-1 4,-2 1,0 2,-1 4,-1l4 -2 3 -1c2,-1 3,-1 4,-2 2,0 3,-1 4,-1 1,-1 3,-1 4,-1 1,-1 3,-1 4,-2l4 -1c1,0 2,-1 4,-1 1,-1 2,-1 3,-1 2,-1 3,-1 4,-1 1,-1 3,-1 4,-1 2,-1 3,-1 4,-2l4 0c1,-1 2,-1 4,-1 1,-1 2,-1 3,-1 2,-1 3,-1 4,-1l4 -1 4 -1c1,0 3,0 4,0 1,-1 3,-1 4,-1 1,0 2,-1 3,-1l5 -1c1,0 2,0 3,0 1,0 3,-1 4,-1 1,0 3,0 4,0 1,0 3,0 4,-1l4 0c1,0 2,0 4,-1 1,0 2,0 3,0l4 0 4 -1c1,0 3,0 4,0 1,0 3,0 4,0 1,0 2,0 4,0l3 0c2,0 3,0 4,-1 2,0 3,0 4,0 1,0 3,0 4,0l1 0 3 0 4 0 4 0 3 0 4 0 4 0 4 0 4 0 4 0 3 0 4 0 4 0 4 0 4 0 4 0 4 0 3 0 4 0 4 0 4 0 4 0 4 0 3 0 4 0 4 0 4 0 4 0 4 0 3 0 4 0 4 0 4 0 4 0 4 0 4 0 3 0 4 0 4 0 4 0 4 0 4 0 3 0 4 0 4 0 4 0 4 0 4 0 4 0 3 0 4 0 4 0 4 0 4 0 4 0 3 0 4 0 4 0 4 0 4 0 4 0 3 0 4 0 4 0 4 0 4 0 4 0 4 0 3 0 4 0 4 0 4 0 4 0 4 0 3 0 4 0 4 0 4 0 4 0 4 0 3 0 4 0 4 0 4 0 4 0 4 0 4 0 3 0 4 0 4 0 4 0 4 0 4 0 3 0 4 0 4 0 4 0 4 0 4 0 4 0 3 0 4 0 4 0 4 0 4 0 4 0 3 0 4 0 4 0 4 0 4 0 4 0 3 0 5 0 3 0 4 0 4 0 4 0 4 0 4 0 3 0 4 0 4 0 4 0 4 0 3 0 4 0 4 0 4 0 4 0 4 0 4 0 4 0 3 0 4 0 4 0 4 0 4 0 4 0 3 0 4 0 4 0 4 0 4 0 4 0 4 0 3 0 4 0 4 0 4 0 4 0 4 0 3 0z"/>
  <path class="fil0" d="M37488 1566c-2,-1 -5,-2 -8,-3l0 -984c0,-28 3,-55 8,-81 2,-6 3,-11 4,-17 2,-5 3,-9 4,-14 1,-4 3,-8 4,-12 1,-4 3,-8 4,-12 1,-3 2,-6 4,-10 1,-3 2,-6 4,-9 1,-3 2,-6 3,-9 2,-3 3,-6 4,-8 1,-3 3,-5 4,-8 1,-2 3,-5 4,-7 1,-3 2,-5 4,-7 1,-3 2,-5 4,-7 1,-2 2,-4 3,-6 2,-3 3,-5 4,-7 1,-2 3,-4 4,-6 1,-1 3,-3 4,-5 1,-2 2,-4 4,-6 1,-2 2,-3 4,-5 1,-2 2,-3 3,-5 2,-2 3,-3 4,-5 2,-2 3,-3 4,-5 1,-2 3,-3 4,-5 1,-1 2,-3 4,-4 1,-2 2,-3 4,-5 1,-1 2,-2 3,-4 2,-1 3,-3 4,-4 2,-1 3,-3 4,-4 1,-1 3,-3 4,-4 1,-1 3,-2 4,-4 1,-1 2,-2 4,-4 1,-1 2,-2 3,-3 2,-1 3,-2 4,-4 2,-1 3,-2 4,-3 1,-1 3,-2 4,-3 1,-2 3,-2 4,-4 1,-1 2,-2 4,-3 1,-1 2,-2 3,-3 2,-1 3,-2 4,-3 2,-1 3,-2 4,-3 1,-1 3,-2 4,-3l4 -2c1,-1 2,-2 4,-3 1,-1 2,-2 4,-3 1,-1 2,-2 3,-2 2,-1 3,-2 4,-3 1,-1 3,-2 4,-2 1,-1 3,-2 4,-3 1,-1 2,-1 4,-2 1,-1 2,-2 4,-3 1,0 2,-1 3,-2 2,-1 3,-1 4,-2 1,-1 3,-2 4,-2 1,-1 3,-1 4,-2 1,-1 2,-2 4,-2 1,-1 2,-1 4,-2l3 -2c2,-1 3,-1 4,-2 2,-1 3,-1 4,-2 1,0 3,-1 4,-1 1,-1 2,-2 4,-2 1,-1 2,-1 4,-2 1,-1 2,-1 3,-1l4 -2 4 -2 4 -1c1,0 2,-1 4,-1 1,-1 2,-1 4,-2 1,0 2,-1 3,-1l4 -1 4 -2c1,0 3,-1 4,-1 1,0 3,-1 4,-1 1,0 2,-1 4,-1 1,-1 2,-1 3,-1l4 -1c2,-1 3,-1 4,-1 1,-1 3,-1 4,-1 1,-1 3,-1 4,-1 1,0 2,-1 4,-1l4 -1c1,0 2,-1 3,-1 2,0 3,0 4,0 1,-1 3,-1 4,-1 1,0 3,-1 4,-1l4 0c1,-1 2,-1 4,-1 1,0 2,-1 3,-1 2,0 3,0 4,0l4 -1 4 0c1,0 2,0 4,0 1,-1 2,-1 4,-1l3 0c2,0 3,0 4,0 2,-1 3,-1 4,-1 1,0 3,0 4,0 1,0 2,0 4,0l4 0c1,0 2,0 3,-1 2,0 3,0 4,0 2,0 3,0 4,0l2 0 2 0 4 0 4 0 3 0 4 0 4 0 4 0 4 0 4 0 3 0 4 0 4 0 4 0 4 0 4 0 4 0 3 0 4 0 4 0 4 0 4 0 4 0 3 0 4 0 4 0 4 0 4 0 4 0 3 0 4 0 4 0 4 0 4 0 4 0 3 0 4 0 4 0 4 0 4 0 4 0 3 0 4 0 4 0 4 0 4 0 4 0 3 0 4 0 4 0 4 0 4 0 4 0 3 0 4 0 4 0 4 0 4 0 4 0 4 0 3 0 4 0 4 0 4 0 4 0 4 0 3 0 4 0 4 0 4 0 4 0 4 0 3 0 4 0 4 0 4 0 4 0 4 0 3 0 4 0 4 0 4 0 4 0 4 0 3 0 4 0 4 0 4 0 4 0 4 0 3 0 4 0 4 0 4 0 4 0 4 0 4 0 3 0 4 0 4 0 4 0 4 0 4 0 3 0 4 0 4 0 4 0 4 0 4 0 3 0 4 0 4 0 4 0 4 0 4 0 3 0 4 0 4 0 4 0 4 0 4 0 3 0 4 0 4 0 4 0 4 0 4 0 3 0 5 0 3 0 4 0 4 0 4 0 4 0 4 0 3 0 4 0 4 0 4 0 4 0 4 0 3 0 4 0 4 0 4 0 4 0 4 0 3 0 4 0 4 0 4 0 4 0 3 0 4 0 0 1992c0,17 -1,35 -4,51 0,8 -2,16 -3,24 -1,6 -3,12 -4,18 -1,5 -3,10 -4,15 -1,4 -2,9 -4,13 -1,4 -2,7 -4,11 -1,4 -2,7 -3,11 -2,3 -3,6 -4,9 -1,3 -3,6 -4,9 -2,3 -3,6 -4,9 -1,2 -2,5 -4,8 -1,2 -2,4 -4,7 -1,2 -2,5 -3,7 -2,3 -3,5 -4,7 -2,2 -3,4 -4,6 -2,3 -3,5 -4,7 -1,2 -2,4 -4,6 -1,2 -3,4 -4,6 -1,1 -2,3 -3,5 -2,2 -3,4 -4,5 -2,2 -3,4 -4,6 -2,1 -3,3 -4,5 -1,1 -3,3 -4,4 -1,2 -3,4 -4,5 -1,2 -2,3 -3,5 -2,1 -3,3 -5,4 -1,2 -2,3 -3,4 -1,2 -3,3 -4,5 -1,1 -3,2 -4,4 -1,1 -3,2 -4,4 -1,1 -2,2 -4,3 -1,2 -2,3 -4,4 -1,1 -2,3 -3,4 -1,1 -3,2 -4,3 -1,2 -3,3 -4,4 -1,1 -3,2 -4,3 -1,1 -2,2 -4,4 -1,1 -2,2 -4,3 -1,1 -2,2 -3,3 -1,1 -3,2 -4,3 -2,1 -3,2 -4,3 -1,1 -3,2 -4,3 -1,1 -2,2 -4,3 -1,1 -2,2 -4,2 -1,1 -2,2 -3,3 -2,1 -3,2 -4,3 -2,1 -3,1 -4,2 -1,1 -3,2 -4,3 -1,1 -3,1 -4,2 -1,1 -2,2 -4,3 -1,0 -2,1 -3,2 -2,0 -3,1 -4,2 -2,1 -3,2 -4,2 -1,1 -2,2 -4,2 -1,1 -3,2 -4,3l-4 1c-1,1 -2,2 -3,3 -2,0 -3,1 -4,1 -2,1 -3,2 -4,2 -1,1 -3,2 -4,2 -1,1 -3,1 -4,2 -1,0 -2,1 -4,2l-4 1 -3 2c-2,0 -3,1 -4,2 -1,0 -3,1 -4,1 -1,0 -3,1 -4,1 -1,1 -2,1 -4,2 -1,0 -2,1 -4,1l-3 2 -4 1c-1,0 -3,1 -4,1 -1,1 -3,1 -4,1 -1,1 -2,1 -4,2l-4 1 -3 1c-2,0 -3,0 -4,1 -2,0 -3,1 -4,1 -1,0 -3,1 -4,1 -1,0 -2,1 -4,1l-4 1 -3 0c-2,1 -3,1 -4,1 -2,1 -3,1 -4,1 -1,0 -3,1 -4,1l-4 1c-1,0 -2,0 -4,0 -1,0 -2,0 -3,1 -2,0 -3,0 -4,0l-4 1c-1,0 -3,0 -4,0 -1,1 -3,1 -4,1 -1,0 -2,0 -4,0 -1,0 -2,1 -3,1l-4 0c-2,0 -3,0 -4,0 -1,1 -3,1 -4,1l-4 0 -4 0c-1,0 -2,0 -4,0 -1,0 -2,0 -3,0 -2,0 -3,0 -4,0l-4 0c-1,0 -2,0 -3,0l-1 0 -4 0 -4 0 -3 0 -4 0 -4 0 -4 0 -4 0 -4 0 -3 0 -4 0 -4 0 -4 0 -4 0 -4 0 -3 0 -4 0 -4 0 -4 0 -4 0 -4 0 -3 0 -4 0 -4 0 -4 0 -4 0 -4 0 -3 0 -4 0 -4 0 -4 0 -4 0 -4 0 -3 0 -4 0 -4 0 -4 0 -4 0 -4 0 -4 0 -3 0 -4 0 -4 0 -4 0 -4 0 -4 0 -3 0 -4 0 -4 0 -4 0 -4 0 -4 0 -3 0 -4 0 -4 0 -4 0 -4 0 -4 0 -3 0 -4 0 -4 0 -4 0 -4 0 -4 0 -3 0 -4 0 -4 0 -4 0 -4 0 -4 0 -3 0 -4 0 -4 0 -4 0 -4 0 -4 0 -4 0 -3 0 -4 0 -4 0 -4 0 -4 0 -4 0 -3 0 -4 0 -4 0 -4 0 -4 0 -4 0 -3 0 -4 0 -4 0 -4 0 -4 0 -4 0 -3 0 -4 0 -4 0 -4 0 -4 0 -4 0 -3 0 -4 0 -4 0 -4 0 -4 0 -4 0 -3 0 -4 0 -4 0 -4 0 -4 0 -4 0 -4 0 -3 0 -4 0 -4 0 -4 0 -4 0 -4 0 -3 0 -4 0 -4 0 -4 0 -4 0 -4 0 -3 0 -4 0 -4 0 -4 0 -4 0 -4 0 -3 0 -4 0 -4 0 -4 0 -4 0 -4 0 -3 0 -4 0 -4 0 -4 0 -4 0 -4 0 -3 0 -4 0 -4 0 -4 0 -4 0 -4 0 -4 0 -8 0 0 -839c0,0 3,1 8,2l4 1 4 1 4 1 4 1 4 1 4 1 3 0 4 1 4 1 4 1 4 1 4 1 3 0 4 1 4 1 4 1 4 1 4 0 3 1 4 1 4 0 4 1 4 1 4 1 3 0 4 1 4 1 4 0 4 1 4 1 3 0 4 1 4 0 4 1 4 1 4 0 3 1 4 0 4 1 4 0 4 1 4 0 4 1 3 1 4 0 4 1 4 0 4 1 4 0 3 0 4 1 4 0 4 1 4 0 4 1 3 0 4 1 4 0 4 1 4 0 4 0 3 0 4 1 4 0 4 1 4 0 4 0 3 1 4 0 4 0 4 1 4 0 4 0 3 0 4 1 4 0 4 0 4 0 4 1 4 0 3 0 4 0 4 0 4 1 4 0 4 0 3 0 4 0 4 0 4 1 4 0 4 0 3 0 4 0 4 0 4 0 4 0 4 0 3 0 4 0 4 1 4 0 4 0 4 0 1 0 2 0 4 0 4 0 4 -1 4 0 4 0 3 0 4 0 4 0 4 0 4 0 4 0 4 0 3 0 4 -1 4 0 4 0 4 0 4 0 3 -1 4 0 4 0 4 0 4 -1 4 0 3 0 4 -1 4 0 4 0 4 0 4 -1 3 0 4 -1 4 0 4 0 4 -1 4 0 3 -1 4 0 4 -1 4 0 4 -1c1,0 2,0 4,0l3 -1 4 -1 4 0c1,0 3,-1 4,-1l4 0c1,-1 2,-1 4,-1 1,0 2,-1 3,-1l4 -1 4 0 4 -1c1,0 3,-1 4,-1l4 0 4 -1c1,-1 2,-1 3,-1l4 -1c1,0 3,-1 4,-1 1,0 3,0 4,-1l4 -1c1,0 2,0 4,-1 1,0 2,-1 3,-1l4 -1c1,0 3,0 4,-1 1,0 3,-1 4,-1l4 -1c1,0 2,-1 4,-1l3 -1 4 -2c2,0 3,0 4,-1l4 -1 4 -1c1,-1 2,-1 4,-2 1,0 2,-1 3,-1l4 -1c2,-1 3,-1 4,-2 1,0 3,-1 4,-1 1,-1 3,-1 4,-2l4 -1 3 -2c2,-1 3,-1 4,-2 2,0 3,-1 4,-1l4 -2 4 -2c1,0 2,-1 4,-2 1,0 2,-1 3,-1 2,-1 3,-2 4,-3 2,0 3,-1 4,-2 1,0 3,-1 4,-2 1,0 3,-1 4,-2 1,0 2,-1 4,-2 1,-1 2,-1 4,-2 1,-1 2,-2 3,-2 2,-1 3,-2 4,-3 1,-1 3,-1 4,-2 2,-1 3,-2 4,-3 1,-1 2,-1 4,-2 1,-1 2,-2 4,-3 1,-1 2,-2 3,-3 2,-1 3,-2 4,-3 2,-1 3,-2 4,-3 1,-1 3,-2 4,-3 1,-1 2,-2 4,-3 1,-1 3,-2 4,-3 1,-1 2,-3 3,-4 2,-1 3,-2 4,-3 2,-2 3,-3 4,-4 1,-1 3,-3 4,-4 1,-1 2,-3 4,-4 1,-1 3,-3 4,-4 1,-2 2,-3 3,-5 2,-1 3,-3 4,-4 2,-2 3,-4 4,-5 1,-2 3,-4 4,-5 1,-2 3,-4 4,-6 1,-2 3,-4 4,-6 1,-2 2,-4 3,-6 2,-2 3,-4 4,-6 2,-3 3,-5 4,-7 1,-3 3,-5 4,-8 1,-3 3,-6 4,-8 1,-3 3,-7 4,-10 1,-3 2,-6 3,-10 2,-4 3,-8 5,-12 1,-5 2,-9 3,-14 2,-6 3,-12 4,-18 2,-9 3,-18 4,-28 1,-13 2,-26 2,-39l0 -463 -2 0 -4 0 -4 0 -3 0 -5 0 -3 0 -4 0 -4 0 -4 0 -4 0 -4 0 -3 0 -4 0 -4 0 -4 0 -4 0 -4 0 -3 0 -4 0 -4 0 -4 0 -4 0 -4 0 -3 0 -4 0 -4 0 -4 0 -4 0 -4 0 -3 0 -4 0 -4 0 -4 0 -4 0 -4 0 -3 0 -4 0 -4 0 -4 0 -4 0 -4 0 -4 0 -3 0 -4 0 -4 0 -4 0 -4 0 -4 0 -3 0 -4 0 -4 0 -4 0 -4 0 -4 0 -3 0 -4 0 -4 0 -4 0 -4 0 -4 0 -3 0 -4 0 -4 0 -4 0 -4 0 -4 0 -3 0 -4 0 -4 0 -4 0 -4 0 -4 0 -3 0 -4 0 -4 0 -4 0 -4 0 -4 0 -4 0 -3 0 -4 0 -4 0 -4 0 -4 0 -4 0 -3 0 -4 0 -4 0 -4 0 -3 0 0 463c0,7 0,14 -1,21 0,9 -2,18 -4,26 0,5 -2,10 -3,15 -2,4 -3,8 -4,12 -1,3 -3,7 -4,10 -1,3 -3,5 -4,8 -1,3 -2,5 -4,8 -1,2 -2,4 -4,6 -1,2 -2,4 -3,6 -2,2 -3,4 -4,6 -2,2 -3,3 -4,5 -1,2 -3,3 -4,5 -1,1 -2,3 -4,4 -1,2 -2,3 -4,4 -1,2 -2,3 -3,4 -2,2 -3,3 -4,4 -2,1 -3,2 -4,3 -1,1 -3,3 -4,4 -1,1 -3,2 -4,3 -1,1 -2,2 -4,2 -1,1 -2,2 -3,3 -2,1 -3,2 -4,3 -2,1 -3,2 -4,2 -1,1 -3,2 -4,3 -1,0 -3,1 -4,2 -1,1 -2,1 -4,2 -1,1 -2,1 -3,2 -2,1 -3,1 -4,2 -2,0 -3,1 -4,2 -1,0 -3,1 -4,1 -1,1 -3,1 -4,2 -1,0 -2,1 -4,1 -1,1 -2,1 -4,2 -1,0 -2,0 -3,1 -2,0 -3,1 -4,1 -1,1 -3,1 -4,1 -1,1 -3,1 -4,2 -1,0 -2,0 -4,0 -1,1 -2,1 -4,1 -1,1 -2,1 -3,1 -2,1 -3,1 -4,1 -1,1 -3,1 -4,1 -1,0 -3,1 -4,1 -1,0 -2,0 -4,0l-4 1c-1,0 -2,0 -3,0 -2,1 -3,1 -4,1l-4 0c-1,0 -3,1 -4,1 -1,0 -2,0 -4,0 -1,0 -2,0 -4,0 -1,0 -2,1 -3,1 -2,0 -3,0 -4,0 -2,0 -3,0 -4,0l-4 0c-1,0 -3,0 -4,0l-1 0 -3 0 -3 0 -4 0 -4 0 -4 0 -4 0 -4 -1 -3 0 -4 0 -4 0 -4 0 -4 -1 -4 0 -4 0 -3 -1 -4 0 -4 -1 -4 0 -4 0 -4 -1 -3 0 -4 -1 -4 0 -4 -1 -4 0 -4 -1 -3 -1 -4 0 -4 -1 -4 -1 -4 0 -4 -1 -3 -1 -4 -1 -4 0 -4 -1 -4 -1 -4 -1 -3 -1 -4 -1 -4 -1 -4 -1 -4 -1 -4 -1 -3 -1 -4 -1 -4 -1 -4 -1 -4 -1 -4 -1 -4 -1 -3 -1 -4 -1 -4 -2 -4 -1 -4 -1 -4 -1 -3 -2 -4 -1 -4 -1 -4 -2 -4 -1 -4 -1 -3 -2 -4 -1 -4 -2 -4 -1 -4 -1 -4 -2 -3 -1 -4 -2 -4 -2 -4 -1 -4 -2 -4 -1 -3 -2 -4 -1 -4 -2 -4 -2 -4 -1 -4 -2 -3 -2 -4 -2 -4 -1 -4 -2 -4 -2 -4 -2 -4 -2z"/>
  <path class="fil0" d="M38591 1093c-3,3 -6,5 -9,7l0 -521c0,-28 3,-55 9,-81 1,-6 2,-11 3,-17 2,-5 3,-9 4,-14 1,-4 3,-8 4,-12 1,-4 3,-8 4,-11 1,-4 2,-7 4,-11 1,-3 2,-6 4,-9 1,-3 2,-6 3,-9 2,-3 3,-6 4,-8 2,-3 3,-5 4,-8 1,-2 3,-5 4,-7 1,-3 2,-5 4,-7 1,-3 2,-5 4,-7 1,-2 2,-4 3,-6 2,-3 3,-5 4,-7 2,-2 3,-4 4,-6 1,-1 3,-3 4,-5 1,-2 3,-4 4,-6 1,-2 2,-3 4,-5 1,-2 2,-3 3,-5 2,-2 3,-3 4,-5 2,-2 3,-3 4,-5 1,-2 3,-3 4,-5 1,-1 3,-3 4,-4 1,-2 2,-3 4,-5 1,-1 2,-2 4,-4 1,-1 2,-3 3,-4 2,-1 3,-3 4,-4 1,-1 3,-3 4,-4 1,-1 3,-2 4,-4 1,-1 2,-2 4,-3 1,-2 2,-3 4,-4 1,-1 2,-2 3,-3 2,-2 3,-3 4,-4 1,-1 3,-2 4,-3 1,-2 3,-2 4,-4 1,-1 2,-2 4,-3 1,-1 2,-2 4,-3 1,-1 2,-2 3,-3 2,-1 3,-2 4,-3 2,-1 3,-2 4,-3 1,-1 3,-1 4,-2 1,-1 2,-2 4,-3 1,-1 2,-2 4,-3 1,-1 2,-2 3,-2 2,-1 3,-2 4,-3 2,-1 3,-2 4,-2 1,-1 3,-2 4,-3 1,-1 2,-1 4,-2 1,-1 2,-2 4,-3 1,0 2,-1 3,-2 2,-1 3,-1 4,-2 2,-1 3,-2 4,-2 1,-1 3,-1 4,-2 1,-1 3,-2 4,-2l4 -2 3 -2c2,-1 3,-1 4,-2 2,-1 3,-1 4,-2 1,0 3,-1 4,-1 1,-1 3,-2 4,-2 1,-1 2,-1 4,-2 1,0 2,-1 4,-1l3 -2c2,-1 3,-1 4,-2 1,0 3,0 4,-1 1,0 3,-1 4,-1 1,-1 2,-1 4,-2 1,0 2,-1 4,-1 1,-1 2,-1 3,-1l4 -2c1,0 3,-1 4,-1 1,0 3,-1 4,-1 1,0 2,-1 4,-1 1,-1 2,-1 4,-1l3 -1c2,-1 3,-1 4,-1 2,-1 3,-1 4,-1 1,-1 3,-1 4,-1 1,0 2,-1 4,-1l4 -1c1,0 2,-1 3,-1 2,0 3,0 4,0 2,-1 3,-1 4,-1l4 -1 4 0c1,-1 2,-1 4,-1 1,0 2,-1 3,-1 2,0 3,0 4,0l4 -1 4 0c1,0 3,0 4,0 1,-1 2,-1 4,-1l3 0c2,0 3,0 4,0 2,-1 3,-1 4,-1 1,0 3,0 4,0 1,0 3,0 4,0l4 0c1,0 2,0 4,0 1,-1 2,-1 3,-1 2,0 3,0 4,0l2 0 2 0 4 0 4 0 4 0 3 0 4 0 4 0 4 0 4 0 4 0 3 0 4 0 4 0 4 0 4 0 4 0 3 0 4 0 4 0 4 0 4 0 4 0 3 0 4 0 4 0 4 0 4 0 4 0 3 0 4 0 4 0 4 0 4 0 4 0 4 0 3 0 4 0 4 0 4 0 4 0 4 0 3 0 4 0 4 0 4 0 4 0 4 0 3 0 4 0 4 0 4 0 4 0 4 0 3 0 4 0 4 0 4 0 4 0 4 0 3 0 4 0 4 0 4 0 4 0 4 0 3 0 4 0 4 0 4 0 4 0 4 0 4 0 3 0 4 0 4 0 4 0 4 0 4 0 3 0 4 0 4 0 4 0 4 0 4 0 3 0 4 0 4 0 4 0 4 0 4 0 3 0 4 0 4 0 4 0 4 0 4 0 3 0 4 0 4 0 4 0 4 0 4 0 3 0 4 0 4 0 4 0 4 0 4 0 4 0 3 0 4 0 4 0 4 0 4 0 4 0 3 0 4 0 4 0 4 0 4 0 4 0 3 0 4 0 4 0 4 0 4 0 4 0 3 0 4 0 4 0 4 0 4 0 4 0 3 0 4 0 4 0 4 0 4 0 4 0 3 0 5 0 3 0 4 0 4 0 4 0 4 0 4 0 3 0 4 0 4 0 4 0 4 0 3 0 0 1992c0,17 -1,35 -3,51 -1,8 -3,16 -4,24 -1,6 -3,12 -4,18 -1,5 -2,10 -4,15 -1,4 -2,9 -4,13 -1,4 -2,7 -3,11 -2,4 -3,7 -4,11 -2,3 -3,6 -4,9 -2,3 -3,6 -4,9 -1,3 -3,6 -4,9 -1,2 -3,5 -4,8 -1,2 -2,4 -3,7 -2,2 -3,5 -5,7 -1,3 -2,5 -3,7 -2,2 -3,4 -4,6 -1,3 -3,5 -4,7 -1,2 -3,4 -4,6 -1,2 -2,4 -4,6 -1,1 -2,3 -4,5 -1,2 -2,4 -3,5 -1,2 -3,4 -4,6 -1,1 -3,3 -4,5 -1,1 -3,3 -4,4 -1,2 -2,4 -4,5 -1,2 -2,3 -4,5 -1,1 -2,3 -3,4 -1,2 -3,3 -4,4 -2,2 -3,3 -4,5 -1,1 -3,2 -4,4 -1,1 -2,2 -4,4 -1,1 -2,2 -4,3 -1,2 -2,3 -3,4 -2,1 -3,3 -4,4 -2,1 -3,2 -4,3 -1,2 -3,3 -4,4 -1,1 -3,2 -4,3 -1,1 -2,2 -4,4 -1,1 -2,2 -3,3 -2,1 -3,2 -4,3 -2,1 -3,2 -4,3 -1,1 -3,2 -4,3 -1,1 -3,2 -4,3 -1,1 -2,2 -4,3 -1,1 -2,2 -3,2 -2,1 -3,2 -4,3 -2,1 -3,2 -4,3 -1,1 -3,1 -4,2 -1,1 -3,2 -4,3 -1,1 -2,1 -4,2 -1,1 -2,2 -4,3 -1,0 -2,1 -3,2 -2,0 -3,1 -4,2 -1,1 -3,2 -4,2l-4 2 -4 3 -4 1c-1,1 -2,2 -3,3 -2,0 -3,1 -4,1 -2,1 -3,2 -4,2 -1,1 -3,2 -4,2 -1,1 -2,1 -4,2 -1,0 -2,1 -4,2l-3 1 -4 2 -4 2c-1,0 -3,1 -4,1 -1,0 -2,1 -4,1 -1,1 -2,1 -4,2 -1,0 -2,1 -3,1l-4 2 -4 1c-1,0 -3,1 -4,1 -1,1 -3,1 -4,1 -1,1 -2,1 -4,2l-3 1 -4 1c-2,0 -3,0 -4,1 -1,0 -3,1 -4,1 -1,0 -3,1 -4,1 -1,0 -2,1 -4,1l-3 1 -4 0c-2,1 -3,1 -4,1 -1,1 -3,1 -4,1l-4 1 -4 1c-1,0 -2,0 -4,0 -1,0 -2,0 -3,1 -2,0 -3,0 -4,0l-4 1c-1,0 -3,0 -4,0 -1,1 -2,1 -4,1 -1,0 -2,0 -4,0 -1,0 -2,1 -3,1l-4 0c-2,0 -3,0 -4,0 -1,1 -3,1 -4,1l-4 0 -4 0c-1,0 -2,0 -3,0 -2,0 -3,0 -4,0 -2,0 -3,0 -4,0l-4 0c-1,0 -2,0 -4,0l0 0 -4 0 -3 0 -4 0 -4 0 -4 0 -4 0 -4 0 -3 0 -4 0 -4 0 -4 0 -4 0 -4 0 -3 0 -4 0 -4 0 -4 0 -4 0 -4 0 -4 0 -3 0 -4 0 -4 0 -4 0 -4 0 -4 0 -3 0 -4 0 -4 0 -4 0 -4 0 -4 0 -3 0 -4 0 -4 0 -4 0 -4 0 -4 0 -3 0 -4 0 -4 0 -4 0 -4 0 -4 0 -3 0 -4 0 -4 0 -4 0 -4 0 -4 0 -3 0 -4 0 -4 0 -4 0 -4 0 -4 0 -4 0 -3 0 -4 0 -4 0 -4 0 -4 0 -4 0 -3 0 -4 0 -4 0 -4 0 -4 0 -4 0 -3 0 -4 0 -4 0 -4 0 -4 0 -4 0 -3 0 -4 0 -4 0 -4 0 -4 0 -4 0 -3 0 -4 0 -4 0 -4 0 -4 0 -4 0 -3 0 -4 0 -4 0 -4 0 -4 0 -4 0 -4 0 -3 0 -4 0 -4 0 -4 0 -4 0 -4 0 -3 0 -4 0 -4 0 -4 0 -4 0 -4 0 -3 0 -4 0 -4 0 -4 0 -4 0 -4 0 -3 0 -4 0 -4 0 -4 0 -4 0 -4 0 -3 0 -4 0 -4 0 -4 0 -4 0 -4 0 -3 0 -4 0 -4 0 -4 0 -4 0 -4 0 -4 0 -3 0 -4 0 -4 0 -4 0 -4 0 -4 0 -3 0 -4 0 -4 0 -4 0 -4 0 -4 0 -3 0 -4 0 -4 0 -4 0 -4 0 -4 0 -3 0 -9 0 0 -919c3,2 6,4 9,7 1,1 2,2 3,3 2,1 3,2 4,3 2,1 3,2 4,2 1,1 3,2 4,3 1,1 2,2 4,3 1,1 2,2 4,3l3 2c2,1 3,2 4,3l4 3c1,0 3,1 4,2 1,1 2,2 4,2l4 3c1,0 2,1 3,2 2,1 3,2 4,2l4 2 4 2 4 3c1,0 2,1 4,2 1,0 2,1 3,2l4 2 4 1 4 2c1,1 3,2 4,2l4 2 4 2 3 1 4 2 4 2 4 1 4 2 4 2 3 1 4 1c1,1 3,1 4,2l4 1c1,1 2,1 4,2 1,0 2,1 4,1l3 1 4 2c2,0 3,0 4,1 1,0 3,1 4,1l4 1 4 1 3 2 4 1 4 1 4 1 4 1 4 1 3 1 4 1 4 1 4 1 4 1 4 1 3 1 4 1 4 1 4 1 4 0 4 1 4 1 3 1 4 0 4 1 4 1 4 0 4 1 3 1 4 0 4 1 4 1 4 0 4 1 3 0 4 1 4 1 4 0 4 1 4 0 3 1 4 0 4 0 4 1 4 0 4 1 3 0 4 0 4 1 4 0 4 1 4 0 3 0 4 0 4 1 4 0 4 0 4 0 4 1 3 0 4 0 4 0 4 1 4 0 4 0 3 0 4 0 4 1 4 0 4 0 4 0 3 0 4 0 4 0 4 0 4 0 4 0 3 0 4 1 4 0 4 0 4 0 4 0 3 0 4 0 4 0 4 0 4 -1 4 0 3 0 4 0 4 0 4 0 4 0 4 0 4 0 3 0 4 0 4 -1 4 0 4 0 4 0 3 0 2 0 2 0 4 -1 4 0 4 0 4 0 3 -1 4 0 4 0 4 0 4 -1 4 0 3 0 4 0 4 -1 4 0 4 -1 4 0 3 0 4 -1 4 0 4 -1 4 0 4 0 3 -1 4 0 4 -1 4 0 4 -1 4 0 4 -1 3 0 4 -1 4 0 4 -1 4 0 4 -1 3 0 4 -1 4 -1 4 0 4 -1 4 0 3 -1 4 -1 4 0 4 -1 4 -1 4 0 3 -1 4 0 4 -1 4 -1 4 -1 4 0 3 -1 4 -1 4 0 4 -1 4 -1 4 -1 3 0 4 -1 4 -1 4 -1 4 0 4 -1 4 -1 3 -1 4 -1 4 0 4 -1 4 -1 4 -1 3 -1 4 -1 4 -1 4 0 4 -1 4 -1 3 -1 4 -1 4 -1 0 -168 -4 2 -4 1 -3 2 -4 2 -4 2 -4 2 -4 2 -4 1 -3 2 -4 2 -4 2 -4 1 -4 2 -4 2 -3 1 -4 2 -4 2 -4 1 -4 2 -4 1 -4 2 -3 1 -4 2 -4 1 -4 2 -4 1 -4 1 -3 2 -4 1 -4 2 -4 1 -4 1 -4 1 -3 2 -4 1 -4 1 -4 1 -4 1 -4 2 -3 1 -4 1 -4 1 -4 1 -4 1 -4 1 -3 1 -4 1 -4 1 -4 1 -4 1 -4 1 -3 0 -4 1 -4 1 -4 1 -4 1 -4 0 -4 1 -3 1 -4 1 -4 0 -4 1 -4 0 -4 1 -3 1 -4 0 -4 1 -4 0 -4 1 -4 0 -3 1 -4 0 -4 0 -4 1 -4 0 -4 1 -3 0 -4 0 -3 1 -1 0 -4 0 -4 0 -4 0 -3 1 -4 0 -4 0 -4 0 -4 0 -4 0 -3 0c-2,0 -3,0 -4,0l-4 0 -4 0 -4 0 -4 0c-1,0 -2,0 -4,0 -1,0 -2,0 -3,0l-4 -1 -4 0 -4 0 -4 0c-1,-1 -2,-1 -4,-1 -1,0 -2,0 -3,0l-4 -1 -4 0 -4 -1 -4 0 -4 0c-1,-1 -2,-1 -3,-1 -2,0 -3,0 -4,-1 -2,0 -3,0 -4,0 -1,-1 -3,-1 -4,-1 -1,0 -2,-1 -4,-1 -1,0 -2,0 -4,-1 -1,0 -2,0 -3,0 -2,-1 -3,-1 -4,-1l-4 -1c-1,-1 -3,-1 -4,-1 -1,-1 -3,-1 -4,-1 -1,-1 -2,-1 -4,-1 -1,0 -2,-1 -3,-1 -2,-1 -3,-1 -4,-2 -2,0 -3,0 -4,-1 -1,0 -3,0 -4,-1 -1,0 -3,-1 -4,-1 -1,-1 -2,-1 -4,-2 -1,0 -2,-1 -3,-1 -2,0 -3,-1 -4,-2 -2,0 -3,-1 -4,-1 -1,-1 -3,-1 -4,-2 -1,0 -3,-1 -4,-1 -1,-1 -2,-2 -4,-2 -1,-1 -2,-1 -4,-2 -1,-1 -2,-1 -3,-2 -2,-1 -3,-1 -4,-2 -1,0 -3,-1 -4,-2 -1,-1 -3,-1 -4,-2 -1,-1 -2,-1 -4,-2 -1,-1 -2,-2 -4,-3 -1,0 -2,-1 -3,-2 -2,-1 -3,-2 -4,-2 -2,-1 -3,-2 -4,-3 -1,-1 -3,-2 -4,-3 -1,-1 -2,-2 -4,-3 -1,0 -2,-1 -4,-3 -1,-1 -2,-2 -3,-2 -2,-2 -3,-3 -4,-4 -2,-1 -3,-2 -4,-3 -1,-1 -3,-2 -4,-4 -1,-1 -3,-2 -4,-3 -1,-2 -2,-3 -4,-4 -1,-1 -2,-3 -3,-4 -2,-2 -3,-3 -4,-5 -2,-1 -3,-2 -4,-4 -1,-1 -3,-3 -4,-5 -1,-1 -3,-3 -4,-5 -1,-1 -2,-3 -4,-5 -1,-2 -2,-4 -3,-5 -2,-2 -3,-4 -4,-6 -2,-3 -3,-5 -4,-7 -1,-2 -3,-5 -4,-7 -1,-2 -3,-5 -4,-7 -1,-3 -2,-6 -4,-9 -1,-2 -2,-5 -3,-9 -2,-3 -3,-6 -4,-10 -2,-4 -3,-8 -4,-12 -2,-4 -3,-9 -4,-14 -1,-6 -3,-12 -4,-18 -1,-9 -3,-18 -4,-28 -1,-11 -1,-23 -1,-34 0,-12 0,-24 1,-35 1,-10 3,-19 4,-28 1,-6 3,-12 4,-18 1,-5 2,-10 4,-15 1,-3 2,-7 4,-11 1,-4 2,-7 4,-11 1,-3 2,-5 3,-9 2,-2 3,-5 4,-8 1,-2 3,-5 4,-7 1,-3 3,-5 4,-7 1,-2 2,-5 4,-7 1,-2 2,-4 4,-6 1,-2 2,-3 3,-5 2,-2 3,-4 4,-6 1,-1 3,-3 4,-5 1,-1 3,-3 4,-4 1,-2 2,-3 4,-5 1,-1 2,-2 4,-4 1,-1 2,-3 3,-4 2,-1 3,-2 4,-4 1,-1 3,-2 4,-3 1,-2 3,-3 4,-4 1,-1 2,-2 4,-3 1,-1 2,-2 4,-3 1,-2 2,-3 3,-3 2,-2 3,-3 4,-4 2,0 3,-1 4,-2 1,-1 3,-2 4,-3 1,-1 2,-2 4,-3 1,-1 2,-1 4,-2 1,-1 2,-2 3,-3 2,0 3,-1 4,-2 2,-1 3,-1 4,-2 1,-1 3,-2 4,-2 1,-1 3,-2 4,-2 1,-1 2,-2 4,-2 1,-1 2,-1 3,-2 2,-1 3,-1 4,-2 2,-1 3,-1 4,-2 1,0 3,-1 4,-1 1,-1 3,-2 4,-2 1,-1 2,-1 4,-1 1,-1 2,-2 4,-2 1,-1 2,-1 3,-2 2,0 3,0 4,-1 1,0 3,-1 4,-1 1,-1 3,-1 4,-1 1,-1 2,-1 4,-2 1,0 2,0 4,-1l3 -1c2,0 3,-1 4,-1 1,0 3,-1 4,-1 1,0 3,0 4,-1l4 -1c1,0 2,0 4,-1 1,0 2,0 3,-1 2,0 3,0 4,0 2,-1 3,-1 4,-1 1,0 3,0 4,-1 1,0 2,0 4,0 1,-1 2,-1 4,-1l3 -1 4 0 4 -1 4 0 4 -1 4 0c1,0 2,0 3,0 2,0 3,0 4,-1l4 0 4 0 4 0 4 -1c1,0 2,0 3,0 2,0 3,0 4,0l4 0 4 0 4 0 4 0c1,0 2,0 4,0l3 0 4 0 4 0 4 0 4 0 4 0 3 1 4 0 4 0 4 0 1 0 3 1 4 0 3 0 4 0 4 1 4 0 4 1 4 0 3 1 4 0 4 1 4 0 4 1 4 0 3 1 4 0 4 1 4 1 4 0 4 1 3 1 4 0 4 1 4 1 4 1 4 1 4 0 3 1 4 1 4 1 4 1 4 1 4 1 3 1 4 1 4 1 4 1 4 1 4 1 3 1 4 1 4 1 4 1 4 2 4 1 3 1 4 1 4 2 4 1 4 1 4 2 3 1 4 1 4 2 4 1 4 2 4 1 3 2 4 1 4 2 4 2 4 1 4 2 4 1 3 2 4 2 4 1 4 2 4 2 4 2 3 2 4 1 4 2 4 2 4 2 4 2 3 2 4 2 4 2 0 -169 -4 -1 -4 -1 -3 -1 -4 -1 -4 -1 -4 -1 -4 0 -4 -1 -3 -1 -4 -1 -4 -1 -4 -1 -4 0 -4 -1 -3 -1 -4 -1 -4 -1 -4 0 -4 -1 -4 -1 -4 -1 -3 -1 -4 0 -4 -1 -4 -1 -4 0 -4 -1 -3 -1 -4 -1 -4 0 -4 -1 -4 -1 -4 0 -3 -1 -4 -1 -4 0 -4 -1 -4 0 -4 -1 -3 -1 -4 0 -4 -1 -4 -1 -4 0 -4 -1 -3 0 -4 -1 -4 0 -4 -1 -4 0 -4 -1 -3 0 -4 -1 -4 0 -4 -1 -4 0 -4 -1 -4 0 -3 -1 -4 0 -4 -1 -4 0 -4 0 -4 -1 -3 0 -4 0 -4 -1 -4 0 -4 0 -4 -1 -3 0 -4 0 -4 -1 -4 0 -4 0 -4 -1 -3 0 -4 0 -4 0 -4 0 -4 0 -2 -1 -2 0 -3 0 -4 0 -4 0 -4 0 -4 0 -4 -1 -3 0 -4 0 -4 0 -4 0 -4 0 -4 0 -4 0 -3 0 -4 0 -4 0 -4 0 -4 0 -4 -1 -3 0 -4 0 -4 0 -4 1 -4 0 -4 0 -3 0 -4 0 -4 0 -4 0 -4 0 -4 0 -3 0 -4 0 -4 0 -4 1 -4 0 -4 0 -3 0 -4 0 -4 0 -4 1 -4 0 -4 0 -3 0 -4 0 -4 1 -4 0 -4 0 -4 1 -4 0 -3 0 -4 1 -4 0 -4 0 -4 1 -4 0 -3 0 -4 1 -4 0 -4 1 -4 0 -4 0 -3 1 -4 1 -4 0 -4 1 -4 0 -4 0 -3 1 -4 1 -4 0 -4 1 -4 1 -4 0 -3 1 -4 0 -4 1 -4 1 -4 1 -4 0 -3 1 -4 1 -4 1 -4 1 -4 0 -4 1 -4 1 -3 1 -4 1 -4 1 -4 1 -4 1 -4 1 -3 1 -4 1 -4 1 -4 1 -4 1 -4 1 -3 2 -4 1 -4 1c-1,0 -3,1 -4,1l-4 1c-1,1 -2,1 -4,2l-3 1 -4 1c-2,1 -3,1 -4,2 -1,0 -3,1 -4,1l-4 2c-1,0 -2,0 -4,1l-3 2 -4 1 -4 2 -4 1 -4 2 -4 2 -3 1 -4 2 -4 2c-1,0 -3,1 -4,2l-4 1 -4 2 -4 2c-1,1 -2,2 -3,2 -2,1 -3,2 -4,3l-4 1 -4 3c-1,0 -2,1 -4,2 -1,1 -2,1 -4,2 -1,1 -2,1 -3,2 -2,1 -3,2 -4,3 -2,1 -3,1 -4,2 -1,1 -3,2 -4,3l-4 2c-1,1 -2,2 -4,3l-3 2c-2,1 -3,2 -4,3 -2,1 -3,2 -4,3 -1,1 -3,1 -4,2 -1,1 -2,2 -4,4 -1,0 -2,1 -4,2 -1,1 -2,2 -3,3z"/>
  <path class="fil1" d="M33426 406c41,-153 -33,-277 -166,-277l-2876 0c-133,0 -274,124 -316,277l-522 1938c-41,153 34,277 167,277l2876 0c133,0 274,-124 315,-277l522 -1938zm-478 1968c-42,157 -188,285 -325,285l-2965 0c-137,0 -214,-128 -172,-285l538 -1998c43,-158 189,-286 326,-286l2965 0c137,0 214,128 171,286l-538 1998z"/>
  <path class="fil1" d="M30514 243l787 0c-119,3 -243,105 -279,229l-516 1802c-37,124 29,225 146,228l-786 0c-120,0 -189,-102 -153,-228l517 -1802c36,-126 164,-229 284,-229z"/>
  <path class="fil2" d="M31306 243l943 0c-117,6 -238,107 -273,229l-516 1802c-36,124 30,225 147,228l-949 0c-121,0 -189,-102 -152,-228l516 -1802c37,-126 164,-229 284,-229z"/>
  <path class="fil3" d="M32260 243l864 0c121,0 190,103 153,229l-517 1802c-36,126 -163,228 -284,228l-864 0c-120,0 -189,-102 -153,-228l517 -1802c36,-126 164,-229 284,-229z"/>
  <path class="fil4" d="M30354 857l-49 255c-3,15 -4,33 -4,52 0,36 21,64 64,64 49,0 82,-33 98,-116l49 -255 95 0 -48 252c-26,134 -85,198 -205,198 -92,1 -148,-47 -148,-141 0,-19 3,-41 7,-62l46 -247 95 0zm2040 693c6,-3 20,-9 43,-17 7,13 14,25 20,36 7,11 14,22 23,34 -24,6 -40,12 -48,17 -7,-14 -20,-37 -38,-70zm182 -29c11,6 30,14 59,22 -18,16 -33,31 -44,42 -11,12 -26,30 -45,53 43,0 80,-1 111,-3l-6 38c-30,-1 -58,-2 -84,-2l-54 0c-9,53 -17,90 -22,112l79 0c23,0 49,-1 78,-2l-5 37c-29,-1 -55,-2 -79,-2l-70 0c5,40 22,74 50,104 27,30 60,49 99,56 -14,9 -25,17 -32,25 -8,9 -13,17 -16,26 -35,-21 -63,-44 -84,-69 -22,-26 -38,-59 -48,-98 -17,34 -38,64 -61,91 -23,27 -52,54 -89,80 -4,-6 -12,-12 -22,-18 -9,-7 -19,-12 -30,-15 21,-9 41,-20 59,-33 18,-13 35,-27 50,-43 15,-15 27,-32 37,-50 10,-18 19,-37 25,-56l-32 0c-29,0 -61,1 -95,2l5 -37c34,1 66,2 95,2l35 0c10,-41 17,-78 22,-112l-24 0c-26,0 -56,1 -92,2l5 -38c36,2 66,3 92,3l65 0c30,-43 53,-81 68,-117zm-404 68l-12 75 84 0 11 -75 -83 0zm-17 108l-13 86 84 0 13 -86 -84 0zm-30 200c20,-3 49,-7 86,-13l10 -68 -84 0 -12 81zm-48 -342c21,1 43,2 64,2l152 0c22,0 45,-1 70,-2l-5 37c-20,-2 -38,-3 -54,-3l-43 286c20,-4 39,-8 56,-11 -7,19 -10,32 -8,37 -23,4 -40,6 -53,9l-8 49c-3,22 -6,46 -8,72l-57 0c8,-26 13,-50 17,-72l6 -40c-20,3 -47,8 -78,15 -32,8 -65,16 -98,25 -1,-9 -5,-25 -12,-49 11,0 30,-2 58,-6l47 -315c-18,0 -35,2 -52,5l6 -39zm-376 37l-8 52 173 0 8 -52 -173 0zm-13 88l-8 55 173 0 8 -55 -173 0zm-30 -123l273 0c-6,26 -11,55 -16,85l-8 51c-4,25 -6,51 -9,77l-129 0c1,24 8,50 18,74 37,-18 68,-39 91,-61 11,10 25,22 43,35 -56,23 -96,43 -120,59 25,41 66,72 124,93 -23,10 -42,23 -57,39 -40,-23 -73,-56 -100,-99 -27,-42 -43,-89 -48,-140l-46 0 -29 189c16,-6 40,-19 74,-40 3,15 8,28 16,40 -36,13 -82,35 -137,65 -9,-14 -16,-27 -22,-37 13,-12 22,-30 28,-55l42 -281c5,-29 8,-61 12,-94zm-254 142c28,2 56,3 83,3 27,0 54,-1 81,-3l-5 38c-29,-2 -52,-2 -70,-2l-9 61c30,0 62,-1 95,-2l-7 42c-32,-2 -64,-3 -94,-3l-16 108c29,-18 55,-35 77,-50 3,17 7,32 10,43 -11,5 -31,16 -59,32 -27,17 -52,35 -72,52 -9,-13 -19,-26 -30,-37 15,-13 25,-30 29,-51l15 -97c-25,0 -54,1 -87,3l6 -42c36,1 65,2 87,2l9 -61c-11,0 -27,0 -49,2l6 -38zm34 -52c-37,36 -65,62 -81,77 -12,-15 -24,-27 -33,-36 30,-20 58,-45 83,-74 25,-30 47,-59 67,-90 14,9 34,15 59,19 -21,18 -43,40 -65,69l38 0c23,0 55,-1 95,-3l-6 40c-39,-1 -71,-2 -94,-2l-63 0zm1291 -669l19 140c5,33 8,56 11,77l1 0c7,-19 14,-40 28,-75l59 -142 100 0 -115 231c-43,85 -81,144 -124,184 -37,36 -82,52 -103,55l-21 -81c15,-5 36,-13 54,-26 22,-15 41,-34 53,-56 3,-4 3,-8 1,-15l-63 -292 100 0zm-247 67c-7,-1 -16,-2 -25,-2 -61,0 -106,75 -106,135 0,31 13,53 39,53 28,0 63,-32 77,-111l15 -75zm-27 255c1,-19 2,-41 4,-64l-2 0c-29,54 -70,71 -107,71 -58,0 -97,-45 -97,-112 0,-108 71,-224 229,-224 39,0 80,7 107,16l-34 168c-8,42 -14,105 -13,145l-87 0zm-427 -237c10,2 20,4 36,4 57,0 95,-37 95,-81 0,-43 -31,-57 -68,-57 -17,0 -30,1 -38,4l-25 130zm-55 -198c28,-7 73,-11 116,-11 39,0 85,6 117,29 30,21 48,52 48,94 0,56 -25,98 -60,125 -36,28 -88,41 -141,41 -16,0 -29,-1 -39,-3l-31 160 -92 0 82 -435zm-457 435l41 -217c8,-41 13,-76 17,-105l84 0 -6 54 1 0c30,-43 71,-61 113,-61 53,0 82,32 82,88 0,14 -2,38 -5,54l-35 187 -95 0 34 -178c2,-11 3,-25 3,-36 0,-23 -8,-39 -32,-39 -31,0 -67,39 -80,110l-27 143 -95 0zm-258 -128c0,38 18,63 51,63 52,0 81,-76 81,-131 0,-30 -12,-61 -51,-61 -54,0 -82,79 -81,129zm230 -69c0,118 -80,204 -192,204 -81,0 -136,-53 -136,-133 0,-111 77,-203 192,-203 86,0 136,59 136,132zm-394 -165c-26,0 -45,-17 -45,-46 0,-32 25,-53 54,-53 28,0 48,18 48,46 0,34 -26,53 -56,53l-1 0zm-120 362l62 -322 94 0 -61 322 -95 0zm-370 0l41 -217c8,-41 13,-76 17,-105l84 0 -6 54 1 0c30,-43 70,-61 113,-61 53,0 82,32 82,88 0,14 -2,38 -5,54l-35 187 -95 0 33 -178c2,-11 3,-25 3,-36 0,-23 -7,-39 -31,-39 -31,0 -67,39 -80,110l-27 143 -95 0z"/>
  <path class="fil1" d="M22136 483l-506 1098 -52 0 0 -1337 -720 0 0 2263 611 0c161,0 306,-93 373,-239l507 -1098 52 0 0 1337 720 0 0 -2263 -611 0c-161,0 -306,93 -374,239z"/>
  <path class="fil1" d="M19435 542l-300 1039 -51 0 -300 -1039c-51,-177 -212,-298 -395,-298l-719 0 0 2263 720 0 0 -1337 51 0 412 1337 514 0 411 -1337 52 0 0 1337 719 0 0 -2263 -718 0c-184,0 -345,121 -396,298z"/>
  <path class="fil1" d="M23429 1273l0 1234 719 0 0 -720 773 0c335,0 620,-215 726,-514l-2218 0z"/>
  <path class="fil5" d="M24439 1170l1237 0c11,-50 16,-102 16,-155l0 0c0,-425 -345,-771 -771,-771l0 0 -1595 0c97,527 558,926 1113,926z"/>
  <path class="fil1" d="M14080 1095c0,605 -489,1096 -1093,1096 -255,0 -489,-88 -674,-234 255,-200 418,-512 418,-862 0,-350 -163,-661 -418,-862 185,-146 420,-233 674,-233 604,0 1093,490 1093,1095z"/>
  <path class="fil6" d="M12313 1958c-186,146 -420,233 -675,233 -604,0 -1093,-491 -1093,-1096 0,-605 489,-1095 1093,-1095 255,0 489,87 675,233 -256,201 -419,512 -419,862 0,350 163,662 419,863z"/>
  <path class="fil7" d="M12313 233c-256,201 -419,512 -419,862 0,350 163,662 419,863 255,-201 418,-513 418,-863 0,-350 -163,-661 -418,-862z"/>
  <path class="fil1" d="M14078 1676l0 -39 -10 0 -12 27 -12 -27 -10 0 0 39 7 0 0 -29 12 25 7 0 11 -25 0 29 7 0zm-65 0l0 0 0 -32 14 0 0 -6 -34 0 0 6 13 0 0 32 7 0z"/>
  <path class="fil1" d="M10788 2732l-62 0 0 -289 61 0 0 35c0,0 53,-43 85,-42 62,1 99,53 99,53 0,0 30,-53 97,-53 100,0 114,91 114,91l0 204 -59 0 0 -180c0,0 0,-54 -65,-54 -66,0 -73,54 -73,54l0 180 -62 0 0 -181c0,0 -6,-57 -62,-57 -73,0 -74,58 -74,58l1 181z"/>
  <path class="fil1" d="M12675 2436c-32,-1 -85,42 -85,42l0 -35 -61 0 0 289 62 0 -1 -181c0,0 1,-58 74,-58 13,0 24,3 32,8l0 0 21 -56c-13,-6 -27,-9 -42,-9z"/>
  <path class="fil1" d="M13549 2436c-32,-1 -85,42 -85,42l0 -35 -61 0 0 289 62 0 -1 -181c0,0 1,-58 74,-58 13,0 24,3 32,8l0 0 20 -56c-12,-6 -26,-9 -41,-9z"/>
  <path class="fil1" d="M11383 2434c-93,0 -142,84 -142,154 -1,71 56,153 145,153 51,0 94,-38 94,-38l0 30 61 0 0 -290 -61 0 0 36c0,0 -40,-45 -97,-45zm12 59l0 0c50,0 90,44 90,97 0,54 -40,97 -90,97 -50,0 -90,-43 -90,-97 0,-53 40,-97 90,-97z"/>
  <path class="fil1" d="M13164 2434c-93,0 -142,84 -143,154 0,71 56,153 145,153 52,0 95,-38 95,-38l0 30 61 0 0 -290 -62 0 0 36c0,0 -39,-45 -96,-45zm12 59l0 0c50,0 90,44 90,97 0,54 -40,97 -90,97 -50,0 -91,-43 -91,-97 0,-53 41,-97 91,-97z"/>
  <path class="fil1" d="M13750 2434c-93,0 -142,84 -142,154 0,71 56,153 145,153 52,0 94,-38 94,-38l0 30 61 0 0 -405 -61 0 0 151c0,0 -40,-45 -97,-45zm12 59l0 0c50,0 90,44 90,97 0,54 -40,97 -90,97 -50,0 -90,-43 -90,-97 0,-53 40,-97 90,-97z"/>
  <path class="fil1" d="M11727 2742c-63,0 -121,-39 -121,-39l26 -41c0,0 56,25 95,25 26,0 69,-8 70,-34 0,-27 -73,-35 -73,-35 0,0 -108,-1 -108,-91 0,-57 54,-93 124,-93 40,0 115,36 115,36l-30 47c0,0 -58,-23 -89,-24 -26,-1 -57,11 -57,34 0,61 181,-5 181,119 0,81 -74,96 -133,96z"/>
  <path class="fil1" d="M11961 2359l0 84 -54 0 0 61 54 0 0 146c0,0 -5,98 101,98 29,0 86,-22 86,-22l-24 -63c0,0 -23,20 -49,19 -49,-1 -47,-33 -47,-33l0 -145 101 0 0 -61 -101 0 0 -84 -67 0z"/>
  <path class="fil1" d="M12328 2438c-99,0 -149,82 -149,153 1,73 46,156 155,156 47,0 113,-41 113,-41l-28 -50c0,0 -46,32 -85,32 -79,0 -84,-77 -84,-77l211 0c0,0 16,-173 -133,-173zm-9 57l0 0c2,0 5,0 8,0 74,0 73,70 73,70l-150 0c0,0 -4,-66 69,-70z"/>
  <path class="fil1" d="M12958 2656l28 56c0,0 -45,30 -95,30 -105,0 -163,-79 -163,-154 0,-117 92,-151 155,-151 57,0 106,33 106,33l-32 57c0,0 -19,-30 -76,-30 -56,0 -86,48 -86,94 0,52 35,95 87,95 41,0 76,-30 76,-30z"/>
  <path class="fil1" d="M14036 2693c-8,0 -15,3 -21,8 -6,6 -8,13 -9,21 1,8 3,15 9,20 6,6 13,9 21,9 8,0 16,-3 21,-9 6,-5 9,-12 9,-20 0,-8 -3,-15 -9,-21 -5,-5 -13,-8 -21,-8zm0 51l0 0c-6,0 -12,-2 -16,-6 -4,-4 -7,-10 -7,-16 0,-7 3,-12 7,-16 4,-4 10,-7 16,-7 7,0 12,3 16,7 4,4 6,9 7,16 -1,6 -3,12 -7,16 -4,4 -9,6 -16,6zm2 -36l0 0 -13 0 0 27 6 0 0 -10 3 0 8 10 7 0 -9 -10c3,0 5,-1 6,-3 2,-1 3,-3 3,-5 0,-3 -1,-5 -3,-6 -2,-2 -5,-3 -8,-3zm0 5l0 0c1,0 3,1 3,1 1,1 2,2 2,3 0,1 -1,2 -2,3 0,0 -2,1 -3,1l-7 0 0 -8 7 0z"/>
 </g>
</svg>
