<?xml version="1.0" encoding="UTF-8"?>
<!DOCTYPE svg PUBLIC "-//W3C//DTD SVG 1.1//EN" "http://www.w3.org/Graphics/SVG/1.1/DTD/svg11.dtd">
<!-- Creator: CorelDRAW X6 -->
<svg xmlns="http://www.w3.org/2000/svg" xml:space="preserve" width="385px" height="26px" version="1.1" style="shape-rendering:geometricPrecision; text-rendering:geometricPrecision; image-rendering:optimizeQuality; fill-rule:evenodd; clip-rule:evenodd"
viewBox="0 0 638026 43161"
 xmlns:xlink="http://www.w3.org/1999/xlink">
 <defs>
  <style type="text/css">
   <![CDATA[
    .fil7 {fill:#0D7B84;fill-rule:nonzero}
    .fil4 {fill:#252422;fill-rule:nonzero}
    .fil6 {fill:#2A4476;fill-rule:nonzero}
    .fil5 {fill:#D82B37;fill-rule:nonzero}
    .fil8 {fill:#FEFEFE;fill-rule:nonzero}
    .fil14 {fill:black;fill-rule:nonzero}
    .fil9 {fill:#20AA4D;fill-rule:nonzero}
    .fil12 {fill:#E9001A;fill-rule:nonzero}
    .fil11 {fill:#F69E1A;fill-rule:nonzero}
    .fil13 {fill:#FF5E01;fill-rule:nonzero}
    .fil0 {fill:url(#id0)}
    .fil1 {fill:url(#id1)}
    .fil2 {fill:url(#id2)}
    .fil3 {fill:url(#id3)}
    .fil10 {fill:url(#id4)}
   ]]>
  </style>
  <linearGradient id="id0" gradientUnits="userSpaceOnUse" x1="-0" y1="21579.7" x2="109122" y2="21579.7">
   <stop offset="0" style="stop-color:#322D5C"/>
   <stop offset="1" style="stop-color:#264796"/>
  </linearGradient>
  <linearGradient id="id1" gradientUnits="userSpaceOnUse" x1="622609" y1="21579.7" x2="638026" y2="21579.7">
   <stop offset="0" style="stop-color:#007B40"/>
   <stop offset="1" style="stop-color:#55B330"/>
  </linearGradient>
  <linearGradient id="id2" gradientUnits="userSpaceOnUse" x1="588030" y1="21579.7" x2="603445" y2="21579.7">
   <stop offset="0" style="stop-color:#1D2970"/>
   <stop offset="1" style="stop-color:#006DBA"/>
  </linearGradient>
  <linearGradient id="id3" gradientUnits="userSpaceOnUse" x1="605321" y1="21579.7" x2="620736" y2="21579.7">
   <stop offset="0" style="stop-color:#6E2B2F"/>
   <stop offset="1" style="stop-color:#E30138"/>
  </linearGradient>
  <linearGradient id="id4" gradientUnits="userSpaceOnUse" x1="365967" y1="11092.3" x2="403079" y2="11092.3">
   <stop offset="0" style="stop-color:#00A7E3"/>
   <stop offset="0.0117647" style="stop-color:#00A7E3"/>
   <stop offset="0.6" style="stop-color:#0093D3"/>
   <stop offset="1" style="stop-color:#007EC4"/>
  </linearGradient>
 </defs>
 <g id="Слой_x0020_1">
  <metadata id="CorelCorpID_0Corel-Layer"/>
  <path class="fil0" d="M54030 4581l-7292 34085 -8817 0 7294 -34085 8815 0zm17459 -623l-158 0c-8714,0 -14850,4634 -14899,11267 -58,4910 4378,7645 7722,9277 3433,1670 4585,2741 4573,4235 -28,2289 -2741,3297 -5278,3336 -4434,70 -7007,-1198 -9056,-2154l-1598 7471c2060,946 5861,1770 9806,1809 9264,0 15321,-4573 15350,-11662 40,-8994 -12439,-9491 -12353,-13510 28,-1222 1193,-2522 3742,-2854 1260,-165 4745,-294 8692,1523l1548 -7226c-2089,-760 -4767,-1488 -8091,-1512zm19640 22631l4641 -12797 2671 12797 -7312 0zm9837 12077l8156 0 -7118 -34085 -7526 0c-1693,0 -3120,985 -3755,2500l-13230 31585 9258 0 1839 -5092 11311 0 1065 5092zm-59535 -34085l-14288 34085 -9318 0 -7032 -27202c-427,-1674 -797,-2288 -2095,-2993 -2118,-1151 -5619,-2232 -8698,-2901l208 -989 15005 0c1911,0 3632,1273 4066,3475l3712 19726 9178 -23201 9262 0z"/>
  <path class="fil1" d="M625665 22339l31 0 61 0 61 0 61 0 58 0 61 0 61 0 60 0 61 0 59 0 60 0 61 0 61 0 60 0 59 0 61 0 61 0 60 0 61 0 59 0 60 0 61 0 61 0 60 0 61 0 59 0 61 0 60 0 61 0 61 0 58 0 61 0 61 0 60 0 61 0 59 0 61 0 60 0 61 0 61 0 58 0 61 0 61 0 60 0 61 0 59 0 61 0 60 0 61 0 61 0 60 0 59 0 61 0 60 0 61 0 61 0 58 0 61 0 61 0 61 0 48 0 12 0c18,0 37,0 59,2 20,2 41,2 61,4 19,2 41,4 60,6 20,2 41,4 61,6 20,2 41,4 61,6 21,4 41,8 58,10 14,1 26,3 38,7l23 4c22,6 41,10 61,16 19,6 41,12 61,18 19,7 39,13 60,21 20,8 39,16 59,24 21,7 41,15 61,25 21,10 41,20 60,29 20,10 41,22 61,32 20,11 41,23 61,37 19,12 39,25 60,39 20,14 40,27 59,43 22,16 41,31 61,47 21,18 41,35 60,53 20,20 42,39 61,59 20,21 41,43 61,64 19,24 39,49 59,75 21,25 41,53 60,82 22,31 41,63 61,96 22,35 41,74 61,113 21,45 41,92 60,141 24,67 43,135 59,206 29,121 43,249 43,384 0,133 -14,262 -43,385 -16,71 -35,137 -59,204 -19,49 -39,96 -60,143 -20,39 -39,76 -61,113 -20,34 -39,65 -61,96 -19,28 -39,55 -60,82 -20,26 -40,49 -59,73 -20,23 -41,45 -61,65 -19,21 -41,41 -61,58 -19,18 -39,35 -60,53 -20,16 -39,33 -61,47 -19,16 -39,29 -59,43 -21,14 -41,28 -60,41 -20,12 -41,24 -61,36 -20,9 -39,21 -61,31 -19,10 -39,19 -60,29 -20,8 -40,18 -61,26 -20,7 -39,15 -59,23 -21,8 -41,14 -60,20 -20,6 -42,11 -61,17 -20,6 -39,12 -61,16l-23 6c-12,2 -24,4 -38,6 -17,4 -37,8 -58,10 -20,2 -41,5 -61,7 -20,2 -41,4 -61,6 -19,2 -41,4 -60,6 -20,0 -41,2 -61,2 -22,2 -41,2 -59,4l-33 0 -27 0 -61 0 -61 0 -61 0 -58 0 -61 0 -61 0 -60 0 -61 0 -59 0 -60 0 -61 0 -61 0 -60 0 -61 0 -59 0 -61 0 -60 0 -61 0 -61 0 -58 0 -61 0 -61 0 -60 0 -61 0 -59 0 -61 0 -60 0 -61 0 -61 0 -58 0 -61 0 -61 0 -60 0 -61 0 -59 0 -61 0 -60 0 -61 0 -61 0 -60 0 -59 0 -61 0 -60 0 -61 0 -61 0 -59 0 -60 0 -61 0 -61 0 -60 0 -59 0 -61 0 -60 0 -61 0 -61 0 -58 0 -61 0 -61 0 -61 0 -31 0 0 -3297zm-3056 17989l131 0 61 0 59 0 60 0 61 0 61 0 61 0 60 0 59 0 61 0 60 0 61 0 61 0 58 0 61 0 61 0 60 0 61 0 59 0 61 0 60 0 61 0 61 0 60 0 59 0 61 0 60 0 61 0 61 0 59 0 60 0 61 0 61 0 60 0 59 0 61 0 60 0 61 0 61 0 60 0 59 0 61 0 61 0 60 0 61 0 59 0 60 0 61 0 61 0 60 0 59 0 61 0 61 0 60 0 61 0 61 0 58 0 61 0 61 0 60 0 61 0 59 0 61 0 60 0 61 0 61 0 58 0 61 0 61 0 60 0 61 0 61 0 59 0 60 0 61 0 61 0 60 0 59 0 61 0 60 0 61 0 61 0 58 0 61 0 61 0 61 0 60 0 61 0 59 0 60 0 61 0 61 0 60 0 59 0 61 0 61 0 60 0 61 0 59 0 60 0 61 0 61 0 60 0 61 0 59 0 60 0 61 0 61 0 61 0 58 0 61 0 61 0 60 0 61 0 59 0 60 0 61 0 61 0 61 0 60 0 59 0 61 0 60 0 61 0 61 0 58 0 61 0 61 0 60 0 61 0 59 0 61 0 60 0 61 0 61 0 60 0 59 0 61 0 60 0 61 0 61 0 59 0 60 0 61 0 61 0 60 0 59 0 61 0 60 0 61 0 47 0 14 0 60 -1c20,0 40,0 59,0l61 -2 61 -2c19,-2 41,-2 60,-2 20,-2 39,-4 61,-4l59 -4c21,-2 41,-4 60,-4 22,-2 42,-4 61,-6 20,-2 41,-4 61,-6 19,-2 39,-4 60,-6 20,-2 40,-4 61,-8 20,-1 39,-3 59,-5 21,-2 41,-6 61,-8l60 -10 61 -8 61 -10c19,-4 39,-7 58,-11 22,-2 41,-6 61,-10l61 -12 60 -12c20,-6 40,-9 61,-13 20,-4 39,-8 59,-14l61 -14 60 -15 61 -14c19,-6 39,-12 61,-18 19,-6 39,-10 58,-15 22,-6 41,-12 61,-18l61 -18c19,-6 41,-13 60,-19l61 -20c20,-6 39,-12 61,-19 19,-6 39,-14 59,-22 21,-6 41,-14 60,-20l61 -23c19,-8 41,-16 61,-24 19,-5 39,-13 60,-21 20,-8 39,-18 59,-25 22,-8 41,-16 61,-26 21,-8 41,-16 60,-25 20,-8 41,-18 61,-26l61 -27 60 -30c20,-9 40,-17 59,-27 22,-10 41,-22 61,-31 19,-10 41,-20 61,-30 19,-9 39,-21 60,-31 20,-12 39,-22 61,-33 19,-10 39,-22 59,-34 21,-9 41,-21 60,-33 22,-12 41,-23 61,-35l61 -35c19,-12 39,-24 60,-38 20,-11 40,-23 59,-37 22,-11 41,-25 61,-37 21,-14 41,-27 61,-41 19,-14 41,-25 60,-39 20,-14 39,-30 61,-43 19,-14 39,-28 61,-41 19,-16 39,-30 58,-45 22,-14 41,-30 61,-43 20,-16 41,-32 61,-47 19,-16 41,-32 60,-47 20,-16 40,-32 61,-49 20,-16 39,-32 59,-49 21,-18 41,-34 60,-51 22,-18 42,-35 61,-53 20,-18 41,-35 61,-53 19,-18 39,-37 61,-55 19,-17 39,-37 58,-57 22,-17 41,-37 61,-56 21,-20 41,-39 61,-59 19,-22 41,-41 60,-63 20,-19 41,-41 61,-62 20,-22 39,-43 61,-65 19,-21 39,-43 58,-67 22,-21 42,-45 61,-66 22,-24 41,-49 61,-72 19,-24 41,-47 61,-73 19,-23 39,-49 60,-74 20,-26 39,-51 59,-77 21,-27 41,-53 61,-80 21,-27 41,-55 60,-82 20,-30 41,-57 61,-86 20,-30 41,-59 61,-88 19,-32 39,-61 58,-92 22,-32 42,-65 61,-96 22,-34 41,-67 61,-100 21,-35 41,-69 60,-104 20,-37 42,-72 61,-110 20,-37 39,-74 61,-113 19,-39 39,-80 59,-121 21,-42 41,-85 60,-128 22,-45 41,-90 61,-135 22,-49 41,-96 61,-145 19,-53 41,-103 60,-156 20,-57 41,-114 59,-171 22,-62 41,-127 61,-190 21,-70 41,-140 60,-213 22,-82 42,-166 61,-250 22,-104 43,-210 61,-314 25,-158 45,-317 59,-477 17,-147 25,-296 25,-449l0 -17 0 -18 0 -18 0 -17 0 -18 0 -17 0 -31247 -25 0 -59 0 -61 0 -61 0 -60 0 -61 0 -59 0 -60 0 -61 0 -61 0 -60 0 -59 0 -61 0 -61 0 -60 0 -61 0 -61 0 -58 0 -61 0 -61 0 -60 0 -61 0 -59 0 -60 0 -61 0 -61 0 -61 0 -58 0 -61 0 -61 0 -60 0 -61 0 -61 0 -58 0 -61 0 -61 0 -61 0 -60 0 -59 0 -61 0 -60 0 -61 0 -61 0 -58 0 -61 0 -61 0 -60 0 -61 0 -61 0 -59 0 -60 0 -61 0 -61 0 -60 0 -59 0 -61 0 -60 0 -61 0 -61 0 -59 0 -60 0 -61 0 -61 0 -60 0 -61 0 -59 0 -60 0 -61 0 -61 0 -60 0 -59 0 -61 0 -61 0 -60 0 -61 0 -61 0 -58 0 -61 0 -61 0 -60 0 -61 0 -59 0 -61 0 -60 0 -61 0 -61 0 -58 0 -61 0 -61 0 -60 0 -61 0 -59 0 -61 0 -60 0 -61 0 -61 0 -60 0 -59 0 -61 0 -60 0 -61 0 -61 0 -59 0 -60 0 -61 0 -61 0 -60 0 -61 0 -59 0 -60 0 -61 0 -61 0 -60 0 -59 0 -61 0 -61 0 -60 0 -61 0 -59 0 -60 0 -61 0 -61 0 -60 0 -61 0 -59 0 -61 0 -60 0 -61 0 -61 0 -58 0 -61 0 -61 0 -60 0 -61 0 -59 0 -60 0 -61 0 -61 0 -61 0 -60 0 -59 0 -61 0 -60 0 -61 0 -61 0 -58 0 -61 0 -61 0 -61 0 -60 0 -59 0 -61 0 -45 0 -15 0c-20,0 -41,0 -61,0 -20,0 -39,0 -61,2 -19,0 -39,0 -60,2l-59 2c-22,0 -41,0 -61,2 -19,0 -41,2 -60,4 -20,2 -42,2 -61,3l-61 4 -59 6c-21,2 -41,4 -60,6 -22,2 -41,4 -61,6l-61 8c-19,2 -39,4 -60,6 -20,4 -40,6 -59,10 -22,1 -41,3 -61,7 -21,2 -41,6 -60,10l-61 10c-20,4 -39,6 -61,10 -19,4 -39,8 -61,11 -19,4 -39,8 -58,12l-61 12 -61 14c-19,4 -41,7 -60,13 -20,4 -39,10 -61,14 -20,6 -39,10 -59,16l-60 15c-22,4 -42,10 -61,16 -20,6 -41,12 -61,16 -19,6 -39,13 -60,19 -20,6 -40,12 -59,18 -22,6 -41,12 -61,19l-61 20c-19,6 -41,12 -60,20 -20,6 -39,13 -61,21 -20,6 -39,14 -61,20 -19,8 -39,15 -58,23l-61 24 -61 23c-19,8 -41,16 -60,24 -20,10 -40,17 -61,25 -20,10 -39,18 -59,28 -21,7 -41,15 -61,25 -21,10 -41,20 -60,27 -20,10 -41,20 -61,30l-61 29c-19,10 -39,20 -58,30 -22,9 -41,19 -61,31 -22,10 -41,19 -61,31 -19,10 -41,22 -60,31 -20,12 -40,24 -61,34 -20,12 -39,23 -61,35 -19,10 -39,24 -59,35 -21,12 -41,24 -60,35 -20,12 -41,24 -61,38l-61 37c-19,14 -39,25 -60,39l-59 39 -61 41c-21,14 -41,28 -60,41l-61 43c-20,16 -39,30 -61,46 -19,13 -39,29 -59,45l-60 45 -61 49c-19,15 -41,31 -61,46 -19,18 -39,34 -60,51 -20,18 -39,34 -61,51 -20,18 -39,36 -59,53 -21,18 -41,35 -60,53 -22,20 -41,37 -61,57 -20,17 -41,37 -61,55 -19,19 -39,39 -60,58 -20,20 -40,41 -59,61 -22,20 -41,41 -61,61 -21,21 -41,43 -61,64 -19,22 -41,43 -60,65 -20,21 -39,45 -61,66 -20,24 -39,45 -59,69 -21,23 -41,47 -60,70 -22,26 -41,49 -61,75 -20,23 -41,49 -61,74 -19,26 -41,53 -60,79 -20,27 -40,52 -61,80 -20,27 -39,55 -59,82 -21,29 -41,59 -61,88 -21,30 -41,59 -60,88 -20,32 -41,63 -61,94 -19,32 -39,63 -61,96 -19,33 -39,67 -58,102 -22,35 -41,68 -61,106 -22,35 -41,72 -61,109 -19,37 -41,77 -60,116 -20,41 -41,80 -61,121 -20,43 -39,86 -59,129 -21,45 -41,92 -60,137 -22,49 -42,100 -61,149 -22,53 -41,106 -61,161 -21,58 -41,115 -61,174 -21,65 -41,129 -60,196 -20,72 -41,147 -59,221 -23,86 -43,172 -61,260 -86,413 -131,838 -131,1275l0 6490 131 0 61 0 59 0 60 0 61 0 61 0 61 0 60 0 59 0 61 0 60 0 61 0 61 0 58 0 61 0 61 0 60 0 61 0 59 0 61 0 60 0 61 0 61 0 60 0 59 0 61 0 60 0 61 0 61 0 59 0 60 0 61 0 61 0 60 0 59 0 61 0 60 0 61 0 61 0 60 0 59 0 61 0 61 0 60 0 61 0 59 0 60 0 61 0 61 0 60 0 59 0 61 0 61 0 60 0 61 0 61 0 58 0 61 0 61 0 60 0 61 0 59 0 61 0 60 0 61 0 61 0 58 0 61 0 61 0 60 0 61 0 61 0 59 0 60 0 61 0 61 0 60 0 59 0 61 0 60 0 61 0 61 0 58 0 61 0 61 0 61 0 60 0 61 0 59 0 60 0 61 0 61 0 60 0 59 0 61 0 61 0 60 0 61 0 59 0 60 0 61 0 61 0 60 0 61 0 59 0 60 0 61 0 61 0 61 0 58 0 61 0 61 0 60 0 61 0 59 0 60 0 61 0 61 0 61 0 60 0 59 0 61 0 60 0 61 0 61 0 58 0 61 0 61 0 60 0 61 0 59 0 61 0 60 0 61 0 61 0 60 0 59 0 61 0 60 0 61 0 61 0 59 0 60 0 61 0 61 0 27 0 33 0 59 1 61 0 60 2 61 4 61 2 60 2 59 4 61 4 61 2 37 4 23 0 61 4 59 4 60 6 61 4 61 5 60 8 61 6 59 10 61 8 60 10c20,2 41,5 61,9l61 10c19,4 39,8 58,12 22,4 41,8 61,12l61 13c19,4 41,8 60,14 20,4 40,8 61,14l59 15c21,4 41,10 61,16 21,6 41,12 60,18 20,6 41,11 61,17 19,6 39,12 61,18 19,8 39,14 58,20 22,7 41,13 61,21 22,8 41,14 61,22 19,7 41,15 60,23 20,8 42,16 61,24 20,7 39,17 61,25 19,8 39,18 59,25 21,10 41,20 60,28 22,10 41,19 61,29 19,10 41,20 61,32 19,9 39,19 60,31 20,10 39,21 59,33 22,12 41,24 61,35 21,12 41,24 60,36 20,13 41,25 61,39 20,14 41,27 61,39 19,16 39,29 60,43 20,16 40,29 59,45 22,16 41,31 61,47 21,16 41,33 61,49 19,18 41,35 60,53 20,19 39,37 61,57 19,19 39,39 59,58 21,22 41,41 60,63 22,22 41,45 61,69 22,23 41,47 61,72 19,25 41,51 60,78 20,28 40,57 59,84 22,32 41,63 61,94 21,36 41,69 61,104 21,39 41,78 60,118 22,45 41,90 61,137 21,53 41,107 61,164 21,71 43,141 58,215 28,116 49,237 61,365 10,97 16,197 16,301 0,98 -6,196 -16,292 -12,121 -31,241 -61,356 -15,73 -37,143 -58,213 -20,55 -40,110 -61,165 -20,47 -39,92 -61,139 -19,39 -39,80 -60,119 -20,36 -40,71 -61,106 -20,33 -39,65 -61,96 -19,29 -39,59 -59,88 -19,27 -41,55 -60,80 -20,26 -39,51 -61,77 -20,23 -39,45 -61,68 -19,24 -39,45 -60,67 -20,19 -40,41 -59,60 -22,20 -41,40 -61,59 -19,18 -41,35 -60,53 -20,18 -40,35 -61,53 -20,16 -39,33 -61,49 -19,15 -39,31 -59,45 -21,16 -41,29 -60,45 -20,14 -41,27 -61,41 -20,14 -41,27 -61,41 -19,12 -39,26 -60,37 -20,12 -39,24 -61,36 -20,11 -39,23 -59,35 -21,12 -41,21 -60,33 -20,10 -42,20 -61,31 -20,10 -39,20 -61,30 -19,10 -39,19 -60,27 -20,10 -40,20 -59,28 -22,9 -41,17 -61,25 -19,8 -41,18 -61,25 -19,8 -41,16 -60,22 -20,8 -39,16 -61,23 -20,6 -39,14 -61,20 -19,8 -39,14 -58,22 -20,5 -42,11 -61,17 -20,6 -41,12 -61,18 -19,6 -39,12 -60,17 -20,6 -40,10 -61,16 -20,6 -39,10 -59,16 -21,4 -41,8 -61,13l-60 14c-20,4 -39,8 -61,12l-61 12c-19,4 -39,6 -58,9l-61 10 -57 10 0 72 57 4 61 4 58 6 61 6 61 8 60 8 61 8c20,2 39,5 59,7l61 10c21,4 41,8 60,12l61 10 61 11c19,4 39,8 58,12 22,4 41,10 61,14 22,4 41,8 61,14 19,4 41,9 60,13 20,6 42,10 61,16 20,6 39,10 61,16 19,6 39,11 59,17l60 18c20,6 41,12 61,17 19,8 41,14 61,20 19,8 39,14 60,22 20,5 39,13 59,19 22,8 41,16 61,24 21,8 41,15 60,23 20,8 41,16 61,24 20,7 39,17 61,25 19,8 39,18 60,26 20,9 40,19 59,27 22,10 41,20 61,29 19,10 41,20 61,30 19,11 41,21 60,31 20,12 39,22 61,33 19,12 39,22 59,34 21,11 41,23 60,35 22,14 41,25 61,37 20,14 41,25 61,39 19,14 39,28 60,41 20,14 40,28 59,41 22,16 41,30 61,45 21,16 41,32 61,47 19,16 41,32 60,49 20,18 41,34 61,51 19,18 39,35 61,55 19,18 39,37 58,57 22,19 41,39 61,61 22,21 41,43 61,64 19,22 41,45 60,69 20,23 41,47 61,72 20,26 39,51 59,78 21,28 41,57 60,87 22,29 42,60 61,92 22,33 41,68 61,103 21,37 41,75 61,114 21,43 41,86 58,131 24,51 43,104 61,157 23,64 43,131 61,197 25,100 47,200 60,306 18,125 28,256 28,389 0,139 -10,272 -28,404 -13,107 -35,211 -60,313 -18,70 -38,139 -61,207 -18,55 -37,108 -61,161 -17,47 -37,92 -58,137 -20,39 -40,80 -61,119 -20,36 -39,71 -61,106 -19,31 -39,65 -61,96 -19,29 -39,59 -60,88 -20,28 -39,55 -59,82 -20,26 -41,51 -61,77 -19,23 -41,47 -60,70 -20,22 -39,45 -61,67 -20,21 -39,41 -61,62 -19,20 -39,40 -58,59 -22,20 -42,37 -61,57 -20,17 -41,35 -61,53 -19,17 -41,33 -60,51 -20,15 -40,31 -61,47 -20,15 -39,31 -61,47 -19,13 -39,29 -59,43 -21,13 -41,29 -60,43 -20,13 -41,25 -61,39 -20,14 -39,25 -61,39 -19,12 -39,24 -60,35 -20,12 -40,24 -59,36 -22,11 -41,23 -61,33 -19,12 -41,21 -60,33 -20,10 -40,20 -61,31 -20,10 -39,20 -61,30 -19,10 -39,17 -59,27 -21,10 -41,18 -60,28 -22,7 -41,17 -61,25 -20,8 -41,18 -61,25 -19,8 -39,16 -60,24 -20,8 -39,16 -61,23 -20,6 -39,14 -59,22 -21,6 -41,14 -60,20 -20,7 -42,13 -61,19l-61 20c-19,6 -39,11 -60,17 -20,6 -40,12 -59,18 -22,6 -41,12 -61,16 -19,5 -41,11 -61,15 -19,6 -41,10 -60,16 -20,4 -39,8 -61,14l-61 11c-19,4 -39,10 -58,14 -22,4 -42,8 -61,10l-61 12 -60 9c-20,4 -40,6 -61,10 -20,2 -39,6 -59,8 -21,4 -41,6 -61,10l-60 6c-20,2 -41,6 -61,8 -20,1 -39,3 -61,5l-58 6 -61 4 -61 4 -60 4 -61 2c-20,2 -39,2 -59,4 -21,0 -41,0 -61,0l-60 2 -61 0 -27 0 -34 0 -60 0 -59 0 -61 0 -60 0 -61 0 -61 0 -59 0 -60 0 -61 0 -61 0 -60 0 -61 0 -59 0 -60 0 -61 0 -61 0 -60 0 -59 0 -61 0 -61 0 -60 0 -61 0 -59 0 -60 0 -61 0 -61 0 -60 0 -61 0 -59 0 -61 0 -60 0 -61 0 -61 0 -58 0 -61 0 -61 0 -60 0 -61 0 -59 0 -60 0 -61 0 -61 0 -61 0 -60 0 -59 0 -61 0 -60 0 -61 0 -61 0 -58 0 -61 0 -61 0 -61 0 -60 0 -59 0 -61 0 -60 0 -61 0 -61 0 -60 0 -59 0 -61 0 -60 0 -61 0 -61 0 -59 0 -60 0 -61 0 -61 0 -60 0 -59 0 -61 0 -60 0 -61 0 -61 0 -61 0 -58 0 -61 0 -61 0 -60 0 -61 0 -59 0 -60 0 -61 0 -61 0 -60 0 -59 0 -61 0 -61 0 -60 0 -61 0 -61 0 -58 0 -61 0 -61 0 -60 0 -61 0 -59 0 -61 0 -60 0 -61 0 -61 0 -58 0 -61 0 -61 0 -60 0 -61 0 -61 0 -59 0 -60 0 -61 0 -61 0 -60 0 -59 0 -61 0 -60 0 -61 0 -61 0 -59 0 -60 0 -61 0 -61 0 -60 0 -61 0 -59 0 -60 0 -61 0 -61 0 -60 0 -59 0 -61 0 -61 0 -60 0 -61 0 -59 0 -60 0 -61 0 -61 0 -60 0 -61 0 -59 0 -61 0 -60 0 -61 0 -61 0 -58 0 -61 0 -61 0 -60 0 -61 0 -59 0 -60 0 -61 0 -61 0 -61 0 -60 0 -59 0 -61 0 -131 0 0 12742zm7913 -21720c24,110 37,227 37,350 0,124 -13,241 -37,351 -15,72 -35,139 -61,205 -17,47 -37,94 -60,139 -18,37 -39,73 -61,108 -18,31 -39,63 -59,92 -19,25 -39,53 -60,76 -20,24 -39,47 -61,69 -20,21 -39,41 -61,61 -19,17 -39,37 -60,52 -20,18 -40,34 -59,49 -20,16 -41,30 -61,43 -19,14 -41,28 -60,40 -20,11 -40,23 -61,35 -20,12 -39,21 -61,31 -19,10 -39,20 -59,29 -21,8 -41,18 -60,26 -20,8 -41,16 -61,21 -20,8 -39,14 -61,20 -19,6 -39,12 -60,18 -20,6 -40,9 -59,13 -22,4 -41,8 -61,12l-15 4c-12,2 -28,4 -45,6 -18,2 -40,4 -61,8 -20,2 -39,2 -61,4 -19,2 -39,4 -59,6 -21,0 -41,1 -60,1 -22,2 -41,2 -61,2l-10 0 -51 0 -60 0 -61 0 -59 0 -60 0 -61 0 -61 0 -60 0 -59 0 -61 0 -61 0 -60 0 -61 0 -59 0 -60 0 -61 0 -61 0 -60 0 -59 0 -61 0 -61 0 -60 0 -61 0 -59 0 -60 0 -61 0 -61 0 -60 0 -59 0 -61 0 -61 0 -60 0 -61 0 -61 0 -58 0 -61 0 -61 0 -60 0 -61 0 -59 0 -61 0 -60 0 -61 0 -61 0 -58 0 -61 0 -61 0 -60 0 -61 0 -59 0 -60 0 -61 0 -61 0 -61 0 -31 0 0 -3042 31 0 61 0 61 0 61 0 60 0 59 0 61 0 60 0 61 0 61 0 58 0 61 0 61 0 60 0 61 0 59 0 61 0 60 0 61 0 61 0 58 0 61 0 61 0 60 0 61 0 61 0 59 0 60 0 61 0 61 0 60 0 59 0 61 0 60 0 61 0 61 0 59 0 60 0 61 0 61 0 60 0 59 0 61 0 60 0 61 0 61 0 59 0 60 0 61 0 61 0 60 0 59 0 61 0 60 0 61 0 26 0 35 0c19,2 39,2 60,4 20,2 40,4 59,4 22,2 41,4 61,6 21,2 43,4 61,6 17,4 33,6 45,6l15 4c20,3 39,7 61,11 19,4 39,10 59,14 21,6 41,12 60,18 22,5 41,13 61,19 20,8 41,16 61,24 19,8 39,15 60,25 20,8 40,18 59,28 22,9 41,21 61,31 21,12 41,23 61,35 19,14 41,26 60,39 20,14 41,30 61,45 19,16 39,32 59,47 21,18 41,36 60,55 22,20 41,39 61,59 22,23 41,45 61,68 21,26 41,51 60,79 20,29 41,58 59,90 22,35 43,72 61,109 23,45 43,90 60,139 26,65 46,133 61,206z"/>
  <path class="fil2" d="M588030 40328l130 0 60 0 59 0 61 0 60 0 61 0 61 0 59 0 60 0 61 0 61 0 58 0 61 0 61 0 60 0 59 0 61 0 61 0 60 0 59 0 61 0 60 0 61 0 59 0 60 0 61 0 61 0 59 0 60 0 61 0 61 0 58 0 61 0 61 0 60 0 59 0 61 0 60 0 61 0 61 0 59 0 60 0 61 0 61 0 58 0 61 0 61 0 60 0 59 0 61 0 61 0 60 0 59 0 61 0 60 0 61 0 59 0 60 0 61 0 61 0 59 0 60 0 61 0 61 0 58 0 61 0 61 0 60 0 59 0 61 0 61 0 60 0 61 0 59 0 60 0 61 0 61 0 58 0 61 0 61 0 61 0 58 0 61 0 61 0 60 0 59 0 61 0 60 0 61 0 59 0 61 0 60 0 61 0 59 0 60 0 61 0 61 0 58 0 61 0 61 0 61 0 60 0 59 0 61 0 60 0 61 0 59 0 60 0 61 0 61 0 59 0 60 0 61 0 61 0 58 0 61 0 61 0 60 0 59 0 61 0 60 0 61 0 59 0 61 0 60 0 61 0 59 0 60 0 61 0 61 0 58 0 61 0 61 0 61 0 60 0 59 0 61 0 60 0 61 0 59 0 60 0 61 0 61 0 59 0 60 0 61 0 61 0 58 0 61 0 61 0 60 0 4 0c18,0 38,-1 55,-1l61 0c19,0 41,0 61,-2 19,0 39,0 60,-2 20,0 39,-2 59,-2l61 -4 60 -4c20,0 39,-2 61,-4 20,0 39,-2 59,-4l60 -6c20,-2 42,-4 61,-6 20,-2 39,-4 61,-6 19,-4 39,-5 59,-7 21,-2 41,-6 60,-8l61 -8c20,-4 41,-6 61,-10 19,-2 39,-6 60,-10 20,-4 39,-6 59,-9l61 -12c19,-2 41,-6 60,-10 20,-4 40,-8 61,-12 20,-4 39,-10 59,-13l61 -14 60 -14c20,-4 39,-10 61,-14 19,-5 39,-9 59,-15 21,-4 41,-10 60,-16 20,-6 41,-12 61,-16l61 -17 58 -18c22,-6 42,-12 61,-19 20,-6 41,-12 61,-20 19,-6 39,-12 60,-20l59 -19 61 -22c19,-7 41,-13 61,-21 19,-8 39,-16 60,-24 20,-8 39,-13 59,-21 22,-8 41,-18 61,-26 19,-7 41,-15 60,-23l61 -26 59 -27c21,-8 41,-18 61,-25 21,-10 41,-20 60,-30 20,-10 41,-17 61,-27 19,-10 39,-20 61,-30 19,-11 39,-21 58,-31 22,-10 41,-19 61,-31l61 -32c19,-9 39,-21 60,-33 20,-10 40,-21 59,-33 22,-12 41,-22 61,-33 19,-12 41,-24 60,-36 20,-13 40,-25 61,-37 20,-12 39,-25 59,-37 21,-12 41,-25 61,-37 19,-14 41,-28 60,-39 20,-14 39,-28 61,-41 20,-14 39,-28 59,-42 21,-13 41,-27 60,-41 20,-15 41,-29 61,-43 20,-15 39,-29 61,-45 19,-15 39,-29 58,-45 22,-16 42,-31 61,-47 20,-15 41,-31 61,-47 19,-17 41,-33 61,-49 19,-17 39,-35 58,-51 22,-17 41,-33 61,-51 22,-17 41,-35 61,-52 19,-20 41,-38 60,-55 20,-18 40,-37 59,-57 22,-18 41,-37 61,-57 21,-19 41,-39 60,-59 20,-19 42,-39 61,-60 20,-20 39,-41 61,-61 19,-21 39,-43 59,-64 21,-22 41,-44 60,-65 20,-24 41,-45 61,-69 20,-21 39,-45 61,-68 19,-24 39,-47 58,-73 22,-23 41,-49 61,-72 20,-25 41,-51 61,-76 19,-28 39,-53 60,-79 20,-27 40,-54 59,-82 22,-27 41,-57 61,-84 19,-29 41,-57 61,-86 19,-32 39,-61 60,-92 20,-32 39,-63 59,-94 21,-32 41,-65 61,-96 21,-35 41,-69 60,-104 20,-35 41,-70 61,-106 20,-37 39,-74 59,-111 21,-39 41,-78 60,-120 22,-41 42,-82 61,-123 20,-43 41,-88 61,-131 19,-47 39,-94 59,-141 21,-51 41,-102 60,-151 22,-55 41,-109 61,-164 21,-61 41,-120 61,-180 19,-67 41,-133 58,-202 22,-76 43,-155 61,-233 24,-92 43,-186 61,-280 23,-123 43,-249 60,-376 34,-262 51,-530 51,-802l0 -31247 -51 0 -60 0 -61 0 -61 0 -58 0 -61 0 -61 0 -60 0 -59 0 -61 0 -61 0 -60 0 -59 0 -61 0 -60 0 -61 0 -59 0 -60 0 -61 0 -61 0 -59 0 -60 0 -61 0 -61 0 -58 0 -61 0 -61 0 -60 0 -59 0 -61 0 -61 0 -60 0 -61 0 -59 0 -60 0 -61 0 -61 0 -58 0 -61 0 -61 0 -61 0 -58 0 -61 0 -61 0 -60 0 -59 0 -61 0 -60 0 -61 0 -59 0 -61 0 -60 0 -61 0 -59 0 -60 0 -61 0 -61 0 -58 0 -61 0 -61 0 -60 0 -61 0 -59 0 -61 0 -60 0 -61 0 -59 0 -60 0 -61 0 -61 0 -59 0 -60 0 -61 0 -61 0 -58 0 -61 0 -61 0 -60 0 -59 0 -61 0 -60 0 -61 0 -59 0 -61 0 -60 0 -61 0 -59 0 -60 0 -61 0 -61 0 -60 0 -59 0 -61 0 -61 0 -60 0 -59 0 -61 0 -60 0 -61 0 -59 0 -60 0 -61 0 -61 0 -59 0 -60 0 -61 0 -61 0 -58 0 -61 0 -61 0 -60 0 -59 0 -61 0 -61 0 -60 0 -59 0 -61 0 -60 0 -61 0 -59 0 -60 0 -61 0 -61 0 -61 0 -58 0 -61 0 -61 0 -60 0 -59 0 -61 0 -60 0 -61 0 -59 0 -61 0 -60 0 -61 0 -59 0 -60 0 -61 0 -61 0 -58 0 -61 0 -61 0 -60 0 -59 0 -61 0 -61 0 -60 0 -59 0 -61 0 -60 0 -61 0 -33 0 -26 0c-21,0 -41,0 -60,0 -22,0 -42,0 -61,2 -20,0 -41,0 -61,2l-61 2c-19,0 -39,2 -58,2 -22,2 -41,4 -61,4 -20,2 -41,2 -61,3 -19,2 -39,4 -60,6l-59 4c-22,2 -41,4 -61,6 -19,2 -41,4 -60,8l-61 6 -59 8c-21,2 -41,6 -61,8 -19,3 -41,5 -60,9 -20,2 -39,6 -61,10l-59 10c-21,2 -41,6 -60,10 -20,4 -41,7 -61,11 -20,4 -39,8 -61,12 -19,4 -39,8 -58,12l-61 14c-20,4 -41,7 -61,13 -19,4 -39,10 -61,14 -19,6 -39,10 -58,16 -22,4 -41,9 -61,15l-61 16c-19,6 -41,12 -60,18 -20,5 -39,11 -59,17 -22,6 -41,12 -61,18 -21,6 -41,14 -60,19l-61 20 -61 20c-19,7 -39,13 -59,21 -19,8 -41,14 -60,22 -20,7 -41,15 -61,21l-61 24 -58 23 -61 26c-20,7 -41,15 -61,25 -19,8 -39,18 -60,26 -20,9 -40,17 -59,27 -22,8 -41,18 -61,27 -19,10 -41,18 -61,28 -19,10 -39,19 -60,29l-59 29c-21,12 -41,22 -61,32 -19,10 -41,21 -60,31 -20,12 -39,22 -61,33 -20,10 -39,22 -59,34 -21,11 -41,21 -60,33 -20,12 -42,23 -61,35 -20,12 -41,24 -61,35 -19,14 -39,26 -59,40 -21,11 -41,23 -60,37 -22,12 -41,25 -61,39 -19,12 -41,25 -61,39 -19,14 -39,28 -58,41 -22,14 -41,28 -61,41 -22,14 -41,30 -61,43l-60 45c-20,14 -40,30 -59,45 -22,14 -41,30 -61,45 -21,16 -41,32 -61,47 -19,18 -41,34 -60,49 -20,18 -39,34 -61,51 -19,16 -39,34 -59,51 -21,18 -41,35 -60,53 -20,18 -41,35 -61,53 -20,18 -39,37 -61,55 -19,19 -39,37 -58,57 -22,19 -42,39 -61,58 -20,20 -41,39 -61,61 -19,20 -39,41 -60,61 -20,21 -40,43 -59,62 -22,22 -41,43 -61,65 -19,23 -41,45 -61,68 -19,22 -39,45 -60,69 -20,23 -39,47 -59,70 -22,24 -41,49 -61,73 -19,25 -41,51 -60,76 -20,26 -40,51 -61,78 -20,26 -39,53 -59,81 -21,27 -41,55 -60,82 -22,29 -42,59 -61,86 -20,31 -41,61 -61,90 -19,31 -39,63 -59,92 -21,33 -41,65 -60,98 -22,33 -41,67 -61,100 -20,35 -41,70 -61,106 -19,37 -39,74 -58,109 -22,39 -42,79 -61,118 -22,39 -41,80 -61,121 -19,43 -41,86 -60,129 -20,45 -42,90 -59,137 -22,49 -41,98 -61,149 -21,53 -41,106 -61,161 -21,56 -41,115 -60,174 -22,64 -41,129 -61,194 -20,74 -41,147 -59,221 -21,88 -43,174 -60,262 -75,382 -120,764 -130,1169l0 20 0 21 0 20 0 21 0 20 0 15434c44,22 87,41 130,63l60 27 59 30 61 27 60 27 61 28 61 27 59 28 60 27 61 26 61 25 58 25 61 28 61 23 60 26 59 25 61 24 61 25 60 24 59 23 61 24 60 21 61 24 59 21 60 24 61 21 61 22 59 21 60 20 61 21 61 20 58 22 61 19 61 20 60 17 59 20 61 18 60 19 61 18 61 17 59 16 60 18 61 15 61 18 58 16 61 15 61 16 60 14 59 15 61 14 61 14 60 13 59 14 61 12 60 14 61 11 59 12 60 12 61 12 61 9 59 10 60 12 61 10 61 7 58 10 61 8 61 10 60 8 59 8 61 5 61 8 60 6 61 6 59 6 60 6 61 6 61 3 58 4 61 4 61 4 61 4 58 2 61 2 61 2 60 2 59 2 61 0 60 0 38 2 23 -2c20,0 39,0 59,0l61 -2c19,0 41,0 60,-2 20,0 39,-2 61,-2 19,-2 39,-2 59,-4 21,0 41,-2 60,-4 22,-2 41,-4 61,-6 20,-2 41,-2 61,-6l58 -5c22,-2 42,-4 61,-8 22,-2 41,-6 61,-8l61 -10c19,-2 39,-6 60,-10 20,-4 39,-7 59,-11 21,-2 41,-8 61,-12 19,-4 41,-8 60,-12 20,-6 39,-10 61,-14 20,-5 39,-9 59,-15 21,-6 41,-12 60,-16 20,-6 42,-12 61,-17 20,-6 39,-12 61,-18 19,-8 39,-14 59,-20 21,-8 41,-13 60,-21 20,-8 41,-16 61,-22 19,-8 39,-15 61,-23 19,-8 39,-18 58,-26 22,-8 41,-17 61,-25 20,-10 41,-20 61,-28 19,-9 39,-19 60,-29 20,-12 40,-21 59,-31 22,-12 41,-22 61,-34 19,-9 41,-21 60,-33 20,-12 42,-25 61,-37 20,-12 39,-25 59,-37 21,-14 41,-28 61,-41 21,-14 41,-30 60,-43 20,-16 41,-30 61,-45 20,-16 39,-32 59,-49 21,-16 41,-34 60,-51 22,-18 42,-35 61,-53 20,-20 41,-37 61,-57 19,-21 39,-41 58,-61 22,-21 42,-45 61,-66 22,-22 41,-45 61,-69 19,-25 41,-49 61,-74 19,-27 41,-55 60,-80 20,-30 39,-59 59,-88 22,-32 41,-63 61,-96 21,-34 41,-69 60,-104 22,-37 41,-76 61,-118 20,-43 41,-86 59,-131 21,-51 43,-102 60,-152 22,-61 42,-122 61,-186 24,-79 43,-159 61,-239 27,-133 47,-268 59,-409 9,-110 15,-222 15,-335l0 -7251 45 0 61 0 61 0 58 0 61 0 61 0 60 0 59 0 61 0 61 0 60 0 59 0 61 0 60 0 61 0 59 0 60 0 61 0 61 0 59 0 60 0 61 0 61 0 60 0 59 0 61 0 60 0 61 0 59 0 61 0 60 0 61 0 59 0 60 0 61 0 61 0 58 0 61 0 61 0 60 0 59 0 61 0 61 0 60 0 59 0 61 0 60 0 61 0 59 0 61 0 60 0 61 0 61 0 58 0 61 0 61 0 60 0 59 0 61 0 60 0 61 0 59 0 61 0 60 0 61 0 59 0 60 0 61 0 61 0 58 0 61 0 61 0 61 0 58 0 61 0 61 0 60 0 59 0 61 0 60 0 61 0 61 0 59 0 60 0 61 0 61 0 58 0 61 0 61 0 29 0 0 7251c0,211 -10,419 -29,622 -16,147 -35,290 -61,433 -18,94 -37,190 -61,282 -17,76 -37,151 -58,223 -20,63 -40,125 -61,188 -20,55 -39,108 -61,163 -19,48 -39,95 -60,144 -20,43 -40,89 -59,132 -20,39 -41,80 -61,119 -19,37 -39,74 -61,112 -19,33 -39,68 -60,101 -20,34 -39,65 -61,96 -19,32 -39,61 -59,92 -19,28 -41,57 -60,85 -20,27 -39,54 -61,82 -20,25 -39,51 -61,76 -19,24 -39,49 -58,73 -20,23 -42,46 -61,68 -20,24 -39,45 -61,69 -19,19 -39,41 -61,62 -19,20 -39,41 -58,61 -20,19 -41,39 -61,59 -20,19 -41,37 -61,54 -19,20 -39,38 -60,55 -20,18 -39,35 -59,53 -22,16 -41,33 -61,49 -19,18 -41,33 -60,49 -20,16 -40,31 -61,47 -20,16 -39,31 -59,45 -21,16 -41,29 -61,45 -19,14 -41,27 -60,41 -20,14 -39,28 -61,41 -19,14 -39,28 -59,41 -21,12 -41,26 -60,38 -20,13 -41,25 -61,37 -20,13 -39,25 -61,37 -19,12 -39,23 -58,35 -22,12 -42,22 -61,33 -20,12 -41,24 -61,34 -19,11 -39,21 -60,33 -20,10 -40,20 -61,31 -20,10 -39,20 -59,30 -19,10 -41,19 -61,29 -19,10 -39,20 -60,29l-61 28 -59 27c-21,10 -41,20 -60,28 -20,8 -42,17 -61,25l-61 26 -59 23c-19,8 -41,16 -60,24 -20,7 -39,17 -61,23 -19,8 -39,16 -61,24l-58 21c-22,8 -41,16 -61,22 -20,7 -41,13 -61,21l-60 20 -59 19c-22,8 -41,14 -61,20l-60 19 -61 18c-20,6 -39,12 -59,18l-61 17c-19,6 -41,12 -60,18 -20,4 -39,10 -61,16l-59 15c-21,6 -41,12 -60,16 -20,6 -41,10 -61,16l-61 13c-19,6 -39,10 -60,16 -20,4 -40,8 -59,14l-61 13c-19,4 -39,8 -61,14l-60 12 -59 12c-22,3 -41,9 -61,13l-60 12 -61 10 -59 12c-21,3 -41,7 -60,11 -20,4 -42,6 -61,10l-61 10c-19,4 -39,8 -59,10l-60 9 -61 10 -61 10c-19,2 -39,6 -58,8l-61 8 -61 9 -60 8 -59 8 -61 6 -61 8 -60 6 -59 8 -61 5 -60 6 -61 6 -59 6 -60 6 -61 6 -61 4 -61 6 -58 3 -61 4 -61 4 -60 4 -59 4 -61 4 -60 4 -61 2 -59 4 -61 2 -60 2 -61 4 -59 2 -60 2 -61 2 -61 1 -58 0 -61 2 -61 2 -60 0 -59 2 -61 0 -61 0 -60 0 -59 0 -37 2 -24 -2 -60 0 -61 0 -59 0 -60 0 -61 -2 -61 0 -61 -2 -58 0 -61 -2 -61 0 -60 -1 -59 -2 -61 -2 -60 -2 -61 -2 -59 -2 -61 -4 -60 -2 -61 -2 -59 -4 -60 -2 -61 -4 -61 -2 -58 -4 -61 -4 -61 -4 -61 -2 -58 -3 -61 -4 -61 -6 -60 -4 -59 -4 -61 -4 -60 -6 -61 -4 -61 -6 -59 -4 -60 -5 -61 -6 -61 -4 -58 -6 -61 -6 -61 -6 -60 -6 -59 -6 -61 -5 -61 -8 -60 -6 -59 -6 -61 -8 -60 -6 -61 -8 -59 -5 -60 -8 -61 -8 -61 -8 -59 -8 -60 -8 -61 -7 -61 -8 -58 -8 -61 -8 -61 -8 -60 -10 -59 -7 -61 -10 -61 -8 -60 -10 -61 -10 -59 -7 -60 -10 -61 -10 -61 -10 -58 -10 -61 -9 -61 -12 -60 -10 -59 -10 -61 -11 -61 -10 -60 -12 -59 -10 -61 -11 -60 -12 -61 -10 -59 -12 -60 -12 -61 -11 -61 -14 -59 -12 -60 -11 -61 -14 -61 -12 -58 -14 -61 -11 -61 -14 -60 -14 -59 -13 -61 -14 -61 -14 -60 -14 -61 -15 -59 -14 -60 -16c-85,-21 -130,-33 -130,-33l0 13171z"/>
  <path class="fil3" d="M605321 40328l129 0 61 0 58 0 61 0 61 0 60 0 59 0 61 0 61 0 60 0 59 0 61 0 60 0 61 0 59 0 60 0 61 0 61 0 61 0 58 0 61 0 61 0 60 0 59 0 61 0 60 0 61 0 59 0 61 0 60 0 61 0 59 0 60 0 61 0 61 0 58 0 61 0 61 0 61 0 58 0 61 0 61 0 60 0 59 0 61 0 60 0 61 0 61 0 59 0 60 0 61 0 61 0 58 0 61 0 61 0 60 0 59 0 61 0 61 0 60 0 59 0 61 0 60 0 61 0 59 0 60 0 61 0 61 0 59 0 60 0 61 0 61 0 60 0 59 0 61 0 60 0 61 0 59 0 60 0 61 0 61 0 59 0 60 0 61 0 61 0 58 0 61 0 61 0 60 0 59 0 61 0 61 0 60 0 59 0 61 0 60 0 61 0 61 0 58 0 61 0 61 0 61 0 58 0 61 0 61 0 60 0 59 0 61 0 60 0 61 0 59 0 61 0 60 0 61 0 59 0 60 0 61 0 61 0 58 0 61 0 61 0 61 0 58 0 61 0 61 0 60 0 61 0 59 0 60 0 61 0 61 0 59 0 60 0 61 0 61 0 58 0 61 0 61 0 60 0 59 0 61 0 61 0 60 0 59 0 61 0 60 0 61 0 59 0 60 0 61 0 61 0 4 0c17,0 37,-1 56,-1l59 0c22,0 41,0 61,-2 19,0 41,0 61,-2 19,0 39,-2 60,-2l59 -4 61 -4c19,0 41,-2 60,-4 20,0 40,-2 61,-4l59 -6c21,-2 41,-4 60,-6 20,-2 42,-4 61,-6 20,-4 39,-5 61,-7 19,-2 39,-6 59,-8l60 -8c20,-4 41,-6 61,-10 20,-2 39,-6 61,-10 19,-4 39,-6 58,-9l61 -12 61 -10c19,-4 41,-8 60,-12 20,-4 40,-10 59,-13l61 -14 61 -14c19,-4 41,-10 60,-14 20,-5 39,-9 61,-15 20,-4 39,-10 59,-16 21,-6 41,-12 60,-16l61 -17 61 -18c19,-6 39,-12 58,-19 22,-6 42,-12 61,-20 20,-6 41,-12 61,-20l61 -19 58 -22c22,-7 41,-13 61,-21 20,-8 41,-16 61,-24 19,-8 39,-13 60,-21 20,-8 39,-18 59,-26l61 -23 60 -26 61 -27c20,-8 39,-18 59,-27 21,-8 41,-18 61,-28 19,-10 41,-17 60,-27 20,-10 39,-20 61,-32 20,-9 39,-19 59,-29 21,-10 41,-19 60,-31l61 -32 61 -33 60 -33c20,-12 40,-22 59,-33 22,-12 41,-24 61,-38 19,-11 41,-23 61,-35 19,-12 39,-25 60,-37 20,-12 39,-25 59,-37 21,-14 41,-28 61,-39 19,-14 41,-28 60,-41 20,-14 39,-28 61,-42 20,-13 39,-27 59,-41 21,-15 41,-29 60,-45 20,-13 42,-27 61,-43 20,-15 39,-31 61,-45 19,-16 39,-31 59,-47 21,-15 41,-31 60,-49 20,-15 41,-31 61,-47 19,-17 39,-35 61,-51 19,-17 39,-35 58,-51 22,-17 41,-35 61,-54 20,-18 41,-36 61,-53 19,-20 39,-37 60,-57 20,-18 40,-37 59,-57 22,-19 41,-39 61,-59 21,-19 41,-39 60,-60 20,-20 42,-41 61,-61 20,-21 39,-43 61,-64 19,-22 39,-44 59,-65 21,-24 41,-45 60,-69 20,-23 41,-45 61,-68 20,-24 39,-49 61,-73 19,-23 39,-49 58,-74 22,-23 42,-49 61,-74 20,-28 41,-53 61,-81 19,-25 39,-52 60,-80 20,-27 40,-57 59,-84 22,-29 41,-59 61,-86 21,-32 41,-61 61,-92 19,-32 41,-63 60,-94 20,-32 39,-65 59,-98 22,-33 41,-67 61,-102 21,-35 41,-70 60,-106 20,-37 41,-74 61,-113 20,-39 39,-78 59,-118 21,-41 41,-82 60,-123 22,-45 42,-88 61,-133 20,-45 41,-92 61,-139 19,-51 41,-102 59,-153 21,-53 41,-107 60,-162 22,-61 41,-120 61,-180 21,-67 41,-133 61,-202 21,-76 41,-155 58,-233 24,-92 43,-186 61,-280 24,-125 45,-249 61,-376 33,-262 51,-530 51,-802l0 -31247 -51 0 -61 0 -61 0 -58 0 -61 0 -61 0 -60 0 -59 0 -61 0 -61 0 -60 0 -59 0 -61 0 -60 0 -61 0 -59 0 -60 0 -61 0 -61 0 -59 0 -60 0 -61 0 -61 0 -58 0 -61 0 -61 0 -60 0 -59 0 -61 0 -61 0 -60 0 -61 0 -59 0 -60 0 -61 0 -61 0 -58 0 -61 0 -61 0 -60 0 -59 0 -61 0 -61 0 -60 0 -59 0 -61 0 -60 0 -61 0 -59 0 -60 0 -61 0 -61 0 -59 0 -60 0 -61 0 -61 0 -60 0 -59 0 -61 0 -60 0 -61 0 -59 0 -61 0 -60 0 -61 0 -59 0 -60 0 -61 0 -61 0 -58 0 -61 0 -61 0 -61 0 -58 0 -61 0 -61 0 -60 0 -59 0 -61 0 -60 0 -61 0 -61 0 -59 0 -60 0 -61 0 -61 0 -58 0 -61 0 -61 0 -60 0 -59 0 -61 0 -61 0 -60 0 -59 0 -61 0 -60 0 -61 0 -59 0 -60 0 -61 0 -61 0 -59 0 -60 0 -61 0 -61 0 -60 0 -59 0 -61 0 -60 0 -61 0 -59 0 -60 0 -61 0 -61 0 -59 0 -60 0 -61 0 -61 0 -58 0 -61 0 -61 0 -60 0 -59 0 -61 0 -61 0 -60 0 -59 0 -61 0 -60 0 -61 0 -61 0 -58 0 -61 0 -61 0 -61 0 -58 0 -61 0 -61 0 -60 0 -59 0 -61 0 -60 0 -61 0 -59 0 -61 0 -60 0 -61 0 -59 0 -60 0 -61 0 -61 0 -33 0 -25 0c-22,0 -42,0 -61,0 -20,0 -41,0 -61,2 -19,0 -39,0 -61,2l-58 2c-22,0 -41,2 -61,2 -21,2 -41,4 -61,4 -19,2 -41,2 -60,3 -20,2 -39,4 -61,6l-59 4c-21,2 -41,4 -60,6 -20,2 -42,6 -61,8l-61 6 -59 8c-21,2 -41,6 -60,8 -20,3 -41,5 -61,9 -19,2 -39,6 -61,10l-58 10 -61 10c-20,4 -41,7 -61,11 -19,4 -39,8 -60,12 -20,4 -40,8 -59,12l-61 14c-19,4 -41,7 -61,13 -19,4 -39,10 -60,14 -20,6 -39,10 -59,16 -21,4 -41,9 -61,15l-60 16c-20,6 -41,12 -61,18 -20,5 -39,11 -59,17 -21,6 -41,12 -60,18 -22,6 -42,14 -61,19l-61 20c-19,6 -39,14 -60,20 -20,7 -40,13 -59,21 -22,8 -41,14 -61,22 -19,7 -41,15 -61,23 -19,6 -39,14 -60,22 -20,8 -39,15 -59,23l-61 26c-19,7 -41,15 -60,25 -20,8 -40,18 -61,26 -20,9 -39,17 -59,27 -21,8 -41,18 -60,27 -20,10 -42,20 -61,28 -20,10 -39,19 -61,29l-59 31 -60 30c-20,12 -41,21 -61,33 -20,10 -39,20 -61,31 -19,12 -39,22 -58,34 -22,11 -42,21 -61,33 -22,12 -41,23 -61,35 -19,14 -41,26 -60,37 -20,12 -40,24 -59,38 -22,11 -41,23 -61,37 -21,12 -41,25 -61,39 -19,14 -41,25 -60,39 -20,14 -39,28 -61,41 -20,14 -39,28 -59,41 -21,16 -41,30 -60,43 -20,16 -41,30 -61,45 -20,14 -39,30 -61,45 -19,16 -39,30 -58,45 -22,16 -42,34 -61,49 -20,16 -41,32 -61,47 -19,18 -39,34 -61,51 -19,18 -39,34 -58,51 -22,18 -41,35 -61,53 -20,18 -41,35 -61,53 -19,19 -39,37 -60,57 -20,17 -39,37 -59,55 -22,19 -41,39 -61,58 -19,22 -41,41 -60,61 -20,20 -40,41 -61,61 -20,21 -39,43 -59,64 -21,22 -41,43 -61,65 -21,21 -41,45 -60,66 -20,24 -41,45 -61,69 -19,23 -39,47 -59,70 -21,26 -41,49 -60,75 -20,23 -41,49 -61,74 -20,26 -41,53 -61,78 -19,28 -39,53 -58,81 -22,27 -42,55 -61,82 -22,29 -41,59 -61,88 -19,29 -41,59 -61,88 -19,31 -39,63 -60,94 -20,31 -39,63 -59,96 -21,33 -41,67 -61,102 -19,33 -41,68 -60,106 -20,35 -39,72 -61,109 -20,37 -39,77 -59,116 -21,39 -41,80 -60,121 -22,43 -42,86 -61,129 -20,45 -41,92 -61,137 -19,49 -39,100 -59,149 -21,53 -41,106 -60,161 -22,56 -41,115 -61,174 -21,64 -41,129 -61,196 -21,72 -41,146 -58,221 -24,86 -43,174 -61,262 -74,380 -119,762 -129,1167l0 20 0 21 0 20 0 21 0 20 0 8183c41,-37 84,-72 129,-108 20,-17 39,-33 61,-49 19,-15 39,-31 58,-47 22,-15 42,-29 61,-45 20,-15 41,-29 61,-45 19,-13 39,-29 60,-43 20,-13 40,-27 59,-43l61 -41c19,-14 41,-25 61,-39l60 -39c20,-14 39,-26 59,-39 22,-12 41,-26 61,-38 19,-11 41,-23 60,-37 20,-12 40,-23 61,-35 20,-12 39,-24 59,-35 21,-12 41,-22 60,-34l61 -33 61 -33c19,-10 39,-22 61,-31 19,-12 39,-22 58,-32l61 -31 61 -29 60 -30c20,-10 40,-19 59,-29l61 -28 60 -27 61 -27 59 -26 61 -25 60 -26 61 -25 59 -24 60 -23c20,-8 41,-16 61,-24l61 -21c19,-8 39,-16 58,-24 22,-6 42,-13 61,-21l61 -22 61 -19c19,-8 39,-14 58,-22l61 -19c20,-6 41,-12 61,-20l60 -20 59 -17 61 -20 60 -17 61 -18 61 -16 59 -17 60 -16 61 -18 61 -15 58 -14 61 -16 61 -15 60 -14 59 -14 61 -13 61 -14 60 -14 59 -12 61 -13 60 -12 61 -12 59 -12 60 -11 61 -12 61 -10 59 -12 60 -9 61 -10 61 -10 60 -10 59 -10 61 -7 60 -10 61 -8 59 -10 60 -8 61 -7 61 -8 59 -6 60 -8 61 -8 61 -6 58 -7 61 -6 61 -6 60 -6 59 -6 61 -6 61 -6 60 -4 59 -5 61 -4 60 -6 61 -4 61 -4 58 -4 61 -4 61 -4 61 -4 58 -2 61 -4 61 -2 60 -4 59 -1 61 -2 60 -4 61 -2 59 -2 61 -2 60 -2 61 0 59 -2 60 -2 61 0 61 -2 58 0 61 0 61 -2 61 0 58 0 61 0 61 0 60 2 61 0 59 0 60 0 61 2 61 0 59 2 60 0 61 2 61 2 58 2 61 2 61 0 60 4 59 2 61 2 61 1 60 2 59 4 29 0 32 2 60 2 61 4 59 4 60 4 61 2 61 4 60 6 59 4 61 4 61 4 60 5 59 6 61 4 60 6 61 6 59 6 60 6 61 6 61 5 59 8 60 6 61 6 61 8 58 8 61 6 61 7 60 8 59 8 61 8 61 8 60 7 61 8 59 8 60 10 61 8 61 10 58 7 61 10 61 10 61 8 58 10 61 9 61 10 60 10 59 10 61 10 60 9 61 12 59 10 61 10 60 11 61 10 59 12 60 12 61 9 61 12 60 12 59 12 61 11 61 12 60 12 59 12 61 11 60 12 61 12 59 14 60 11 61 14 61 12 59 14 60 11 61 14 61 14 58 13 61 14 61 14 60 13 59 14 61 16 60 14 61 15 0 2645 -61 -29 -60 -32 -61 -29 -59 -29 -60 -30 -61 -29 -61 -27 -58 -30 -61 -27 -61 -28 -60 -27 -59 -27 -61 -28 -61 -25 -60 -28 -59 -25 -61 -26 -60 -25 -61 -24 -59 -25 -60 -24 -61 -23 -61 -24 -59 -23 -60 -24 -61 -21 -61 -22 -60 -21 -59 -22 -61 -21 -60 -20 -61 -21 -59 -20 -61 -19 -60 -20 -61 -20 -59 -17 -60 -18 -61 -17 -61 -18 -58 -18 -61 -17 -61 -16 -61 -16 -58 -15 -61 -16 -61 -16 -60 -13 -59 -16 -61 -14 -60 -13 -61 -14 -61 -12 -59 -14 -60 -11 -61 -12 -61 -12 -58 -12 -61 -9 -61 -12 -60 -10 -59 -10 -61 -9 -61 -10 -60 -8 -59 -10 -61 -8 -60 -7 -61 -8 -59 -8 -60 -6 -61 -8 -61 -6 -59 -6 -60 -5 -61 -6 -61 -6 -60 -4 -36 -4 -23 0 -61 -6 -60 -4 -61 -2 -59 -4 -60 -2 -61 -2 -61 -2 -59 -2 -60 0 -61 -2c-20,0 -39,0 -61,0l-58 0 -61 2 -61 2 -60 0c-20,2 -40,2 -59,4 -22,0 -41,0 -61,2l-61 4 -60 2 -59 6 -61 4c-19,2 -41,4 -60,6 -20,0 -40,4 -61,6l-61 6 -58 5 -61 8 -61 8 -61 8 -58 10c-22,4 -41,6 -61,10 -20,3 -41,5 -61,9 -19,4 -39,8 -60,12 -20,4 -39,8 -59,12 -22,4 -41,8 -61,12 -19,3 -41,7 -60,13 -20,4 -40,8 -61,14l-59 14c-21,4 -41,9 -61,15 -19,4 -41,10 -60,16 -20,4 -39,10 -61,16l-59 17c-21,6 -41,12 -60,18 -20,6 -41,14 -61,19 -20,6 -39,14 -61,20 -19,8 -39,14 -58,22 -22,5 -42,13 -61,21 -20,6 -41,14 -61,22 -19,7 -39,15 -61,23 -19,8 -39,16 -58,24 -22,9 -41,17 -61,25 -21,10 -41,18 -61,27 -19,8 -41,18 -60,28 -20,10 -39,17 -61,27 -20,10 -39,22 -59,32 -21,9 -41,19 -60,29 -20,12 -42,22 -61,33 -20,10 -39,22 -61,34 -19,11 -39,23 -59,35 -21,12 -41,23 -60,35 -20,14 -41,25 -61,39 -19,12 -41,26 -61,37 -19,14 -39,28 -58,43 -22,14 -41,28 -61,42 -20,15 -41,29 -61,45 -19,15 -39,31 -60,47 -20,15 -40,31 -59,47 -22,17 -41,33 -61,50 -21,18 -41,36 -61,53 -19,18 -41,36 -60,55 -20,20 -39,37 -59,57 -21,19 -41,39 -61,61 -21,21 -41,41 -60,62 -20,24 -41,45 -61,67 -20,23 -39,47 -59,70 -21,26 -41,49 -60,75 -22,25 -42,51 -61,78 -20,27 -41,55 -61,82 -19,30 -39,59 -60,88 -20,32 -40,63 -59,94 -22,34 -41,67 -61,100 -21,37 -41,73 -61,110 -19,39 -41,78 -60,117 -20,43 -39,86 -59,129 -22,47 -41,94 -61,143 -21,53 -41,106 -60,161 -22,61 -41,121 -61,184 -22,72 -41,147 -59,221 -23,94 -43,188 -60,286 -26,143 -47,290 -61,442 -16,175 -24,355 -24,541 0,186 8,366 24,540 14,153 35,300 61,442 17,98 37,192 60,286 18,75 37,149 59,221 20,61 39,124 61,184 19,55 39,108 60,161 20,49 39,96 61,143 20,43 39,86 59,129 19,39 41,78 60,118 20,37 40,72 61,107 20,36 39,69 61,102 19,31 39,63 59,94 21,29 41,59 60,88 20,28 41,55 61,82 19,26 39,53 61,79 19,23 39,49 60,72 20,24 39,47 59,71 20,23 41,45 61,66 19,22 39,43 60,65 20,19 40,39 61,58 20,20 39,40 59,59 19,18 41,35 60,55 20,18 40,35 61,53 20,16 39,33 61,49 19,17 39,33 59,49 21,15 41,31 60,47 20,13 41,29 61,43 20,14 39,29 61,43 19,14 39,27 58,41 20,14 42,25 61,39 20,12 41,26 61,37 19,12 39,26 60,38 20,11 40,21 59,33 22,12 41,23 61,35 19,10 41,20 61,31 19,10 39,20 60,32 20,9 39,19 59,29 22,10 41,20 61,27 19,10 41,20 60,30 20,8 40,17 61,25 20,8 39,18 61,26 19,8 39,15 58,23 22,8 42,16 61,24 20,8 41,15 61,23 19,6 39,14 61,22 19,6 39,13 58,19 22,8 41,14 61,20 20,8 41,14 61,19 19,6 39,12 60,18 20,6 39,12 59,18 22,6 41,11 61,17 19,4 41,10 60,16 20,4 40,10 61,14l59 15c21,4 41,8 61,14 19,4 41,8 60,12 20,4 39,8 61,14 20,3 39,5 59,9 21,4 41,8 60,12 20,4 41,6 61,10 20,4 39,8 61,10 19,4 39,6 58,9l61 8 61 8 61 8 58 8 61 6c21,2 41,4 61,5 19,2 41,2 60,4l61 6 59 4 60 4 61 2c20,2 39,2 61,4 19,0 39,2 59,2l60 2 61 0 61 2 58 0c22,0 41,0 61,0l61 0 60 -2 59 -2 61 -2 61 -2 60 -2 59 -4 61 -2 60 -4 61 -4 23 -2 36 -4 60 -3 61 -6 61 -6 60 -6 59 -6 61 -6 61 -8 60 -5 59 -8 61 -8 60 -8 61 -10 59 -8 60 -9 61 -10 61 -8 59 -12 60 -10 61 -9 61 -12 58 -12 61 -12 61 -11 60 -12 59 -14 61 -13 61 -12 60 -14 61 -16 59 -13 60 -16 61 -14 61 -15 58 -16 61 -18 61 -15 61 -16 58 -18 61 -17 61 -18 60 -19 59 -18 61 -20 60 -19 61 -20 59 -19 61 -20 60 -21 61 -20 59 -22 60 -21 61 -22 61 -23 60 -22 59 -23 61 -24 61 -23 60 -24 59 -25 61 -24 60 -25 61 -25 59 -26 60 -25 61 -28 61 -25 59 -28 60 -27 61 -27 61 -28 58 -27 61 -30 61 -29 60 -27 59 -30 61 -29 60 -31 61 -30 0 2645 -61 14 -60 15 -61 14 -59 14 -60 14 -61 13 -61 14 -58 14 -61 13 -61 14 -60 12 -59 14 -61 13 -61 12 -60 12 -59 13 -61 12 -60 12 -61 14 -59 11 -60 12 -61 12 -61 12 -59 11 -60 10 -61 12 -61 12 -60 9 -59 12 -61 12 -60 10 -61 9 -59 12 -61 10 -60 10 -61 10 -59 9 -60 10 -61 10 -61 10 -58 10 -61 9 -61 10 -61 8 -58 10 -61 8 -61 9 -60 8 -59 8 -61 10 -60 8 -61 7 -61 8 -59 8 -60 8 -61 6 -61 8 -58 8 -61 5 -61 8 -60 6 -59 6 -61 8 -61 6 -60 6 -59 5 -61 6 -60 4 -61 6 -59 6 -60 4 -61 6 -61 4 -59 4 -60 3 -61 4 -61 4 -60 4 -59 4 -61 4 -60 2 -32 2 -29 0 -59 4 -60 2 -61 2 -61 2 -59 2 -60 2 -61 2 -61 2 -58 2 -61 1 -61 0 -60 2 -59 2 -61 0 -61 2 -60 0 -59 0 -61 0 -60 2 -61 0 -61 0 -58 0 -61 -2 -61 0 -61 0 -58 0 -61 -2 -61 0 -60 -2 -59 -2 -61 -1 -60 0 -61 -2 -59 -2 -61 -2 -60 -4 -61 -2 -59 -2 -60 -4 -61 -2 -61 -4 -58 -2 -61 -4 -61 -4 -61 -4 -58 -4 -61 -3 -61 -6 -60 -4 -61 -4 -59 -6 -60 -4 -61 -6 -61 -6 -59 -6 -60 -5 -61 -6 -61 -6 -58 -8 -61 -6 -61 -8 -60 -8 -59 -5 -61 -8 -61 -8 -60 -8 -59 -10 -61 -8 -60 -9 -61 -8 -59 -10 -60 -10 -61 -10 -61 -9 -60 -10 -59 -12 -61 -10 -61 -11 -60 -12 -59 -12 -61 -12 -60 -11 -61 -12 -59 -14 -60 -14 -61 -13 -61 -14 -59 -14 -60 -13 -61 -16 -61 -14 -58 -15 -61 -16 -61 -18 -60 -15 -59 -18 -61 -16 -61 -17 -60 -18 -61 -19 -59 -18 -60 -20c-20,-5 -41,-13 -61,-19 -20,-6 -39,-14 -61,-20l-58 -19 -61 -22c-20,-8 -41,-14 -61,-21 -19,-8 -39,-14 -61,-22l-58 -21c-22,-8 -41,-16 -61,-24l-61 -23 -60 -24 -59 -23 -61 -26 -60 -25 -61 -26 -59 -25 -61 -28 -60 -27 -61 -27c-19,-10 -39,-20 -59,-30l-60 -29 -61 -30 -61 -29c-19,-12 -39,-21 -58,-31 -22,-12 -42,-22 -61,-34l-61 -31 -61 -33 -60 -35c-20,-12 -39,-24 -59,-36 -21,-11 -41,-23 -61,-35l-60 -37c-20,-12 -39,-24 -61,-37 -20,-12 -39,-26 -59,-37l-60 -40c-20,-13 -42,-27 -61,-41l-61 -41c-19,-14 -39,-27 -59,-43 -21,-14 -41,-27 -60,-43 -20,-14 -41,-29 -61,-43 -19,-16 -39,-31 -61,-47 -19,-16 -39,-31 -58,-47 -22,-16 -41,-31 -61,-47 -45,-35 -88,-72 -129,-108l0 14430z"/>
  <path class="fil4" d="M524429 6364c644,-2398 -527,-4344 -2616,-4344l-45113 0c-2092,0 -4311,1946 -4957,4344l-8189 30407c-646,2402 525,4346 2616,4346l45113 0c2091,0 4309,-1944 4957,-4346l8189 -30407zm-7502 30879c-666,2473 -2954,4479 -5110,4479l-46508 0c-2156,0 -3360,-2006 -2696,-4479l8441 -31348c668,-2475 2954,-4480 5110,-4480l46509 0c2155,0 3361,2005 2698,4480l-8444 31348z"/>
  <path class="fil5" d="M478740 3810l13555 0c1893,0 2968,1611 2400,3592l-8108 28269c-572,1975 -2569,3585 -4460,3585l-13557 0c-1889,0 -2966,-1610 -2396,-3585l8111 -28269c565,-1981 2562,-3592 4455,-3592z"/>
  <path class="fil6" d="M491168 3810l15589 0c1889,0 936,1611 362,3592l-8107 28269c-568,1975 -532,3585 -2427,3585l-15590 0c-1897,0 -2965,-1610 -2394,-3585l8107 -28269c572,-1981 2567,-3592 4460,-3592z"/>
  <path class="fil7" d="M506136 3810l13553 0c1897,0 2970,1611 2398,3592l-8104 28269c-574,1975 -2573,3585 -4468,3585l-13545 0c-1895,0 -2970,-1610 -2402,-3585l8111 -28269c567,-1981 2560,-3592 4457,-3592z"/>
  <path class="fil8" d="M476227 13442l-762 4001c-53,237 -74,517 -74,824 0,558 340,993 1012,993 773,0 1288,-517 1537,-1807l763 -4011 1486 0 -754 3952c-403,2103 -1331,3115 -3218,3115 -1433,8 -2310,-734 -2310,-2220 0,-300 41,-640 103,-969l733 -3878 1484 0zm32002 10876c92,-45 317,-139 679,-276 110,208 216,398 317,568 100,174 222,353 363,537 -382,92 -635,184 -762,274 -106,-229 -305,-597 -597,-1103zm2868 -448c157,92 464,208 924,345 -294,252 -525,472 -693,654 -170,184 -409,462 -718,828 677,0 1260,-10 1742,-36l-86 588c-478,-22 -916,-35 -1312,-35l-848 0c-152,828 -270,1411 -350,1758l1229 0c368,0 780,-12 1236,-34l-88 586c-449,-24 -858,-36 -1226,-36l-1102 0c76,621 333,1167 769,1639 439,470 960,763 1564,877 -217,139 -385,270 -503,395 -119,128 -203,261 -252,398 -544,-321 -985,-683 -1322,-1085 -332,-403 -581,-914 -744,-1533 -278,527 -597,1005 -957,1431 -360,423 -828,842 -1398,1255 -72,-92 -186,-190 -338,-291 -155,-104 -314,-180 -476,-225 333,-137 640,-310 928,-517 284,-206 546,-431 779,-672 235,-241 431,-505 587,-793 157,-285 284,-579 388,-879l-509 0c-454,0 -949,12 -1490,36l88 -586c533,22 1026,34 1480,34l550 0c155,-643 273,-1230 353,-1758l-384 0c-395,0 -877,13 -1447,35l88 -588c562,26 1042,36 1437,36l1018 0c468,-666 830,-1275 1083,-1827zm-6355 1069l-178 1171 1314 0 180 -1171 -1316 0zm-254 1688l-204 1345 1316 0 201 -1345 -1313 0zm-476 3138c317,-47 768,-116 1347,-208l162 -1069 -1317 0 -192 1277zm-756 -5376c335,21 672,33 1013,33l2374 0c341,0 711,-12 1108,-33l-88 583c-307,-21 -587,-33 -844,-33l-675 4479c319,-68 613,-125 873,-172 -100,300 -145,495 -129,585 -349,47 -623,92 -828,139l-114 758c-53,345 -96,724 -131,1137l-891 0c120,-413 206,-792 259,-1137l92 -621c-317,47 -726,128 -1224,241 -499,118 -1012,245 -1540,380 -8,-135 -69,-390 -184,-758 170,0 471,-35 906,-103l746 -4928c-284,0 -556,24 -818,69l95 -619zm-5898 583l-123 828 2713 0 125 -828 -2715 0zm-208 1381l-129 861 2714 0 131 -861 -2716 0zm-471 -1931l4283 0c-90,413 -172,862 -245,1343l-119 793c-61,392 -106,793 -141,1208l-2036 0c25,390 123,781 290,1171 583,-298 1057,-621 1419,-965 174,160 401,344 679,552 -875,368 -1501,677 -1879,929 384,645 1032,1126 1946,1449 -364,159 -664,366 -901,619 -622,-368 -1147,-883 -1570,-1551 -421,-665 -671,-1401 -748,-2204l-720 0 -448 2962c239,-90 626,-296 1155,-621 49,231 131,439 244,621 -567,207 -1286,552 -2151,1034 -133,-229 -245,-425 -333,-584 196,-186 339,-472 427,-863l666 -4411c70,-458 131,-953 182,-1482zm-3986 2240c448,23 885,35 1309,35 423,0 850,-12 1277,-35l-88 585c-449,-21 -815,-33 -1099,-33l-144 965c481,0 976,-12 1489,-35l-97 656c-508,-24 -1001,-36 -1480,-36l-257 1690c466,-276 875,-542 1224,-795 43,276 92,507 150,689 -180,71 -489,237 -924,501 -436,265 -816,535 -1141,811 -139,-208 -292,-403 -462,-587 229,-206 382,-470 458,-791l231 -1518c-397,0 -852,12 -1364,36l99 -656c562,23 1013,35 1353,35l145 -965c-170,0 -427,12 -767,33l88 -585zm548 -826c-595,573 -1024,975 -1286,1206 -190,-231 -361,-415 -509,-552 471,-322 906,-713 1300,-1171 395,-460 743,-930 1041,-1416 235,139 544,243 930,312 -325,278 -662,632 -1010,1069l593 0c368,0 863,-12 1492,-36l-96 621c-619,-22 -1112,-33 -1478,-33l-977 0zm20239 -10486l309 2199c72,513 125,875 166,1194l20 0c113,-300 229,-628 442,-1175l920 -2218 1568 0 -1805 3620c-671,1341 -1268,2257 -1938,2888 -589,556 -1292,804 -1621,857l-329 -1270c235,-73 566,-196 856,-402 339,-237 628,-534 814,-877 51,-72 49,-135 32,-246l-1001 -4570 1567 0zm-3861 1052c-114,-22 -258,-42 -401,-42 -960,0 -1662,1177 -1662,2115 0,495 197,836 610,836 443,0 989,-505 1216,-1743l237 -1166zm-431 3991c8,-299 39,-638 71,-1000l-32 0c-464,836 -1102,1116 -1691,1116 -906,0 -1527,-703 -1527,-1754 0,-1703 1124,-3518 3610,-3518 599,0 1247,113 1672,246l-537 2641c-123,650 -215,1641 -197,2269l-1369 0zm-6697 -3713c153,31 319,52 568,52 896,0 1484,-579 1484,-1270 0,-668 -484,-885 -1063,-885 -278,0 -474,20 -597,51l-392 2052zm-867 -3103c444,-114 1145,-186 1816,-186 617,0 1341,101 1845,464 466,319 753,806 751,1474 2,877 -399,1537 -947,1959 -568,445 -1371,641 -2216,641 -249,0 -456,-20 -609,-42l-476 2506 -1452 0 1288 -6816zm-7160 6816l639 -3404c123,-638 205,-1196 268,-1639l1319 0 -101 836 19 0c474,-661 1104,-949 1776,-949 822,0 1288,505 1288,1372 0,227 -41,609 -82,856l-558 2928 -1486 0 526 -2793c32,-177 51,-382 51,-570 0,-350 -123,-597 -493,-597 -485,0 -1053,609 -1259,1723l-423 2237 -1484 0zm-4058 -2000c0,589 290,980 805,980 814,0 1268,-1186 1268,-2053 0,-464 -195,-960 -794,-960 -856,0 -1289,1249 -1279,2033zm3610 -1083c0,1846 -1259,3199 -3011,3199 -1278,0 -2136,-838 -2136,-2085 0,-1754 1218,-3187 3013,-3187 1349,0 2134,928 2134,2073zm-6178 -2588c-404,0 -713,-280 -713,-723 12,-507 403,-847 858,-847 432,0 741,290 741,734 0,525 -403,836 -877,836l-9 0zm-1878 5671l959 -5043 1484 0 -959 5043 -1484 0zm-5810 0l640 -3404c123,-638 205,-1196 266,-1639l1322 0 -102 836 19 0c476,-661 1105,-949 1774,-949 826,0 1290,505 1290,1372 0,227 -41,609 -84,856l-556 2928 -1484 0 525 -2793c31,-177 53,-382 53,-570 0,-350 -126,-597 -496,-597 -485,0 -1053,609 -1258,1723l-423 2237 -1486 0z"/>
  <path class="fil9" d="M347295 7580l-7950 17226 -809 0 0 -20975 -11296 0 0 35497 9589 0c2516,0 4802,-1462 5859,-3749l7953 -17226 806 0 0 20975 11294 0 0 -35497 -9585 0c-2517,0 -4806,1463 -5861,3749z"/>
  <path class="fil9" d="M304921 8496l-4707 16312 -804 0 -4707 -16312c-798,-2764 -3326,-4667 -6200,-4667l-11280 0 0 35501 11292 0 0 -20979 809 0 6454 20979 8068 0 6454 -20979 805 0 0 20979 11296 0 0 -35501 -11280 0c-2874,0 -5404,1903 -6200,4667z"/>
  <path class="fil9" d="M367582 19967l0 19363 11273 0 0 -11296 12124 0c5266,0 9733,-3371 11397,-8067l-34794 0z"/>
  <path class="fil10" d="M383414 18353l19425 0c148,-746 232,-1517 240,-2306l0 -37 0 -39 0 -39c0,-6684 -5417,-12101 -12100,-12101l0 0 -25012 0c1519,8260 8749,14522 17447,14522z"/>
  <path class="fil11" d="M220904 17183c0,9491 -7680,17184 -17151,17184 -9473,0 -17153,-7693 -17153,-17184 0,-9489 7680,-17183 17153,-17183 9471,0 17151,7694 17151,17183z"/>
  <path class="fil12" d="M199745 17183c0,9491 -7680,17184 -17153,17184 -9471,0 -17151,-7693 -17151,-17184 0,-9489 7680,-17183 17151,-17183 9473,0 17153,7694 17153,17183z"/>
  <path class="fil13" d="M193171 3657c-4001,3144 -6570,8034 -6570,13526 0,5491 2569,10383 6570,13529 4004,-3146 6572,-8038 6572,-13529 0,-5492 -2568,-10382 -6572,-13526z"/>
  <path class="fil11" d="M220873 26302l0 -613 -161 0 -184 421 -184 -421 -160 0 0 613 113 0 0 -462 173 397 117 0 172 -399 0 464 114 0zm-1016 0l0 0 0 -509 205 0 0 -104 -522 0 0 104 205 0 0 509 112 0z"/>
  <path class="fil14" d="M169256 42870l-973 0 0 -4544 954 0 0 554c0,0 838,-676 1337,-668 967,16 1544,840 1544,840 0,0 470,-840 1527,-840 1565,0 1794,1431 1794,1431l0 3207 -934 0 0 -2825c0,0 4,-859 -1012,-859 -1050,0 -1145,859 -1145,859l0 2825 -973 0 0 -2845c0,0 -94,-896 -973,-896 -1144,0 -1165,916 -1165,916l19 2845z"/>
  <path class="fil14" d="M198855 38212c-498,-10 -1335,668 -1335,668l0 -552 -956 0 0 4540 973 0 -17 -2843c0,0 21,-914 1164,-914 212,0 376,51 507,131l0 -4 318 -885c-192,-80 -410,-137 -654,-141z"/>
  <path class="fil14" d="M212566 38212c-499,-10 -1337,668 -1337,668l0 -552 -955 0 0 4540 975 0 -20 -2843c0,0 22,-914 1165,-914 212,0 378,51 507,131l0 -4 317 -885c-192,-80 -409,-137 -652,-141z"/>
  <path class="fil14" d="M178587 38193c-1457,0 -2228,1309 -2232,2404 -4,1119 879,2414 2273,2414 814,0 1482,-601 1482,-601l-2 462 959 0 0 -4546 -963 0 0 571c0,0 -627,-704 -1517,-704zm186 926l0 0c783,0 1419,681 1419,1519 0,838 -636,1513 -1419,1513 -781,0 -1414,-675 -1414,-1513 0,-838 633,-1519 1414,-1519z"/>
  <path class="fil14" d="M206525 38193c-1455,0 -2226,1309 -2230,2404 -4,1119 877,2414 2271,2414 814,0 1484,-601 1484,-601l-2 462 957 0 0 -4546 -961 0 0 571c0,0 -628,-704 -1519,-704zm188 926l0 0c783,0 1417,681 1417,1519 0,838 -634,1513 -1417,1513 -783,0 -1416,-675 -1416,-1513 0,-838 633,-1519 1416,-1519z"/>
  <path class="fil14" d="M215724 38193c-1456,0 -2228,1309 -2232,2404 -4,1119 879,2414 2273,2414 815,0 1482,-601 1482,-601l-2 462 960 0 0 -6341 -962 0 0 2366c0,0 -628,-704 -1519,-704zm188 926l0 0c781,0 1417,681 1417,1519 0,838 -636,1513 -1417,1513 -783,0 -1415,-675 -1415,-1513 0,-838 632,-1519 1415,-1519z"/>
  <path class="fil14" d="M183990 43022c-993,0 -1909,-611 -1909,-611l419 -649c0,0 867,401 1490,401 403,0 1079,-131 1086,-535 10,-426 -1135,-554 -1135,-554 0,0 -1707,-23 -1707,-1431 0,-885 853,-1450 1946,-1450 632,0 1813,554 1813,554l-476 744c0,0 -912,-365 -1394,-382 -407,-14 -897,180 -897,534 0,963 2843,-74 2843,1870 0,1276 -1157,1509 -2079,1509z"/>
  <path class="fil14" d="M187651 37010l0 1322 -848 0 0 955 848 0 0 2283c0,0 -77,1544 1586,1544 458,0 1356,-338 1356,-338l-384 -993c0,0 -356,303 -761,294 -767,-20 -746,-511 -746,-511l0 -2279 1582 0 0 -955 -1582 0 0 -1322 -1051 0z"/>
  <path class="fil14" d="M193414 38249c-1560,0 -2341,1287 -2335,2403 8,1149 710,2441 2429,2441 736,0 1768,-646 1768,-646l-442 -774c0,0 -705,502 -1326,502 -1241,0 -1321,-1214 -1321,-1214l3322 0c0,0 247,-2712 -2095,-2712zm-141 891l0 0c37,-2 77,0 116,0 1169,0 1161,1104 1161,1104l-2363 0c0,0 -55,-1039 1086,-1104z"/>
  <path class="fil14" d="M203293 41662l446 890c0,0 -707,460 -1499,460 -1639,0 -2549,-1235 -2549,-2402 0,-1836 1448,-2374 2427,-2374 891,0 1660,513 1660,513l-499 888c0,0 -301,-471 -1186,-471 -885,0 -1351,761 -1351,1484 0,810 542,1499 1364,1499 643,0 1187,-487 1187,-487z"/>
  <path class="fil14" d="M220213 42245c-135,4 -247,49 -333,135 -88,86 -133,194 -137,323 4,129 49,235 137,323 86,86 198,131 333,135 131,-4 241,-49 329,-135 88,-88 133,-194 137,-323 -4,-129 -49,-237 -137,-323 -88,-86 -198,-131 -329,-135zm0 814l0 0c-104,-1 -188,-37 -254,-103 -67,-67 -102,-151 -104,-253 2,-102 37,-186 104,-252 66,-67 150,-100 254,-104 100,4 184,37 251,104 64,66 100,150 101,252 -1,102 -37,186 -101,253 -67,66 -151,102 -251,103zm28 -571l0 0 -198 0 0 427 92 0 0 -161 41 0 129 161 108 0 -139 -161c43,-6 78,-20 100,-43 23,-22 37,-51 37,-86 -2,-43 -16,-75 -45,-100 -30,-23 -71,-35 -125,-37zm-2 80l0 0c23,0 43,6 56,14 14,10 22,23 22,43 0,19 -8,33 -22,43 -13,10 -33,14 -56,14l-104 0 0 -114 104 0z"/>
 </g>
</svg>
