<?xml version="1.0" encoding="UTF-8"?>
<!DOCTYPE svg PUBLIC "-//W3C//DTD SVG 1.1//EN" "http://www.w3.org/Graphics/SVG/1.1/DTD/svg11.dtd">
<!-- Creator: CorelDRAW X8 -->
<svg xmlns="http://www.w3.org/2000/svg" xml:space="preserve" width="149px" height="48px" version="1.1" style="shape-rendering:geometricPrecision; text-rendering:geometricPrecision; image-rendering:optimizeQuality; fill-rule:evenodd; clip-rule:evenodd"
viewBox="0 0 14900 4847"
 xmlns:xlink="http://www.w3.org/1999/xlink">
 <defs>
  <style type="text/css">
   <![CDATA[
    .fil1 {fill:#2992D0;fill-rule:nonzero}
    .fil0 {fill:#F7C508;fill-rule:nonzero}
   ]]>
  </style>
 </defs>
 <g id="Layer_x0020_1">
  <metadata id="CorelCorpID_0Corel-Layer"/>
  <g id="_547609169184">
   <g>
    <path class="fil0" d="M2417 1886c319,0 516,-336 516,-822 0,-487 -197,-818 -516,-818 -319,0 -511,331 -511,818 0,486 192,822 511,822zm0 -1886c561,0 864,409 864,1064 0,654 -303,1064 -864,1064 -560,0 -859,-410 -859,-1064 0,-655 299,-1064 859,-1064z"/>
    <path class="fil0" d="M4033 1845l924 0 0 -1558 -662 0c0,797 -90,1296 -262,1558zm-405 -1804l1649 0 0 1804 249 0 0 630 -315 70 0 -458 -1358 0 0 388 -319 70 0 -700 147 0c196,-209 286,-687 294,-1591l-347 -58 0 -155z"/>
    <path class="fil0" d="M6119 896l900 0c-29,-405 -180,-650 -401,-650 -274,0 -467,245 -499,650zm1133 1015c-151,135 -348,216 -613,216 -561,0 -860,-409 -860,-1063 0,-655 299,-1064 860,-1064 449,0 716,405 716,1060 0,24 -17,61 -58,61l-1178 0c8,458 209,765 520,765 196,0 347,-49 515,-106 33,41 65,90 98,131z"/>
    <path class="fil0" d="M8614 1886c197,0 348,-49 516,-106l98 131c-151,135 -348,217 -614,217 -560,0 -859,-410 -859,-1064 0,-655 299,-1064 859,-1064 262,0 458,82 610,217l-98 131c-168,-57 -315,-102 -512,-102 -319,0 -511,331 -511,818 0,486 192,822 511,822z"/>
    <path class="fil0" d="M10479 1886c197,0 348,-49 516,-106l98 131c-151,135 -348,217 -614,217 -560,0 -859,-410 -859,-1064 0,-655 299,-1064 859,-1064 262,0 459,82 610,217l-98 131c-168,-57 -315,-102 -512,-102 -319,0 -511,331 -511,818 0,486 192,822 511,822z"/>
    <path class="fil0" d="M12242 1886c143,0 274,-49 397,-119l0 -630c-671,0 -851,164 -851,377 0,208 176,372 454,372zm1105 143l-589 107c-17,-49 -33,-111 -49,-172 -123,102 -287,164 -467,164 -487,0 -760,-250 -760,-614 0,-368 282,-618 1157,-618l0 -204c0,-307 -180,-446 -433,-446 -193,0 -348,45 -516,102l-94 -131c151,-139 348,-217 610,-217 478,0 752,237 752,692l0 797c0,131 0,258 17,385l372 0 0 155z"/>
   </g>
   <path class="fil1" d="M296 4775c288,-348 673,-588 1054,-821 367,-224 243,-183 550,78 407,346 1219,-272 1560,-416 -70,-7 -140,-13 -210,-20 194,630 586,1049 1275,997 335,-24 677,-198 968,-348 434,-226 864,-440 1239,-758l-272 17c153,439 364,808 873,774 214,-14 428,-145 611,-244 393,-213 776,-440 1174,-644 -78,5 -156,10 -234,16 165,249 352,552 704,483 342,-67 602,-231 864,-458l-272 17c284,513 583,994 1249,1007 700,13 1192,-399 1716,-812 -87,12 -175,23 -262,35 568,423 1155,771 1746,1156 80,52 361,-66 242,-144 -575,-375 -1154,-718 -1707,-1129 -74,-55 -195,-16 -261,35 -441,349 -856,765 -1480,671 -520,-78 -716,-495 -940,-900 -49,-88 -214,-33 -272,18 -200,173 -519,481 -830,219 -90,-76 -151,-218 -216,-315 -43,-65 -186,-9 -234,15 -357,184 -713,371 -1058,577 -274,163 -619,332 -882,27 -114,-131 -172,-324 -229,-485 -33,-96 -223,-24 -272,18 -418,354 -933,606 -1430,834 -784,360 -1285,-37 -1508,-760 -23,-74 -164,-39 -210,-19 -378,159 -1152,771 -1395,149 -40,-103 -256,-56 -326,-38 -251,67 -511,293 -726,428 -326,206 -634,439 -881,736 -83,102 221,78 282,4z"/>
   <path class="fil1" d="M12846 4367l0 43c0,77 303,25 303,-81l0 -43c0,-76 -303,-24 -303,81z"/>
   <path class="fil1" d="M6134 4228c-1,-9 20,-30 6,-19 -36,29 -43,81 2,105 66,34 156,8 215,-27 43,-25 -24,12 22,-11 25,-13 49,-26 73,-42 40,-29 91,-91 24,-125 -67,-35 -154,-7 -215,26 -45,25 -83,59 -123,89 -40,29 -92,90 -25,125 61,32 161,13 215,-27 43,-31 78,-63 124,-88 -64,-33 -128,-66 -191,-99 -26,19 -54,30 -94,53 73,26 145,52 218,78 38,-31 57,-71 51,-119 -7,-67 -135,-51 -172,-41 -55,15 -137,54 -130,122z"/>
  </g>
 </g>
</svg>
