<?xml version="1.0" encoding="utf-8"?>
<!-- Generator: Adobe Illustrator 16.0.0, SVG Export Plug-In . SVG Version: 6.00 Build 0)  -->
<!DOCTYPE svg PUBLIC "-//W3C//DTD SVG 1.1//EN" "http://www.w3.org/Graphics/SVG/1.1/DTD/svg11.dtd">
<svg version="1.1" id="Layer_1" xmlns="http://www.w3.org/2000/svg" xmlns:xlink="http://www.w3.org/1999/xlink" x="0px" y="0px"
	 width="80px" height="124.379px" viewBox="0 0 80 124.379" enable-background="new 0 0 80 124.379" xml:space="preserve">
<path id="russia_x5F_word" fill="#2D65AF" d="M78.124,91.54h-3.314c-0.629,0-0.703,0.244-0.727,0.734v23.102
	c0,0.641,0.275,0.734,0.758,0.768h3.25c0.449,0,0.76-0.094,0.76-0.768V92.274C78.85,91.649,78.637,91.54,78.124,91.54z
	 M32.627,91.54h-3.316c-0.625,0-0.691,0.244-0.723,0.734v23.102c0,0.641,0.277,0.734,0.762,0.768h3.244
	c0.455,0,0.764-0.094,0.764-0.768V92.274C33.358,91.649,33.15,91.54,32.627,91.54z M22.029,122.256
	c-2.09-0.564-6.41-2.066-7.561-6.002c6.234-2.336,7.734-8.367,7.734-12.512c0-7.527-4.467-12.77-11.053-12.77
	C5.084,90.973,0,95.375,0,104.012c0,5.656,2.615,11.477,9.516,12.592c2.857,6.721,11.994,7.775,12.688,7.775
	c0.979,0,1.217-0.629,1.217-1.014C23.42,122.602,22.898,122.459,22.029,122.256z M11.084,113.819c-0.453,0-2.895,0-4.641-2.896
	c-1.25-2.129-1.535-5.021-1.535-7.18c0-2.338,0.318-5.119,1.535-7.076c1.193-1.846,2.996-2.758,4.678-2.758
	c0.793,0,2.932,0.207,4.498,2.648c1.461,2.27,1.67,5.371,1.67,7.047c0.037,2.049-0.176,4.977-1.361,7.107
	C14.678,112.905,12.791,113.819,11.084,113.819z M67.524,91.54h-2.369c-0.484,0-0.666,0.137-0.803,0.701l-4.043,15.963
	l-4.955-15.867c-0.209-0.66-0.242-0.723-0.482-0.797h-1.328c-0.383,0-0.455,0.203-0.625,0.701l-4.875,15.963l-4.02-15.9
	c-0.172-0.736-0.318-0.764-0.906-0.764h-3.273c-0.35,0-0.67,0.109-0.67,0.525c0,0.133,0,0.176,0.109,0.555l6.521,22.869
	c0.172,0.561,0.357,0.654,0.982,0.654c0.518,0,1.461,0,1.559-0.033c0.346-0.027,0.418-0.133,0.594-0.652l4.672-14.859l4.984,14.891
	c0.174,0.527,0.281,0.621,0.623,0.654h1.719c0.484,0,0.588-0.127,0.764-0.686l6.422-22.838c0.064-0.346,0.098-0.492,0.098-0.627
	C68.221,91.54,67.913,91.54,67.524,91.54z"/>
<path id="sign_1_" fill="#F4981A" d="M63.719,54.951c-0.773-0.289-0.842,0.623-0.648,1.217c0.43,1.391,1.014,2.455,1.441,2.666
	c0.41,0.248,0.895-0.324,0.586-1.715C64.963,56.518,64.506,55.256,63.719,54.951z M57.614,57.525c-0.012-0.01-0.02-0.01-0.031-0.018
	c-0.025,0-0.043-0.01-0.059-0.016c-0.027-0.01-0.049-0.021-0.072-0.027c-0.016,0-0.037,0-0.043-0.006
	c-0.039-0.012-0.076-0.021-0.117-0.037c-0.488-0.084-0.973-0.012-1.375,0.25c-0.914,0.621-1.053,2.023-0.305,3.141
	c0.35,0.506,0.814,0.857,1.318,1.051c0.01,0,0.018,0,0.039,0.012c0.016,0.004,0.037,0.016,0.051,0.016
	c0.025,0.012,0.049,0.012,0.07,0.02c0.021,0,0.031,0.008,0.045,0.014c0.041,0.01,0.074,0.025,0.113,0.027
	c0.484,0.098,0.973,0.027,1.377-0.244c0.92-0.621,1.059-2.018,0.311-3.133C58.59,58.062,58.122,57.705,57.614,57.525z
	 M79.278,79.536c-2.227-4.534-6.178-7.86-10.457-10.411c-1.484-0.885-3.16-1.508-4.621-1.986c-3.357-1.088-6.609-1.34-10.4-1.988
	c-3.08-0.527-5.514-1.793-8.125-3.564c-1.359-0.932-2.471-2.207-3.4-3.557c-0.174-0.273-1.043-1.33-0.955-1.693
	c0,0-0.605,2.422,0.594,5.824c-11.024-0.494-20.688-6.607-25.114-14.016c-8.15-13.637-5.277-30.162,5.586-37.461
	c10.861-7.301,27.422-2.15,36.288,11.028c5.564,8.271,6.988,17.893,4.605,25.717c-0.02,0.061-0.041,0.119-0.059,0.18
	c-4.711-3.426-9.014-1.678-9.014-1.678c4.721-0.488,8.453,3.268,8.453,3.268c0.549,0.488,1.076,1.027,1.555,1.627
	c0.105,0.146,0.217,0.295,0.324,0.451c1.236,1.68,2.008,3.545,2.334,5.438c9.373-11.889,10.922-28.357,2.629-41.148
	C58.936-0.737,36.409-4.899,19.201,6.255C1.984,17.418-3.402,39.67,7.168,55.969c8.682,13.41,29.049,17.5,40.725,13.805
	c4.414-1.387,19.527-2.709,30.049,9.719c0,0,0.908,1.039,1.402,2.223c0,0,0.146,0.416,0.537,0.215
	C79.983,81.877,80.274,81.54,79.278,79.536z"/>
</svg>
