<?xml version="1.0" encoding="UTF-8"?>
<!DOCTYPE svg PUBLIC "-//W3C//DTD SVG 1.1//EN" "http://www.w3.org/Graphics/SVG/1.1/DTD/svg11.dtd">
<!-- Creator: CorelDRAW X6 -->
<svg xmlns="http://www.w3.org/2000/svg" xml:space="preserve" width="20px" height="18px" version="1.1" style="shape-rendering:geometricPrecision; text-rendering:geometricPrecision; image-rendering:optimizeQuality; fill-rule:evenodd; clip-rule:evenodd"
viewBox="0 0 406 352"
 xmlns:xlink="http://www.w3.org/1999/xlink">
 <defs>
  <style type="text/css">
   <![CDATA[
    .fil0 {fill:white;fill-rule:nonzero}
   ]]>
  </style>
 </defs>
 <g id="Слой_x0020_1">
  <metadata id="CorelCorpID_0Corel-Layer"/>
  <path class="fil0" d="M213 0c30,0 60,5 85,12 39,11 70,26 82,33l6 4 0 80 -19 -11c-11,-7 -19,-12 -62,-11 -22,0 -48,8 -66,22 -15,11 -25,26 -25,43 0,21 8,41 23,55 13,13 33,21 56,21 14,0 27,0 39,-3 13,-3 26,-7 40,-16l17 -12 0 86 -6 3c0,0 -74,46 -171,46 -59,0 -114,-17 -153,-51 -36,-31 -59,-75 -59,-133 0,-29 8,-57 21,-80 15,-25 35,-45 59,-59 18,-10 38,-17 60,-22 23,-5 48,-7 73,-7zm-93 81c50,0 63,47 63,68 0,21 -15,56 -62,56 -2,0 -9,0 -13,-1l0 -34c0,0 10,1 14,1 4,0 29,4 29,-24 0,-28 -24,-30 -28,-30 -8,0 -28,4 -28,29 0,27 0,143 0,143l-31 -39c0,-13 0,-88 0,-112 0,-24 18,-57 56,-57zm188 62l98 0 0 28 -24 0 0 42 -50 0 0 -42 -24 0 0 -28zm-16 -110c-24,-6 -51,-11 -79,-11 -23,0 -47,2 -69,7 -19,4 -37,10 -53,19 -21,12 -38,30 -50,51 -12,20 -19,44 -19,69 0,51 20,90 51,116 35,31 85,46 139,46 76,0 137,-30 155,-39l0 -34c-11,4 -20,8 -30,10 -15,3 -29,3 -44,3 -29,0 -54,-10 -72,-27 -19,-19 -29,-44 -29,-71 0,-25 14,-46 34,-61 22,-16 52,-26 79,-26 32,-1 48,2 59,6l0 -30c-14,-7 -40,-19 -72,-28z"/>
 </g>
</svg>
